<svg width="114" height="33" viewBox="0 0 114 33" fill="none" xmlns="http://www.w3.org/2000/svg">
<g clip-path="url(#clip0_40000173_12135)">
<g clip-path="url(#clip1_40000173_12135)">
<path d="M113.517 23.6135C113.643 22.9811 113.709 22.3245 113.709 21.6496C113.709 21.4794 113.709 21.3031 113.697 21.1328C113.685 20.9626 113.673 20.7923 113.661 20.6282C113.643 20.4215 113.613 20.2208 113.577 20.0263C112.857 15.6061 109.245 12.1162 104.798 11.6541C104.636 11.6359 104.468 11.6237 104.3 11.6176C104.132 11.6055 103.958 11.6055 103.79 11.6055C103.622 11.6055 103.448 11.6055 103.28 11.6176C103.112 11.6298 102.944 11.6419 102.782 11.6541C98.3416 12.1162 94.7292 15.6061 94.0031 20.0263C93.9671 20.2208 93.9431 20.4215 93.9191 20.6282C93.9011 20.7984 93.8891 20.9687 93.8831 21.1389C93.8711 21.3091 93.8711 21.4855 93.8711 21.6557C93.8711 21.8259 93.8711 22.0023 93.8831 22.1725C93.8951 22.3427 93.9071 22.513 93.9191 22.6771C93.9491 22.9994 93.9971 23.3095 94.0631 23.6195C94.9092 27.8816 98.4496 31.2013 102.782 31.6512C102.944 31.6694 103.112 31.6816 103.28 31.6877C103.448 31.6999 103.622 31.6999 103.79 31.6999C103.904 31.6999 104.018 31.6999 104.132 31.6938C104.21 31.6938 104.288 31.6877 104.372 31.6816C104.384 31.6816 104.402 31.6816 104.414 31.6816C104.504 31.6755 104.6 31.6695 104.69 31.6573C104.792 31.6451 104.888 31.6391 104.984 31.6269C105.08 31.6147 105.182 31.6026 105.278 31.5843C105.47 31.5539 105.668 31.5175 105.86 31.4749C106.916 31.2439 107.931 30.8426 108.855 30.2832C108.939 30.2346 109.023 30.1799 109.107 30.1251C109.185 30.0765 109.257 30.0279 109.335 29.9731C109.341 29.9731 109.347 29.961 109.353 29.961C109.431 29.9063 109.509 29.8515 109.587 29.7907C109.593 29.7907 109.599 29.7847 109.605 29.7786C109.671 29.7299 109.731 29.6813 109.797 29.6327C109.815 29.6205 109.833 29.6023 109.851 29.5901C109.899 29.5536 109.947 29.5111 110.001 29.4746C110.181 29.3287 110.355 29.1767 110.523 29.0186C110.583 28.9639 110.643 28.9031 110.703 28.8483C110.715 28.8362 110.727 28.824 110.739 28.8119C110.793 28.7571 110.853 28.6963 110.907 28.6416C110.919 28.6295 110.925 28.6234 110.937 28.6112C110.997 28.5443 111.063 28.4775 111.123 28.4106C111.129 28.4045 111.135 28.3923 111.141 28.3863C111.207 28.3133 111.267 28.2464 111.327 28.1735C111.393 28.0944 111.459 28.0215 111.519 27.9424C111.579 27.8695 111.633 27.7904 111.693 27.7175C111.693 27.7114 111.699 27.7053 111.705 27.6992C111.765 27.6202 111.825 27.5411 111.879 27.456L108.009 24.6775C107.072 26.0151 105.53 26.8845 103.79 26.8845C101.618 26.8845 99.7577 25.5287 98.9896 23.6074H113.511L113.517 23.6135ZM98.8696 20.0202C99.5477 17.9226 101.492 16.4026 103.79 16.4026C106.088 16.4026 108.033 17.9165 108.711 20.0202H98.8696Z" fill="#192232"/>
<path d="M93.4733 21.8434V21.8617C93.0473 21.2962 92.5132 20.8159 91.8232 20.4085C90.275 19.4965 88.3608 19.1682 86.6626 18.9129C86.0146 18.8156 85.4085 18.7183 84.8925 18.5967C83.8963 18.3596 83.2363 18.0313 83.2363 17.3807C83.2363 15.9215 84.8564 15.6053 85.9726 15.6053C86.9087 15.6053 89.1049 15.9519 89.1049 17.1922H93.8994C93.8994 16.2255 93.7194 14.6569 91.8832 13.2706C90.407 12.1762 88.3848 11.5986 85.9366 11.5986C81.5741 11.5986 78.0037 14.3772 78.0037 17.8124C78.0037 19.3081 78.7238 20.5484 79.7979 21.3449C79.9299 21.4421 80.0619 21.5333 80.2059 21.6124C81.5741 22.4879 83.2003 22.8892 84.7124 23.0716C86.2966 23.2905 89.2549 23.7282 89.2549 25.5218C89.2549 26.9445 87.2027 27.4857 86.1526 27.4857C84.5684 27.4857 82.9422 26.5737 82.9422 24.9199H77.6797C77.6797 26.1602 78.0037 27.5951 79.7739 29.4191C80.458 30.1122 81.3401 30.6108 82.2942 30.9756C82.3422 30.9938 82.3902 31.0121 82.4442 31.0303C83.5603 31.4681 84.8204 31.6869 86.1586 31.6869C87.2747 31.6869 88.3608 31.5045 89.3689 31.1762C90.341 30.8844 91.2411 30.4466 92.0032 29.8629C92.7953 29.3157 93.4073 28.6591 93.8394 27.9295C94.0314 27.589 94.1814 27.2485 94.2954 26.8959C94.3134 26.8351 94.3314 26.7743 94.3494 26.7135C94.3794 26.6101 94.4035 26.5068 94.4275 26.3973V26.3852C94.4515 26.2757 94.4695 26.1724 94.4815 26.0629C94.4815 26.0629 94.4815 26.069 94.4815 26.0751C94.5295 25.7893 94.5475 25.4975 94.5475 25.1996C94.5475 23.9775 94.1514 22.8284 93.4674 21.8434H93.4733Z" fill="#192232"/>
<path d="M78.5042 20.2819V31.0313H72.9176V21.4432C72.9176 19.0355 70.9974 17.0899 68.6212 17.0899C66.2449 17.0899 64.4747 18.8896 64.3307 21.1635C64.3247 21.2547 64.3187 21.3459 64.3187 21.4432C64.3187 21.5404 64.3187 21.6316 64.3307 21.7228V31.0313H58.7441V12.1225H64.3307V13.5878C65.8309 12.311 67.7631 11.5449 69.8753 11.5449C70.9674 11.5449 72.0115 11.7516 72.9776 12.1286C76.212 13.3872 78.5042 16.567 78.5042 20.288V20.2819Z" fill="#192232"/>
<path d="M58.941 23.6135C59.067 22.9811 59.133 22.3245 59.133 21.6496C59.133 21.4794 59.133 21.3031 59.121 21.1328C59.109 20.9626 59.097 20.7923 59.085 20.6282C59.067 20.4215 59.037 20.2208 59.001 20.0263C58.2809 15.6061 54.6685 12.1162 50.2221 11.6541C50.0601 11.6359 49.892 11.6237 49.724 11.6176C49.556 11.6055 49.382 11.6055 49.214 11.6055C49.0459 11.6055 48.8719 11.6055 48.7039 11.6176C48.5359 11.6298 48.3679 11.6419 48.2059 11.6541C43.7654 12.1162 40.153 15.6061 39.4269 20.0263C39.3909 20.2208 39.3669 20.4215 39.3429 20.6282C39.3249 20.7984 39.3129 20.9687 39.3069 21.1389C39.2949 21.3091 39.2949 21.4855 39.2949 21.6557C39.2949 21.8259 39.2949 22.0023 39.3069 22.1725C39.3189 22.3427 39.3309 22.513 39.3429 22.6771C39.3729 22.9994 39.4209 23.3095 39.4869 23.6195C40.333 27.8816 43.8734 31.2013 48.2059 31.6512C48.3679 31.6694 48.5359 31.6816 48.7039 31.6877C48.8719 31.6999 49.0459 31.6999 49.214 31.6999C49.328 31.6999 49.442 31.6999 49.556 31.6938C49.634 31.6938 49.712 31.6877 49.796 31.6816C49.808 31.6816 49.826 31.6816 49.838 31.6816C49.928 31.6755 50.0241 31.6695 50.1141 31.6573C50.2161 31.6451 50.3121 31.6391 50.4081 31.6269C50.5041 31.6147 50.6061 31.6026 50.7021 31.5843C50.8941 31.5539 51.0922 31.5175 51.2842 31.4749C52.3403 31.2439 53.3544 30.8426 54.2785 30.2832C54.3625 30.2346 54.4465 30.1799 54.5305 30.1251C54.6085 30.0765 54.6805 30.0279 54.7586 29.9731C54.7646 29.9731 54.7706 29.961 54.7766 29.961C54.8546 29.9063 54.9326 29.8515 55.0106 29.7907C55.0166 29.7907 55.0226 29.7847 55.0286 29.7786C55.0946 29.7299 55.1546 29.6813 55.2206 29.6327C55.2386 29.6205 55.2566 29.6023 55.2746 29.5901C55.3226 29.5536 55.3706 29.5111 55.4246 29.4746C55.6046 29.3287 55.7787 29.1767 55.9467 29.0186C56.0067 28.9639 56.0667 28.9031 56.1267 28.8483C56.1387 28.8362 56.1507 28.824 56.1627 28.8119C56.2167 28.7571 56.2767 28.6963 56.3307 28.6416C56.3427 28.6295 56.3487 28.6234 56.3607 28.6112C56.4207 28.5443 56.4867 28.4775 56.5467 28.4106C56.5527 28.4045 56.5587 28.3923 56.5647 28.3863C56.6307 28.3133 56.6908 28.2464 56.7508 28.1735C56.8168 28.0944 56.8828 28.0215 56.9428 27.9424C57.0028 27.8695 57.0568 27.7904 57.1168 27.7175C57.1168 27.7114 57.1228 27.7053 57.1288 27.6992C57.1888 27.6202 57.2488 27.5411 57.3028 27.456L53.4324 24.6775C52.4963 26.0151 50.9542 26.8845 49.214 26.8845C47.0417 26.8845 45.1815 25.5287 44.4135 23.6074H58.935L58.941 23.6135ZM44.2934 20.0202C44.9715 17.9226 46.9157 16.4026 49.214 16.4026C51.5122 16.4026 53.4564 17.9165 54.1345 20.0202H44.2934Z" fill="#192232"/>
<path d="M38.8952 21.8434V21.8617C38.4692 21.2962 37.9351 20.8159 37.2451 20.4085C35.6969 19.4965 33.7827 19.1682 32.0845 18.9129C31.4364 18.8156 30.8304 18.7183 30.3143 18.5967C29.3182 18.3596 28.6581 18.0313 28.6581 17.3807C28.6581 15.9215 30.2783 15.6053 31.3944 15.6053C32.3305 15.6053 34.5268 15.9519 34.5268 17.1922H39.3213C39.3213 16.2255 39.1413 14.6569 37.3051 13.2706C35.8289 12.1762 33.8067 11.5986 31.3584 11.5986C26.996 11.5986 23.4256 14.3772 23.4256 17.8124C23.4256 19.3081 24.1457 20.5484 25.2198 21.3449C25.3518 21.4421 25.4838 21.5333 25.6278 21.6124C26.996 22.4879 28.6221 22.8892 30.1343 23.0716C31.7185 23.2905 34.6768 23.7282 34.6768 25.5218C34.6768 26.9445 32.6246 27.4857 31.5745 27.4857C29.9903 27.4857 28.3641 26.5737 28.3641 24.9199H23.1016C23.1016 26.1602 23.4256 27.5951 25.1958 29.4191C25.8799 30.1122 26.7619 30.6108 27.716 30.9756C27.7641 30.9938 27.8121 31.0121 27.8661 31.0303C28.9822 31.4681 30.2423 31.6869 31.5805 31.6869C32.6966 31.6869 33.7827 31.5045 34.7908 31.1762C35.7629 30.8844 36.663 30.4466 37.4251 29.8629C38.2172 29.3157 38.8292 28.6591 39.2613 27.9295C39.4533 27.589 39.6033 27.2485 39.7173 26.8959C39.7353 26.8351 39.7533 26.7743 39.7713 26.7135C39.8013 26.6101 39.8253 26.5068 39.8493 26.3973V26.3852C39.8733 26.2757 39.8913 26.1724 39.9033 26.0629C39.9033 26.0629 39.9033 26.069 39.9033 26.0751C39.9513 25.7893 39.9693 25.4975 39.9693 25.1996C39.9693 23.9775 39.5733 22.8284 38.8892 21.8434H38.8952Z" fill="#192232"/>
<path d="M12.8748 11.8304C14.033 12.0796 15.1551 12.5356 16.1932 13.2166L12.7608 17.3631C10.9006 16.4998 8.6324 16.9558 7.25226 18.6217C5.87211 20.2876 5.8241 22.6345 6.98823 24.3369L3.55587 28.4835C0.201512 24.8233 -0.0205112 19.1203 3.23183 15.1987L14.741 1.2998L18.7675 4.72284L12.8808 11.8304H12.8748Z" fill="#13BBB2"/>
<path d="M18.4127 28.1129C15.1603 32.0345 9.57975 32.8127 5.44531 30.095L8.87767 25.9484C10.7379 26.8118 13.0121 26.3558 14.3863 24.6899C15.7664 23.024 15.8144 20.6771 14.6503 18.9747L18.0826 14.8281C21.437 18.4883 21.659 24.1913 18.4067 28.1129H18.4127Z" fill="#192232"/>
<path d="M113.709 13.0406C113.709 13.831 113.163 14.4876 112.347 14.4876C111.531 14.4876 110.961 13.8674 110.961 13.0406C110.961 12.2137 111.531 11.5996 112.347 11.5996C113.163 11.5996 113.709 12.2623 113.709 13.0406ZM111.249 13.0406C111.249 13.679 111.705 14.214 112.347 14.214C113.037 14.214 113.403 13.6972 113.403 13.0527C113.403 12.4082 112.977 11.8793 112.341 11.8793C111.621 11.8793 111.255 12.4569 111.255 13.0406H111.249ZM111.807 13.7337V12.2927H112.377C112.683 12.2927 112.923 12.4143 112.923 12.7062C112.923 12.8886 112.779 13.0102 112.677 13.0406C112.779 13.077 112.881 13.1804 112.881 13.4175C112.881 13.5026 112.881 13.6182 112.899 13.7276H112.611C112.587 13.6425 112.575 13.5026 112.575 13.4236C112.575 13.2351 112.533 13.15 112.329 13.15H112.101V13.7276H111.813L111.807 13.7337ZM112.095 12.9372H112.353C112.497 12.9372 112.605 12.8946 112.605 12.7244C112.605 12.6028 112.557 12.5177 112.359 12.5177H112.095V12.9372Z" fill="#192232"/>
</g>
</g>
<defs>
<clipPath id="clip0_40000173_12135">
<rect width="113.537" height="32" fill="white" transform="translate(0.109375 0.5)"/>
</clipPath>
<clipPath id="clip1_40000173_12135">
<rect width="112.8" height="30.4" fill="white" transform="translate(0.910156 1.2998)"/>
</clipPath>
</defs>
</svg>
