<svg xmlns="http://www.w3.org/2000/svg" viewBox="0 0 48 48">
  <path d="M 12,4 L 44,4 L 44,36 A 8,8 0 0,1 36,44 L 4,44 L 4,12 A 8,8 0 0,1 12,4 Z" fill="#0D0D0D"/>
  <g transform="matrix(0.021769,0,0,0.021769,15.6385,8.0000)">
    <path d="M 671.18 281.55 L 669.06 281.56 L 666.93 281.56 L 664.86 281.57 L 662.73 281.57 L 662.71 281.57 L 660.64 281.58 L 658.52 281.59 L 658.50 281.59 L 656.43 281.59 L 654.32 281.61 L 652.21 281.62 L 650.13 281.63 L 648.05 281.64 L 645.95 281.66 L 643.86 281.67 L 641.77 281.69 L 641.77 281.68 L 639.74 281.70 L 639.72 281.70 L 637.64 281.72 L 637.64 281.72 L 635.61 281.74 L 633.55 281.76 L 631.51 281.78 L 629.46 281.80 L 627.43 281.82 L 625.39 281.85 L 623.39 281.87 L 621.36 281.90 L 619.37 281.92 L 617.35 281.95 L 607.77 280.25 L 599.49 275.13 L 593.70 267.31 L 591.13 256.55 L 591.11 255.01 L 591.08 253.57 L 591.08 253.57 L 591.04 252.14 L 591.00 250.76 L 590.95 249.32 L 590.90 247.98 L 590.84 246.59 L 590.77 245.24 L 590.70 243.94 L 590.63 242.78 L 590.62 242.78 L 590.53 241.32 L 590.43 240.07 L 590.35 239.01 L 590.22 237.57 L 590.09 236.32 L 589.99 235.35 L 589.83 233.94 L 589.72 233.03 L 589.56 231.85 L 589.36 230.45 L 589.20 229.44 L 589.05 228.52 L 588.82 227.24 L 588.67 226.40 L 588.41 225.15 L 588.17 224.02 L 587.95 223.01 L 587.77 222.27 L 587.43 220.94 L 587.22 220.17 L 586.94 219.19 L 586.63 218.13 L 586.34 217.22 L 586.07 216.40 L 585.74 215.47 L 585.37 214.44 L 585.06 213.65 L 584.66 212.64 L 584.32 211.83 L 583.94 210.97 L 583.55 210.12 L 583.12 209.24 L 582.70 208.40 L 582.25 207.54 L 581.76 206.63 L 581.35 205.92 L 580.82 205.02 L 580.32 204.20 L 579.80 203.39 L 579.22 202.51 L 578.70 201.75 L 578.06 200.86 L 577.46 200.05 L 576.83 199.23 L 576.16 198.38 L 575.44 197.51 L 574.76 196.72 L 574.03 195.89 L 573.30 195.09 L 572.51 194.25 L 571.04 192.77 L 569.58 191.38 L 568.08 190.04 L 566.63 188.82 L 565.10 187.62 L 563.58 186.50 L 562.04 185.44 L 560.53 184.46 L 558.95 183.52 L 557.40 182.65 L 555.79 181.82 L 554.26 181.08 L 552.60 180.36 L 551.02 179.72 L 549.40 179.13 L 547.78 178.59 L 546.12 178.10 L 544.52 177.68 L 542.89 177.31 L 541.20 176.98 L 539.55 176.71 L 537.90 176.49 L 536.25 176.33 L 534.58 176.22 L 532.90 176.15 L 531.25 176.14 L 529.58 176.19 L 527.93 176.28 L 526.25 176.42 L 524.59 176.62 L 522.94 176.87 L 521.35 177.15 L 519.66 177.51 L 518.00 177.92 L 516.47 178.34 L 514.76 178.87 L 513.22 179.40 L 511.60 180.02 L 510.02 180.67 L 508.50 181.36 L 506.89 182.14 L 505.41 182.92 L 503.90 183.77 L 502.39 184.68 L 500.89 185.66 L 499.49 186.62 L 498.01 187.71 L 496.61 188.81 L 495.22 189.98 L 493.87 191.17 L 492.52 192.45 L 491.18 193.79 L 489.94 195.11 L 488.68 196.54 L 487.46 198.02 L 486.24 199.58 L 485.08 201.15 L 483.97 202.77 L 482.88 204.45 L 481.77 206.30 L 481.18 207.33 L 480.65 208.29 L 480.11 209.31 L 479.62 210.28 L 479.08 211.40 L 478.64 212.33 L 478.16 213.41 L 477.79 214.30 L 477.32 215.46 L 476.96 216.39 L 476.58 217.44 L 476.20 218.52 L 475.90 219.45 L 475.60 220.41 L 475.30 221.41 L 474.98 222.57 L 474.70 223.65 L 474.47 224.58 L 474.24 225.58 L 474.00 226.71 L 473.78 227.80 L 473.58 228.89 L 473.39 229.94 L 473.21 231.08 L 473.05 232.17 L 472.88 233.45 L 472.75 234.48 L 472.62 235.58 L 472.51 236.69 L 472.39 237.95 L 472.28 239.29 L 472.20 240.40 L 472.13 241.50 L 472.06 242.75 L 471.99 244.20 L 471.95 245.29 L 471.90 246.58 L 471.90 246.73 L 471.90 246.74 L 471.86 248.04 L 471.86 248.04 L 471.83 249.21 L 471.81 250.67 L 471.80 251.92 L 471.78 253.39 L 471.78 254.74 L 471.78 256.16 L 471.79 257.49 L 471.80 258.98 L 471.79 258.98 L 471.81 260.39 L 471.82 261.86 L 471.84 263.33 L 471.86 264.82 L 471.88 266.33 L 471.88 266.37 L 471.90 267.89 L 471.91 269.42 L 471.91 269.42 L 471.93 270.96 L 471.93 271.02 L 471.95 272.56 L 471.95 272.59 L 471.96 274.14 L 471.96 274.17 L 471.97 275.72 L 471.97 275.81 L 471.98 277.37 L 471.98 277.43 L 471.98 279.00 L 471.98 279.09 L 471.98 280.66 L 471.87 366.16 L 471.83 643.69 L 658.31 644.12 L 667.86 645.97 L 676.06 651.22 L 681.73 659.13 L 684.12 670.01 L 683.97 799.86 L 682.13 809.41 L 676.89 817.61 L 668.98 823.30 L 658.11 825.70 L 471.86 825.72 L 471.83 1108.25 L 471.83 1191.77 L 471.83 1193.16 L 471.83 1195.83 L 471.84 1198.56 L 471.86 1201.29 L 471.87 1202.66 L 471.87 1202.70 L 471.88 1204.04 L 471.88 1205.41 L 471.88 1205.45 L 471.89 1206.82 L 471.90 1208.19 L 471.91 1209.56 L 471.91 1209.59 L 471.92 1212.33 L 471.92 1212.36 L 471.92 1213.73 L 471.92 1213.76 L 471.92 1215.13 L 471.92 1216.56 L 471.92 1217.92 L 471.92 1217.96 L 471.92 1219.32 L 471.92 1219.39 L 471.91 1220.75 L 471.91 1220.79 L 471.90 1222.15 L 471.90 1222.18 L 471.89 1223.54 L 471.89 1223.61 L 471.87 1224.97 L 471.87 1225.04 L 471.86 1226.39 L 471.85 1226.47 L 471.83 1227.82 L 471.83 1227.89 L 471.80 1229.25 L 471.80 1229.32 L 471.77 1230.67 L 471.77 1230.74 L 471.74 1232.10 L 471.74 1232.17 L 471.70 1233.52 L 471.70 1233.63 L 471.65 1234.98 L 471.65 1235.09 L 471.60 1236.44 L 471.60 1236.55 L 471.54 1237.90 L 471.54 1237.97 L 471.48 1239.33 L 471.48 1239.43 L 471.42 1240.79 L 471.41 1240.89 L 471.34 1242.24 L 471.34 1242.39 L 471.26 1243.74 L 471.25 1243.84 L 471.17 1245.20 L 471.17 1245.30 L 471.08 1246.66 L 471.07 1246.80 L 470.98 1248.15 L 470.97 1248.26 L 470.87 1249.61 L 470.86 1249.78 L 470.75 1251.14 L 470.74 1251.24 L 470.62 1252.60 L 470.61 1252.74 L 470.49 1254.09 L 470.48 1254.23 L 470.35 1255.59 L 470.33 1255.76 L 470.19 1257.11 L 470.18 1257.25 L 470.03 1258.61 L 470.02 1258.75 L 469.86 1260.10 L 469.84 1260.31 L 469.67 1261.67 L 469.66 1261.77 L 469.49 1263.13 L 469.47 1263.33 L 469.28 1264.69 L 469.26 1264.86 L 469.07 1266.22 L 469.05 1266.36 L 468.85 1267.72 L 468.82 1267.91 L 468.62 1269.28 L 468.58 1269.49 L 468.36 1270.85 L 468.34 1270.98 L 468.12 1272.34 L 468.08 1272.58 L 467.84 1273.94 L 467.81 1274.10 L 467.56 1275.47 L 467.53 1275.63 L 467.27 1277.01 L 467.22 1277.24 L 466.95 1278.61 L 466.92 1278.76 L 466.54 1280.65 L 466.49 1280.85 L 466.09 1282.74 L 466.04 1282.98 L 465.62 1284.87 L 465.57 1285.07 L 465.14 1286.95 L 465.08 1287.19 L 464.63 1289.06 L 464.58 1289.27 L 464.11 1291.14 L 464.05 1291.36 L 463.57 1293.22 L 463.51 1293.44 L 463.01 1295.30 L 462.94 1295.53 L 462.43 1297.38 L 462.36 1297.61 L 461.83 1299.45 L 461.77 1299.66 L 461.22 1301.49 L 461.15 1301.74 L 460.58 1303.57 L 460.52 1303.76 L 459.94 1305.59 L 459.86 1305.83 L 459.26 1307.65 L 459.19 1307.87 L 458.58 1309.68 L 458.50 1309.90 L 457.87 1311.71 L 457.79 1311.94 L 457.15 1313.74 L 457.07 1313.94 L 456.41 1315.74 L 456.33 1315.97 L 455.65 1317.76 L 455.57 1317.96 L 454.88 1319.74 L 454.79 1319.97 L 454.08 1321.75 L 454.00 1321.96 L 453.27 1323.73 L 453.19 1323.92 L 452.45 1325.69 L 452.35 1325.91 L 451.60 1327.67 L 451.50 1327.89 L 450.73 1329.64 L 450.65 1329.83 L 449.86 1331.57 L 449.75 1331.81 L 448.95 1333.55 L 448.86 1333.73 L 448.05 1335.46 L 447.94 1335.68 L 447.11 1337.40 L 447.01 1337.61 L 446.06 1339.51 L 445.20 1341.22 L 445.09 1341.43 L 444.22 1343.13 L 444.11 1343.33 L 443.22 1345.02 L 443.10 1345.23 L 442.19 1346.92 L 442.09 1347.11 L 441.16 1348.79 L 441.05 1348.99 L 440.11 1350.66 L 440.01 1350.84 L 439.06 1352.50 L 438.93 1352.72 L 437.96 1354.37 L 437.85 1354.56 L 436.87 1356.20 L 436.74 1356.40 L 435.75 1358.04 L 435.62 1358.24 L 434.61 1359.86 L 434.49 1360.05 L 433.46 1361.67 L 433.35 1361.85 L 432.31 1363.45 L 432.17 1363.67 L 431.11 1365.27 L 430.99 1365.45 L 429.92 1367.04 L 429.79 1367.23 L 428.71 1368.81 L 428.57 1369.00 L 427.47 1370.57 L 427.34 1370.75 L 426.23 1372.32 L 426.10 1372.50 L 424.97 1374.05 L 424.83 1374.24 L 423.69 1375.79 L 423.54 1375.99 L 422.38 1377.52 L 422.26 1377.67 L 421.09 1379.20 L 420.94 1379.40 L 419.76 1380.91 L 419.61 1381.09 L 418.41 1382.60 L 418.27 1382.77 L 417.06 1384.27 L 416.91 1384.45 L 415.68 1385.93 L 415.54 1386.11 L 414.30 1387.58 L 414.16 1387.74 L 412.91 1389.20 L 412.73 1389.41 L 411.46 1390.86 L 411.32 1391.02 L 410.04 1392.46 L 409.67 1392.87 L 407.62 1395.08 L 407.41 1395.31 L 405.34 1397.48 L 405.10 1397.73 L 403.01 1399.87 L 402.78 1400.11 L 400.67 1402.21 L 400.43 1402.45 L 398.31 1404.51 L 398.06 1404.75 L 395.92 1406.77 L 395.68 1407.00 L 393.53 1408.98 L 393.27 1409.22 L 391.10 1411.17 L 390.82 1411.41 L 388.64 1413.32 L 388.38 1413.54 L 386.18 1415.41 L 385.91 1415.64 L 383.69 1417.47 L 383.42 1417.69 L 381.18 1419.49 L 380.90 1419.72 L 378.64 1421.48 L 378.36 1421.70 L 376.09 1423.42 L 375.82 1423.62 L 373.54 1425.31 L 373.22 1425.54 L 370.92 1427.19 L 370.64 1427.39 L 368.32 1429.00 L 368.02 1429.20 L 365.69 1430.78 L 365.38 1430.98 L 363.03 1432.52 L 362.72 1432.72 L 360.36 1434.22 L 360.05 1434.41 L 357.67 1435.88 L 357.37 1436.06 L 354.97 1437.49 L 354.65 1437.68 L 352.24 1439.08 L 351.91 1439.26 L 349.48 1440.62 L 349.17 1440.79 L 346.73 1442.11 L 346.41 1442.28 L 343.94 1443.57 L 343.63 1443.73 L 341.15 1444.98 L 340.81 1445.15 L 338.32 1446.37 L 338.01 1446.52 L 335.50 1447.70 L 335.16 1447.85 L 332.63 1449.00 L 332.32 1449.14 L 329.77 1450.25 L 329.43 1450.40 L 326.88 1451.47 L 326.56 1451.61 L 323.98 1452.65 L 323.65 1452.78 L 321.07 1453.79 L 320.75 1453.91 L 318.15 1454.88 L 317.81 1455.00 L 315.19 1455.94 L 314.85 1456.06 L 312.22 1456.96 L 311.90 1457.07 L 309.24 1457.94 L 308.91 1458.05 L 306.25 1458.88 L 305.92 1458.98 L 303.24 1459.79 L 302.92 1459.88 L 300.23 1460.65 L 299.89 1460.74 L 297.17 1461.47 L 296.87 1461.55 L 294.14 1462.26 L 293.81 1462.34 L 291.07 1463.01 L 290.75 1463.08 L 287.99 1463.72 L 287.67 1463.79 L 284.90 1464.39 L 284.60 1464.45 L 281.81 1465.02 L 281.48 1465.09 L 278.67 1465.62 L 278.37 1465.67 L 275.56 1466.18 L 275.24 1466.23 L 272.41 1466.70 L 272.11 1466.75 L 269.27 1467.19 L 268.96 1467.23 L 266.09 1467.64 L 265.80 1467.68 L 262.92 1468.05 L 262.62 1468.09 L 259.73 1468.43 L 259.42 1468.46 L 256.51 1468.77 L 256.24 1468.80 L 253.32 1469.07 L 253.02 1469.10 L 250.09 1469.34 L 249.80 1469.37 L 246.85 1469.58 L 246.57 1469.60 L 243.60 1469.78 L 243.33 1469.79 L 240.35 1469.94 L 239.15 1469.98 L 232.91 1470.00 L 232.15 1469.99 L 225.97 1469.83 L 225.22 1469.80 L 219.10 1469.47 L 218.34 1469.42 L 212.28 1468.91 L 211.53 1468.84 L 205.53 1468.16 L 204.77 1468.06 L 198.82 1467.21 L 198.09 1467.10 L 192.21 1466.08 L 191.46 1465.94 L 185.65 1464.77 L 184.92 1464.60 L 179.18 1463.27 L 178.44 1463.08 L 172.77 1461.59 L 172.05 1461.38 L 166.45 1459.73 L 165.73 1459.50 L 160.20 1457.69 L 159.51 1457.46 L 154.05 1455.50 L 153.35 1455.23 L 147.98 1453.13 L 147.30 1452.85 L 142.00 1450.59 L 141.33 1450.30 L 136.11 1447.90 L 135.44 1447.58 L 130.31 1445.04 L 129.67 1444.71 L 124.63 1442.04 L 123.98 1441.68 L 119.02 1438.87 L 118.41 1438.51 L 113.54 1435.57 L 112.91 1435.18 L 108.13 1432.11 L 107.55 1431.72 L 102.86 1428.52 L 102.27 1428.11 L 97.68 1424.78 L 97.10 1424.35 L 92.61 1420.90 L 92.06 1420.47 L 87.66 1416.90 L 87.12 1416.45 L 82.82 1412.77 L 82.29 1412.30 L 78.09 1408.50 L 77.59 1408.03 L 73.50 1404.12 L 73.00 1403.63 L 69.01 1399.61 L 68.54 1399.12 L 64.65 1394.99 L 64.19 1394.48 L 60.41 1390.24 L 59.96 1389.73 L 56.30 1385.39 L 55.87 1384.87 L 52.32 1380.44 L 51.90 1379.89 L 48.46 1375.36 L 48.06 1374.82 L 44.75 1370.19 L 44.36 1369.64 L 41.16 1364.93 L 40.79 1364.36 L 37.71 1359.56 L 37.35 1358.99 L 34.40 1354.10 L 34.05 1353.51 L 31.22 1348.54 L 30.89 1347.95 L 28.19 1342.90 L 27.88 1342.30 L 25.30 1337.17 L 25.00 1336.57 L 22.55 1331.36 L 22.27 1330.75 L 19.96 1325.47 L 19.69 1324.85 L 17.51 1319.50 L 17.26 1318.87 L 15.21 1313.46 L 14.98 1312.82 L 13.07 1307.34 L 12.85 1306.70 L 11.08 1301.16 L 10.88 1300.51 L 9.25 1294.91 L 9.07 1294.26 L 7.57 1288.59 L 7.41 1287.93 L 6.06 1282.21 L 5.92 1281.56 L 4.71 1275.79 L 4.58 1275.12 L 3.53 1269.30 L 3.41 1268.63 L 2.51 1262.76 L 2.42 1262.09 L 1.66 1256.18 L 1.59 1255.51 L 0.99 1249.55 L 0.93 1248.87 L 0.48 1242.87 L 0.44 1242.19 L 0.16 1236.16 L 0.13 1235.48 L 0.01 1229.41 L 0.00 1228.73 L 0.03 1222.64 L 0.05 1221.95 L 0.24 1215.82 L 2.38 1206.33 L 7.87 1198.30 L 15.95 1192.86 L 26.46 1190.79 L 28.57 1190.82 L 30.66 1190.84 L 32.78 1190.87 L 34.87 1190.90 L 36.96 1190.92 L 39.08 1190.95 L 43.28 1190.99 L 45.38 1191.01 L 47.49 1191.03 L 49.58 1191.05 L 51.65 1191.07 L 51.65 1191.07 L 53.77 1191.08 L 53.79 1191.08 L 55.90 1191.10 L 58.00 1191.11 L 60.09 1191.12 L 62.20 1191.14 L 64.29 1191.15 L 66.39 1191.16 L 68.50 1191.17 L 70.59 1191.17 L 72.71 1191.18 L 74.80 1191.19 L 76.92 1191.19 L 79.01 1191.20 L 81.12 1191.20 L 83.21 1191.20 L 87.40 1191.20 L 89.51 1191.20 L 91.60 1191.20 L 93.70 1191.20 L 95.81 1191.19 L 97.93 1191.18 L 100.02 1191.18 L 102.11 1191.17 L 104.22 1191.16 L 106.32 1191.15 L 108.41 1191.14 L 110.52 1191.13 L 112.64 1191.12 L 114.73 1191.10 L 116.82 1191.09 L 118.94 1191.07 L 121.05 1191.05 L 121.05 1191.06 L 123.12 1191.04 L 125.24 1191.02 L 127.35 1191.00 L 129.44 1190.98 L 131.53 1190.95 L 133.65 1190.93 L 135.74 1190.91 L 137.83 1190.88 L 139.95 1190.85 L 142.06 1190.83 L 144.15 1190.80 L 146.27 1190.77 L 146.27 1190.77 L 148.36 1190.74 L 150.45 1190.71 L 152.57 1190.67 L 162.15 1192.35 L 170.44 1197.46 L 176.25 1205.27 L 178.84 1216.80 L 178.82 1218.28 L 178.81 1219.62 L 178.81 1219.62 L 178.80 1221.07 L 178.80 1222.45 L 178.80 1223.69 L 178.81 1225.11 L 178.82 1226.28 L 178.82 1226.28 L 178.84 1227.57 L 178.87 1228.96 L 178.89 1230.06 L 178.93 1231.21 L 178.97 1232.43 L 179.02 1233.63 L 179.08 1234.73 L 179.15 1235.97 L 179.22 1236.91 L 179.30 1238.00 L 179.39 1239.04 L 179.50 1240.22 L 179.61 1241.24 L 179.72 1242.19 L 179.86 1243.23 L 180.00 1244.22 L 180.11 1244.94 L 180.30 1246.07 L 180.45 1246.91 L 180.64 1247.90 L 180.80 1248.67 L 180.98 1249.47 L 181.21 1250.41 L 181.42 1251.24 L 181.62 1251.96 L 181.87 1252.84 L 182.11 1253.61 L 182.37 1254.41 L 182.62 1255.13 L 182.92 1255.94 L 183.18 1256.61 L 183.52 1257.47 L 183.80 1258.12 L 184.17 1258.94 L 184.49 1259.62 L 184.87 1260.40 L 185.28 1261.19 L 185.66 1261.89 L 186.05 1262.59 L 186.51 1263.37 L 186.93 1264.06 L 187.44 1264.86 L 187.97 1265.67 L 188.44 1266.35 L 189.05 1267.20 L 189.63 1267.98 L 190.21 1268.74 L 190.85 1269.54 L 191.54 1270.38 L 192.24 1271.20 L 192.95 1272.01 L 193.70 1272.83 L 194.42 1273.60 L 196.46 1275.67 L 198.41 1277.49 L 200.37 1279.20 L 202.35 1280.78 L 204.30 1282.22 L 206.25 1283.54 L 208.26 1284.79 L 210.18 1285.87 L 212.18 1286.89 L 214.14 1287.79 L 216.12 1288.60 L 218.08 1289.31 L 220.09 1289.95 L 222.04 1290.47 L 224.02 1290.92 L 226.01 1291.29 L 227.97 1291.56 L 229.99 1291.76 L 231.99 1291.88 L 233.94 1291.92 L 235.99 1291.88 L 237.95 1291.76 L 239.99 1291.55 L 241.96 1291.28 L 243.98 1290.92 L 245.95 1290.49 L 247.96 1289.97 L 249.93 1289.39 L 251.94 1288.71 L 253.84 1287.99 L 255.81 1287.16 L 257.75 1286.26 L 259.63 1285.30 L 261.54 1284.25 L 263.41 1283.13 L 265.21 1281.96 L 267.05 1280.68 L 268.78 1279.39 L 270.52 1277.98 L 272.23 1276.51 L 273.83 1275.02 L 275.49 1273.38 L 277.01 1271.77 L 278.51 1270.06 L 279.98 1268.28 L 281.38 1266.45 L 282.75 1264.53 L 284.02 1262.60 L 285.25 1260.60 L 286.41 1258.55 L 287.51 1256.44 L 288.55 1254.26 L 289.50 1252.09 L 290.40 1249.81 L 291.23 1247.48 L 291.98 1245.10 L 292.63 1242.72 L 293.22 1240.27 L 293.73 1237.73 L 294.19 1234.98 L 294.29 1234.30 L 294.40 1233.46 L 294.50 1232.74 L 294.59 1231.98 L 294.71 1230.99 L 294.78 1230.30 L 294.89 1229.31 L 294.96 1228.61 L 295.05 1227.62 L 295.13 1226.76 L 295.13 1226.76 L 295.19 1226.06 L 295.26 1225.11 L 295.33 1224.16 L 295.40 1223.26 L 295.45 1222.40 L 295.50 1221.64 L 295.55 1220.64 L 295.55 1220.64 L 295.59 1219.83 L 295.64 1218.82 L 295.68 1218.01 L 295.68 1218.01 L 295.72 1217.01 L 295.75 1216.10 L 295.75 1216.10 L 295.78 1215.28 L 295.81 1214.27 L 295.84 1213.31 L 295.88 1211.43 L 295.89 1210.52 L 295.91 1209.61 L 295.92 1208.64 L 295.93 1207.68 L 295.94 1206.81 L 295.94 1206.81 L 295.95 1204.79 L 295.95 1202.86 L 295.95 1201.90 L 295.95 1199.93 L 295.94 1199.01 L 295.94 1198.96 L 295.94 1197.95 L 295.93 1196.99 L 295.93 1196.03 L 295.93 1195.98 L 295.92 1194.98 L 295.91 1194.02 L 295.91 1193.01 L 295.91 1193.01 L 295.90 1192.05 L 295.90 1192.00 L 295.87 1188.99 L 295.87 1188.94 L 295.87 1187.93 L 295.86 1186.98 L 295.86 1186.93 L 295.86 1185.93 L 295.86 1185.88 L 295.85 1184.88 L 295.85 1183.88 L 295.85 1183.83 L 295.85 1182.83 L 295.84 1181.83 L 295.84 1180.74 L 295.85 1179.75 L 295.85 1179.70 L 295.85 1178.70 L 295.85 1178.64 L 295.86 1176.89 L 295.86 1176.87 L 295.87 1175.13 L 295.90 1171.67 L 295.91 1169.96 L 295.91 1169.93 L 295.92 1168.19 L 295.93 1166.47 L 295.93 1164.73 L 295.94 1163.02 L 295.94 1162.99 L 295.95 1161.25 L 295.97 1157.79 L 295.97 1156.05 L 295.98 1152.59 L 295.98 1152.57 L 295.99 1150.82 L 296.00 1149.14 L 296.00 1149.11 L 296.00 1147.37 L 296.01 1145.65 L 296.01 1145.63 L 296.01 1143.88 L 296.01 1142.17 L 296.02 1140.46 L 296.02 1140.43 L 296.02 1138.69 L 296.02 1136.97 L 296.02 1135.23 L 296.03 1133.49 L 296.03 1131.75 L 296.03 1130.01 L 296.03 1126.55 L 296.03 1124.84 L 296.03 1123.07 L 296.02 1121.35 L 296.02 1117.87 L 296.02 1116.15 L 296.02 1116.13 L 296.01 1114.38 L 296.01 1112.67 L 296.01 1110.96 L 296.01 1110.93 L 296.00 1109.19 L 296.00 1107.47 L 296.00 1107.45 L 295.99 1105.70 L 295.99 1103.99 L 295.98 1102.28 L 295.98 1102.25 L 295.97 1100.51 L 295.97 1098.79 L 295.95 1095.31 L 295.94 1093.59 L 295.94 1093.57 L 295.93 1091.82 L 295.93 1090.11 L 295.91 1088.40 L 295.91 1088.37 L 295.91 1086.63 L 295.89 1084.91 L 295.89 1084.89 L 295.89 1083.14 L 295.87 1081.43 L 295.86 1079.72 L 295.86 1079.69 L 295.85 1077.95 L 295.84 1076.23 L 295.82 1074.49 L 295.82 1074.26 L 296.16 825.41 L 293.84 825.38 L 290.36 825.34 L 286.87 825.30 L 283.39 825.27 L 283.39 825.27 L 279.85 825.24 L 276.31 825.21 L 272.80 825.19 L 269.25 825.17 L 265.72 825.15 L 262.16 825.14 L 258.62 825.13 L 255.06 825.13 L 251.49 825.12 L 247.94 825.12 L 244.38 825.12 L 240.79 825.13 L 237.22 825.14 L 233.64 825.15 L 230.05 825.16 L 226.46 825.18 L 222.88 825.19 L 219.27 825.21 L 215.68 825.23 L 212.09 825.25 L 208.51 825.28 L 204.90 825.31 L 204.89 825.31 L 201.31 825.33 L 194.10 825.39 L 194.10 825.39 L 190.53 825.42 L 186.93 825.45 L 183.33 825.49 L 179.75 825.52 L 176.16 825.56 L 172.57 825.59 L 169.00 825.63 L 165.43 825.66 L 165.41 825.66 L 161.85 825.70 L 158.28 825.74 L 154.71 825.77 L 154.70 825.77 L 151.16 825.81 L 147.60 825.84 L 147.59 825.84 L 144.04 825.88 L 140.50 825.91 L 136.97 825.95 L 133.44 825.98 L 133.43 825.98 L 129.91 826.02 L 129.89 826.02 L 126.38 826.05 L 122.88 826.08 L 119.38 826.11 L 119.37 826.11 L 115.89 826.14 L 115.87 826.14 L 112.39 826.17 L 112.38 826.17 L 108.91 826.20 L 99.34 824.44 L 91.09 819.26 L 85.34 811.41 L 82.85 800.69 L 82.82 798.59 L 82.83 798.59 L 82.79 796.50 L 82.79 796.45 L 82.77 794.33 L 82.74 792.23 L 82.71 790.10 L 82.71 790.07 L 82.68 787.93 L 82.65 785.79 L 82.65 785.76 L 82.62 783.61 L 82.60 781.48 L 82.60 781.46 L 82.57 779.29 L 82.57 779.27 L 82.55 777.10 L 82.52 774.95 L 82.52 774.91 L 82.50 772.73 L 82.48 770.57 L 82.48 770.55 L 82.45 768.37 L 82.45 768.35 L 82.43 766.16 L 82.41 763.97 L 82.39 761.77 L 82.39 761.75 L 82.37 759.55 L 82.35 757.35 L 82.35 757.33 L 82.34 755.13 L 82.34 755.10 L 82.32 752.90 L 82.29 748.48 L 82.29 748.44 L 82.28 746.23 L 82.26 741.81 L 82.26 741.78 L 82.25 739.57 L 82.25 739.55 L 82.24 737.34 L 82.24 737.32 L 82.23 732.89 L 82.23 732.87 L 82.23 730.66 L 82.23 730.63 L 82.23 728.42 L 82.23 723.96 L 82.23 721.75 L 82.23 721.73 L 82.23 719.52 L 82.23 719.50 L 82.24 715.09 L 82.24 715.05 L 82.26 710.65 L 82.26 710.61 L 82.27 708.41 L 82.29 706.22 L 82.29 706.20 L 82.30 704.01 L 82.30 703.97 L 82.32 701.78 L 82.34 699.60 L 82.34 699.58 L 82.36 697.40 L 82.36 697.38 L 82.38 695.21 L 82.38 695.19 L 82.41 693.02 L 82.41 692.98 L 82.43 690.81 L 82.46 688.66 L 82.46 688.61 L 82.49 686.46 L 82.53 684.32 L 82.53 684.27 L 82.56 682.13 L 82.56 682.11 L 82.60 679.97 L 82.60 679.95 L 82.64 677.82 L 82.64 677.80 L 82.68 675.68 L 82.68 675.66 L 82.72 673.54 L 82.72 673.50 L 82.77 671.39 L 82.77 671.37 L 82.82 669.27 L 84.87 659.76 L 90.29 651.67 L 98.31 646.16 L 108.66 643.99 L 295.69 643.83 L 296.26 356.56 L 296.07 277.45 L 296.07 276.09 L 296.06 274.76 L 296.05 273.37 L 296.04 272.01 L 296.03 270.62 L 296.03 270.62 L 296.02 269.27 L 296.00 267.89 L 295.99 266.55 L 295.99 266.52 L 295.98 265.15 L 295.96 263.77 L 295.95 262.41 L 295.94 261.04 L 295.93 261.01 L 295.92 259.65 L 295.91 258.29 L 295.91 258.25 L 295.90 256.89 L 295.90 256.86 L 295.90 255.50 L 295.90 255.47 L 295.89 254.11 L 295.89 254.08 L 295.89 252.73 L 295.89 252.69 L 295.89 251.34 L 295.89 249.89 L 295.89 248.55 L 295.89 248.51 L 295.89 247.16 L 295.89 247.09 L 295.90 245.75 L 295.91 245.68 L 295.92 244.34 L 295.92 244.26 L 295.93 242.92 L 295.94 242.85 L 295.96 241.51 L 295.96 241.40 L 295.98 240.06 L 295.98 240.03 L 296.01 238.69 L 296.01 238.58 L 296.05 237.24 L 296.05 237.17 L 296.09 235.83 L 296.09 235.69 L 296.14 234.35 L 296.14 234.28 L 296.19 232.95 L 296.19 232.84 L 296.24 231.50 L 296.25 231.39 L 296.31 230.06 L 296.31 229.95 L 296.38 228.61 L 296.38 228.47 L 296.46 227.13 L 296.46 227.02 L 296.54 225.68 L 296.55 225.58 L 296.63 224.24 L 296.64 224.10 L 296.73 222.76 L 296.74 222.58 L 296.84 221.24 L 296.85 221.14 L 296.95 219.80 L 296.97 219.66 L 297.08 218.31 L 297.09 218.17 L 297.21 216.83 L 297.23 216.65 L 297.36 215.31 L 297.37 215.17 L 297.51 213.82 L 297.52 213.68 L 297.66 212.33 L 297.69 212.13 L 297.84 210.78 L 297.86 210.65 L 298.02 209.29 L 298.04 209.12 L 298.21 207.77 L 298.23 207.60 L 298.41 206.24 L 298.44 206.08 L 298.63 204.72 L 298.66 204.52 L 298.86 203.15 L 298.88 202.99 L 299.09 201.63 L 299.12 201.44 L 299.35 200.07 L 299.37 199.90 L 299.60 198.53 L 299.64 198.35 L 299.88 196.97 L 299.91 196.78 L 300.16 195.40 L 300.20 195.21 L 300.46 193.83 L 300.50 193.65 L 300.77 192.26 L 300.82 192.05 L 301.11 190.66 L 301.17 190.34 L 301.59 188.45 L 301.64 188.22 L 302.08 186.33 L 302.12 186.13 L 302.57 184.25 L 302.64 184.00 L 303.10 182.12 L 303.16 181.90 L 303.64 180.03 L 303.70 179.82 L 304.20 177.96 L 304.26 177.71 L 304.78 175.85 L 304.84 175.65 L 305.37 173.79 L 305.44 173.57 L 305.98 171.72 L 306.05 171.49 L 306.62 169.65 L 306.69 169.42 L 307.27 167.59 L 307.34 167.35 L 307.94 165.52 L 308.01 165.33 L 308.62 163.50 L 308.70 163.27 L 309.33 161.45 L 309.40 161.24 L 310.05 159.43 L 310.13 159.21 L 310.79 157.40 L 310.87 157.18 L 311.55 155.38 L 311.63 155.17 L 312.32 153.38 L 312.41 153.15 L 313.12 151.36 L 313.20 151.17 L 313.92 149.39 L 314.02 149.16 L 314.76 147.39 L 314.84 147.19 L 315.59 145.42 L 315.70 145.19 L 316.47 143.43 L 316.56 143.24 L 317.34 141.48 L 317.45 141.25 L 318.25 139.51 L 318.33 139.33 L 319.15 137.60 L 319.26 137.35 L 320.10 135.62 L 320.19 135.43 L 321.04 133.71 L 321.14 133.50 L 322.01 131.78 L 322.10 131.60 L 322.98 129.89 L 323.09 129.67 L 323.99 127.97 L 324.11 127.75 L 325.02 126.05 L 325.11 125.89 L 326.03 124.21 L 326.15 123.99 L 327.09 122.32 L 327.21 122.11 L 328.16 120.45 L 328.27 120.26 L 329.24 118.60 L 329.37 118.38 L 330.35 116.73 L 330.47 116.53 L 331.47 114.89 L 331.58 114.72 L 332.59 113.09 L 332.72 112.87 L 333.75 111.24 L 333.87 111.06 L 334.91 109.45 L 335.03 109.26 L 336.09 107.66 L 336.23 107.45 L 337.30 105.85 L 337.42 105.67 L 338.51 104.08 L 338.65 103.88 L 339.75 102.30 L 339.87 102.13 L 340.99 100.56 L 341.13 100.36 L 342.26 98.80 L 342.39 98.62 L 343.54 97.07 L 343.67 96.88 L 344.83 95.34 L 344.96 95.17 L 346.13 93.64 L 346.28 93.44 L 347.47 91.92 L 347.61 91.74 L 348.81 90.23 L 348.96 90.05 L 350.17 88.55 L 350.32 88.37 L 351.54 86.88 L 351.69 86.71 L 352.93 85.23 L 353.08 85.05 L 354.34 83.58 L 354.49 83.41 L 355.76 81.95 L 355.91 81.78 L 357.19 80.33 L 357.35 80.14 L 358.65 78.71 L 358.80 78.54 L 360.11 77.11 L 360.32 76.88 L 362.41 74.67 L 362.64 74.43 L 364.74 72.25 L 364.96 72.03 L 367.07 69.89 L 367.29 69.67 L 369.42 67.57 L 369.66 67.33 L 371.81 65.27 L 372.04 65.05 L 374.20 63.02 L 374.44 62.80 L 376.61 60.81 L 376.86 60.58 L 379.05 58.63 L 379.30 58.41 L 381.50 56.50 L 381.75 56.29 L 383.96 54.42 L 384.24 54.18 L 386.47 52.35 L 386.73 52.14 L 388.97 50.34 L 389.25 50.12 L 391.52 48.36 L 391.78 48.15 L 394.06 46.43 L 394.34 46.21 L 396.63 44.52 L 396.92 44.31 L 399.22 42.66 L 399.52 42.45 L 401.84 40.84 L 402.12 40.65 L 404.45 39.07 L 404.76 38.86 L 407.11 37.32 L 407.41 37.13 L 409.78 35.63 L 410.09 35.43 L 412.47 33.96 L 412.76 33.78 L 415.16 32.35 L 415.48 32.16 L 417.90 30.76 L 418.20 30.59 L 420.63 29.23 L 420.95 29.05 L 423.39 27.72 L 423.71 27.55 L 426.17 26.26 L 426.50 26.10 L 428.97 24.84 L 429.30 24.68 L 431.79 23.47 L 432.11 23.31 L 434.61 22.13 L 434.94 21.98 L 437.46 20.83 L 437.79 20.68 L 440.32 19.57 L 440.66 19.43 L 443.21 18.35 L 443.54 18.21 L 446.11 17.17 L 446.44 17.04 L 449.03 16.03 L 449.36 15.90 L 451.96 14.93 L 452.30 14.81 L 454.92 13.87 L 455.24 13.76 L 457.87 12.86 L 458.21 12.74 L 460.86 11.87 L 461.20 11.77 L 463.86 10.93 L 464.19 10.83 L 466.87 10.03 L 467.21 9.94 L 469.90 9.17 L 470.23 9.08 L 472.94 8.35 L 473.28 8.26 L 476.01 7.56 L 476.32 7.49 L 479.06 6.82 L 479.42 6.74 L 482.18 6.11 L 482.48 6.04 L 485.26 5.45 L 485.59 5.38 L 488.38 4.82 L 488.72 4.75 L 491.53 4.22 L 491.84 4.17 L 494.67 3.67 L 494.97 3.62 L 497.82 3.16 L 498.15 3.10 L 501.01 2.68 L 501.31 2.63 L 504.19 2.24 L 504.50 2.20 L 507.40 1.83 L 507.70 1.79 L 510.62 1.46 L 510.90 1.43 L 513.83 1.13 L 514.14 1.10 L 517.08 0.84 L 517.39 0.81 L 520.35 0.58 L 520.63 0.56 L 523.62 0.36 L 523.91 0.34 L 526.91 0.17 L 527.19 0.16 L 530.20 0.02 L 531.94 0.00 L 534.83 0.06 L 535.15 0.07 L 538.03 0.17 L 538.35 0.18 L 541.22 0.32 L 541.55 0.33 L 544.40 0.50 L 544.73 0.52 L 547.57 0.73 L 547.90 0.75 L 550.73 0.99 L 551.06 1.02 L 553.88 1.29 L 554.21 1.33 L 557.01 1.64 L 557.33 1.67 L 560.12 2.01 L 560.47 2.06 L 563.25 2.44 L 563.57 2.48 L 566.33 2.90 L 566.67 2.95 L 569.42 3.39 L 569.75 3.45 L 572.48 3.93 L 572.84 3.99 L 575.56 4.51 L 575.89 4.57 L 578.60 5.13 L 578.92 5.19 L 581.62 5.78 L 581.98 5.86 L 584.66 6.48 L 584.99 6.56 L 587.66 7.21 L 587.98 7.29 L 590.64 7.98 L 590.98 8.07 L 593.63 8.79 L 593.95 8.88 L 596.58 9.64 L 596.92 9.74 L 599.54 10.53 L 599.88 10.64 L 602.48 11.46 L 602.80 11.57 L 605.39 12.43 L 605.72 12.54 L 608.29 13.43 L 608.61 13.54 L 611.17 14.47 L 611.51 14.59 L 614.06 15.55 L 614.38 15.68 L 616.91 16.67 L 617.24 16.80 L 619.76 17.83 L 620.08 17.97 L 622.58 19.03 L 622.90 19.17 L 625.39 20.26 L 625.70 20.40 L 628.18 21.53 L 628.50 21.68 L 630.96 22.84 L 631.26 22.99 L 633.71 24.18 L 634.03 24.34 L 636.46 25.57 L 636.75 25.72 L 639.17 26.98 L 639.49 27.15 L 641.89 28.45 L 642.19 28.61 L 644.58 29.94 L 644.87 30.11 L 647.24 31.47 L 647.54 31.65 L 649.90 33.04 L 650.19 33.21 L 652.53 34.64 L 652.82 34.82 L 655.15 36.29 L 655.43 36.47 L 657.75 37.96 L 658.02 38.14 L 660.32 39.67 L 660.61 39.86 L 662.89 41.42 L 663.15 41.60 L 665.42 43.19 L 665.71 43.40 L 667.96 45.03 L 668.22 45.21 L 670.46 46.87 L 670.72 47.07 L 672.94 48.76 L 673.20 48.96 L 675.41 50.68 L 675.67 50.89 L 677.86 52.65 L 678.10 52.84 L 680.28 54.63 L 680.53 54.84 L 682.70 56.66 L 682.94 56.87 L 685.09 58.73 L 685.31 58.93 L 687.45 60.81 L 687.68 61.02 L 689.80 62.94 L 690.03 63.15 L 692.13 65.10 L 692.35 65.32 L 694.44 67.30 L 694.65 67.50 L 696.72 69.52 L 696.95 69.74 L 699.00 71.79 L 699.03 71.82 L 700.66 73.45 L 700.86 73.65 L 702.47 75.30 L 702.66 75.49 L 704.25 77.15 L 704.46 77.38 L 706.03 79.06 L 706.21 79.25 L 707.76 80.94 L 707.96 81.17 L 709.49 82.87 L 709.68 83.08 L 711.19 84.81 L 711.39 85.03 L 712.87 86.77 L 713.05 86.98 L 714.52 88.74 L 714.71 88.96 L 716.16 90.73 L 716.34 90.96 L 717.77 92.74 L 717.94 92.96 L 719.35 94.76 L 719.53 94.99 L 720.91 96.81 L 721.09 97.03 L 722.45 98.86 L 722.61 99.08 L 723.96 100.92 L 724.14 101.17 L 725.46 103.03 L 725.63 103.26 L 726.93 105.13 L 727.08 105.35 L 728.36 107.23 L 728.53 107.48 L 729.79 109.38 L 729.95 109.60 L 731.19 111.52 L 731.34 111.76 L 732.56 113.68 L 732.72 113.93 L 733.92 115.87 L 734.06 116.10 L 735.24 118.05 L 735.38 118.29 L 736.53 120.25 L 736.68 120.50 L 737.81 122.48 L 737.95 122.72 L 739.06 124.70 L 739.20 124.95 L 740.29 126.95 L 740.43 127.21 L 741.50 129.22 L 741.62 129.45 L 742.66 131.47 L 742.80 131.73 L 743.82 133.76 L 743.95 134.02 L 744.95 136.07 L 745.07 136.31 L 746.05 138.37 L 746.17 138.63 L 747.13 140.69 L 747.24 140.95 L 748.17 143.02 L 748.29 143.27 L 749.20 145.36 L 749.32 145.63 L 750.20 147.73 L 750.30 147.97 L 751.17 150.08 L 751.28 150.36 L 752.13 152.47 L 752.22 152.72 L 753.04 154.84 L 753.15 155.13 L 753.95 157.27 L 754.04 157.52 L 754.81 159.67 L 754.90 159.92 L 755.65 162.08 L 755.74 162.35 L 756.47 164.51 L 756.57 164.79 L 757.27 166.96 L 757.35 167.23 L 758.03 169.41 L 758.11 169.66 L 758.76 171.85 L 758.85 172.15 L 759.48 174.34 L 759.55 174.60 L 760.16 176.80 L 760.24 177.07 L 760.82 179.28 L 760.89 179.56 L 761.45 181.78 L 761.52 182.07 L 762.06 184.30 L 762.12 184.55 L 762.63 186.78 L 762.70 187.08 L 763.18 189.32 L 763.23 189.57 L 763.70 191.82 L 763.76 192.14 L 764.20 194.39 L 764.25 194.64 L 764.66 196.90 L 764.71 197.19 L 765.10 199.46 L 765.15 199.74 L 765.51 202.01 L 765.55 202.30 L 765.89 204.58 L 765.93 204.85 L 766.25 207.14 L 766.30 207.54 L 766.39 208.30 L 766.40 208.42 L 766.49 209.18 L 766.50 209.24 L 766.59 210.00 L 766.60 210.12 L 766.69 210.88 L 766.70 211.01 L 766.78 211.77 L 766.79 211.88 L 766.87 212.64 L 766.87 212.71 L 766.95 213.47 L 766.96 213.59 L 767.03 214.35 L 767.03 214.41 L 767.10 215.17 L 767.11 215.29 L 767.18 216.05 L 767.18 216.12 L 767.24 216.88 L 767.26 217.00 L 767.32 217.76 L 767.32 217.82 L 767.38 218.58 L 767.39 218.71 L 767.44 219.47 L 767.44 219.52 L 767.49 220.28 L 767.50 220.41 L 767.55 221.17 L 767.60 221.92 L 767.61 222.05 L 767.65 222.81 L 767.66 222.93 L 767.70 223.69 L 767.70 223.70 L 767.74 224.46 L 767.75 224.58 L 767.78 225.34 L 767.79 225.40 L 767.82 226.16 L 767.83 226.22 L 767.86 226.98 L 767.86 227.04 L 767.89 227.80 L 767.89 227.86 L 767.92 228.62 L 767.93 228.68 L 767.95 229.44 L 767.96 229.51 L 767.98 230.27 L 767.98 230.33 L 768.01 231.09 L 768.01 231.15 L 768.03 231.91 L 768.03 231.97 L 768.05 232.73 L 768.06 232.79 L 768.07 233.55 L 768.08 233.62 L 768.11 235.14 L 768.11 235.20 L 768.12 235.96 L 768.13 236.02 L 768.14 236.78 L 768.14 236.84 L 768.16 238.36 L 768.16 238.42 L 768.17 239.18 L 768.17 239.25 L 768.18 240.01 L 768.19 240.77 L 768.19 240.83 L 768.20 242.35 L 768.20 242.41 L 768.20 243.17 L 768.21 243.93 L 768.21 243.99 L 768.21 244.76 L 768.21 245.52 L 768.21 246.28 L 768.21 249.45 L 768.21 250.97 L 768.21 251.73 L 768.21 252.49 L 768.20 253.26 L 768.20 254.02 L 768.20 254.08 L 768.20 254.84 L 768.19 256.31 L 766.34 265.86 L 761.09 274.06 L 753.18 279.73 L 741.88 282.11 L 739.86 282.07 L 737.84 282.04 L 735.84 282.01 L 733.86 281.97 L 733.86 281.98 L 731.82 281.95 L 729.77 281.92 L 727.72 281.89 L 725.70 281.86 L 723.63 281.84 L 721.56 281.81 L 719.53 281.79 L 719.51 281.79 L 717.43 281.76 L 715.38 281.74 L 713.29 281.72 L 711.22 281.70 L 709.14 281.69 L 709.14 281.69 L 707.03 281.67 L 702.84 281.64 L 700.72 281.63 L 698.65 281.62 L 696.53 281.60 L 694.41 281.59 L 692.31 281.58 L 690.21 281.58 L 688.10 281.57 L 688.08 281.57 L 685.95 281.56 L 681.74 281.56 L 679.63 281.55 L 677.50 281.55 L 673.29 281.55 Z" fill="#D4A574"/>
  </g>
</svg>