<svg xmlns="http://www.w3.org/2000/svg" viewBox="0 0 58 58">
  <g transform="translate(5.0,0)">
    <path d="M 12,4 L 44,4 L 44,36 A 8,8 0 0,1 36,44 L 4,44 L 4,12 A 8,8 0 0,1 12,4 Z" fill="#0D0D0D"/>
    <g transform="matrix(0.021769,0,0,0.021769,15.6385,8.0000)">
      <path d="M 671.18 281.55 L 669.06 281.56 L 666.93 281.56 L 664.86 281.57 L 662.73 281.57 L 662.71 281.57 L 660.64 281.58 L 658.52 281.59 L 658.50 281.59 L 656.43 281.59 L 654.32 281.61 L 652.21 281.62 L 650.13 281.63 L 648.05 281.64 L 645.95 281.66 L 643.86 281.67 L 641.77 281.69 L 641.77 281.68 L 639.74 281.70 L 639.72 281.70 L 637.64 281.72 L 637.64 281.72 L 635.61 281.74 L 633.55 281.76 L 631.51 281.78 L 629.46 281.80 L 627.43 281.82 L 625.39 281.85 L 623.39 281.87 L 621.36 281.90 L 619.37 281.92 L 617.35 281.95 L 607.77 280.25 L 599.49 275.13 L 593.70 267.31 L 591.13 256.55 L 591.11 255.01 L 591.08 253.57 L 591.08 253.57 L 591.04 252.14 L 591.00 250.76 L 590.95 249.32 L 590.90 247.98 L 590.84 246.59 L 590.77 245.24 L 590.70 243.94 L 590.63 242.78 L 590.62 242.78 L 590.53 241.32 L 590.43 240.07 L 590.35 239.01 L 590.22 237.57 L 590.09 236.32 L 589.99 235.35 L 589.83 233.94 L 589.72 233.03 L 589.56 231.85 L 589.36 230.45 L 589.20 229.44 L 589.05 228.52 L 588.82 227.24 L 588.67 226.40 L 588.41 225.15 L 588.17 224.02 L 587.95 223.01 L 587.77 222.27 L 587.43 220.94 L 587.22 220.17 L 586.94 219.19 L 586.63 218.13 L 586.34 217.22 L 586.07 216.40 L 585.74 215.47 L 585.37 214.44 L 585.06 213.65 L 584.66 212.64 L 584.32 211.83 L 583.94 210.97 L 583.55 210.12 L 583.12 209.24 L 582.70 208.40 L 582.25 207.54 L 581.76 206.63 L 581.35 205.92 L 580.82 205.02 L 580.32 204.20 L 579.80 203.39 L 579.22 202.51 L 578.70 201.75 L 578.06 200.86 L 577.46 200.05 L 576.83 199.23 L 576.16 198.38 L 575.44 197.51 L 574.76 196.72 L 574.03 195.89 L 573.30 195.09 L 572.51 194.25 L 571.04 192.77 L 569.58 191.38 L 568.08 190.04 L 566.63 188.82 L 565.10 187.62 L 563.58 186.50 L 562.04 185.44 L 560.53 184.46 L 558.95 183.52 L 557.40 182.65 L 555.79 181.82 L 554.26 181.08 L 552.60 180.36 L 551.02 179.72 L 549.40 179.13 L 547.78 178.59 L 546.12 178.10 L 544.52 177.68 L 542.89 177.31 L 541.20 176.98 L 539.55 176.71 L 537.90 176.49 L 536.25 176.33 L 534.58 176.22 L 532.90 176.15 L 531.25 176.14 L 529.58 176.19 L 527.93 176.28 L 526.25 176.42 L 524.59 176.62 L 522.94 176.87 L 521.35 177.15 L 519.66 177.51 L 518.00 177.92 L 516.47 178.34 L 514.76 178.87 L 513.22 179.40 L 511.60 180.02 L 510.02 180.67 L 508.50 181.36 L 506.89 182.14 L 505.41 182.92 L 503.90 183.77 L 502.39 184.68 L 500.89 185.66 L 499.49 186.62 L 498.01 187.71 L 496.61 188.81 L 495.22 189.98 L 493.87 191.17 L 492.52 192.45 L 491.18 193.79 L 489.94 195.11 L 488.68 196.54 L 487.46 198.02 L 486.24 199.58 L 485.08 201.15 L 483.97 202.77 L 482.88 204.45 L 481.77 206.30 L 481.18 207.33 L 480.65 208.29 L 480.11 209.31 L 479.62 210.28 L 479.08 211.40 L 478.64 212.33 L 478.16 213.41 L 477.79 214.30 L 477.32 215.46 L 476.96 216.39 L 476.58 217.44 L 476.20 218.52 L 475.90 219.45 L 475.60 220.41 L 475.30 221.41 L 474.98 222.57 L 474.70 223.65 L 474.47 224.58 L 474.24 225.58 L 474.00 226.71 L 473.78 227.80 L 473.58 228.89 L 473.39 229.94 L 473.21 231.08 L 473.05 232.17 L 472.88 233.45 L 472.75 234.48 L 472.62 235.58 L 472.51 236.69 L 472.39 237.95 L 472.28 239.29 L 472.20 240.40 L 472.13 241.50 L 472.06 242.75 L 471.99 244.20 L 471.95 245.29 L 471.90 246.58 L 471.90 246.73 L 471.90 246.74 L 471.86 248.04 L 471.86 248.04 L 471.83 249.21 L 471.81 250.67 L 471.80 251.92 L 471.78 253.39 L 471.78 254.74 L 471.78 256.16 L 471.79 257.49 L 471.80 258.98 L 471.79 258.98 L 471.81 260.39 L 471.82 261.86 L 471.84 263.33 L 471.86 264.82 L 471.88 266.33 L 471.88 266.37 L 471.90 267.89 L 471.91 269.42 L 471.91 269.42 L 471.93 270.96 L 471.93 271.02 L 471.95 272.56 L 471.95 272.59 L 471.96 274.14 L 471.96 274.17 L 471.97 275.72 L 471.97 275.81 L 471.98 277.37 L 471.98 277.43 L 471.98 279.00 L 471.98 279.09 L 471.98 280.66 L 471.87 366.16 L 471.83 643.69 L 658.31 644.12 L 667.86 645.97 L 676.06 651.22 L 681.73 659.13 L 684.12 670.01 L 683.97 799.86 L 682.13 809.41 L 676.89 817.61 L 668.98 823.30 L 658.11 825.70 L 471.86 825.72 L 471.83 1108.25 L 471.83 1191.77 L 471.83 1193.16 L 471.83 1195.83 L 471.84 1198.56 L 471.86 1201.29 L 471.87 1202.66 L 471.87 1202.70 L 471.88 1204.04 L 471.88 1205.41 L 471.88 1205.45 L 471.89 1206.82 L 471.90 1208.19 L 471.91 1209.56 L 471.91 1209.59 L 471.92 1212.33 L 471.92 1212.36 L 471.92 1213.73 L 471.92 1213.76 L 471.92 1215.13 L 471.92 1216.56 L 471.92 1217.92 L 471.92 1217.96 L 471.92 1219.32 L 471.92 1219.39 L 471.91 1220.75 L 471.91 1220.79 L 471.90 1222.15 L 471.90 1222.18 L 471.89 1223.54 L 471.89 1223.61 L 471.87 1224.97 L 471.87 1225.04 L 471.86 1226.39 L 471.85 1226.47 L 471.83 1227.82 L 471.83 1227.89 L 471.80 1229.25 L 471.80 1229.32 L 471.77 1230.67 L 471.77 1230.74 L 471.74 1232.10 L 471.74 1232.17 L 471.70 1233.52 L 471.70 1233.63 L 471.65 1234.98 L 471.65 1235.09 L 471.60 1236.44 L 471.60 1236.55 L 471.54 1237.90 L 471.54 1237.97 L 471.48 1239.33 L 471.48 1239.43 L 471.42 1240.79 L 471.41 1240.89 L 471.34 1242.24 L 471.34 1242.39 L 471.26 1243.74 L 471.25 1243.84 L 471.17 1245.20 L 471.17 1245.30 L 471.08 1246.66 L 471.07 1246.80 L 470.98 1248.15 L 470.97 1248.26 L 470.87 1249.61 L 470.86 1249.78 L 470.75 1251.14 L 470.74 1251.24 L 470.62 1252.60 L 470.61 1252.74 L 470.49 1254.09 L 470.48 1254.23 L 470.35 1255.59 L 470.33 1255.76 L 470.19 1257.11 L 470.18 1257.25 L 470.03 1258.61 L 470.02 1258.75 L 469.86 1260.10 L 469.84 1260.31 L 469.67 1261.67 L 469.66 1261.77 L 469.49 1263.13 L 469.47 1263.33 L 469.28 1264.69 L 469.26 1264.86 L 469.07 1266.22 L 469.05 1266.36 L 468.85 1267.72 L 468.82 1267.91 L 468.62 1269.28 L 468.58 1269.49 L 468.36 1270.85 L 468.34 1270.98 L 468.12 1272.34 L 468.08 1272.58 L 467.84 1273.94 L 467.81 1274.10 L 467.56 1275.47 L 467.53 1275.63 L 467.27 1277.01 L 467.22 1277.24 L 466.95 1278.61 L 466.92 1278.76 L 466.54 1280.65 L 466.49 1280.85 L 466.09 1282.74 L 466.04 1282.98 L 465.62 1284.87 L 465.57 1285.07 L 465.14 1286.95 L 465.08 1287.19 L 464.63 1289.06 L 464.58 1289.27 L 464.11 1291.14 L 464.05 1291.36 L 463.57 1293.22 L 463.51 1293.44 L 463.01 1295.30 L 462.94 1295.53 L 462.43 1297.38 L 462.36 1297.61 L 461.83 1299.45 L 461.77 1299.66 L 461.22 1301.49 L 461.15 1301.74 L 460.58 1303.57 L 460.52 1303.76 L 459.94 1305.59 L 459.86 1305.83 L 459.26 1307.65 L 459.19 1307.87 L 458.58 1309.68 L 458.50 1309.90 L 457.87 1311.71 L 457.79 1311.94 L 457.15 1313.74 L 457.07 1313.94 L 456.41 1315.74 L 456.33 1315.97 L 455.65 1317.76 L 455.57 1317.96 L 454.88 1319.74 L 454.79 1319.97 L 454.08 1321.75 L 454.00 1321.96 L 453.27 1323.73 L 453.19 1323.92 L 452.45 1325.69 L 452.35 1325.91 L 451.60 1327.67 L 451.50 1327.89 L 450.73 1329.64 L 450.65 1329.83 L 449.86 1331.57 L 449.75 1331.81 L 448.95 1333.55 L 448.86 1333.73 L 448.05 1335.46 L 447.94 1335.68 L 447.11 1337.40 L 447.01 1337.61 L 446.06 1339.51 L 445.20 1341.22 L 445.09 1341.43 L 444.22 1343.13 L 444.11 1343.33 L 443.22 1345.02 L 443.10 1345.23 L 442.19 1346.92 L 442.09 1347.11 L 441.16 1348.79 L 441.05 1348.99 L 440.11 1350.66 L 440.01 1350.84 L 439.06 1352.50 L 438.93 1352.72 L 437.96 1354.37 L 437.85 1354.56 L 436.87 1356.20 L 436.74 1356.40 L 435.75 1358.04 L 435.62 1358.24 L 434.61 1359.86 L 434.49 1360.05 L 433.46 1361.67 L 433.35 1361.85 L 432.31 1363.45 L 432.17 1363.67 L 431.11 1365.27 L 430.99 1365.45 L 429.92 1367.04 L 429.79 1367.23 L 428.71 1368.81 L 428.57 1369.00 L 427.47 1370.57 L 427.34 1370.75 L 426.23 1372.32 L 426.10 1372.50 L 424.97 1374.05 L 424.83 1374.24 L 423.69 1375.79 L 423.54 1375.99 L 422.38 1377.52 L 422.26 1377.67 L 421.09 1379.20 L 420.94 1379.40 L 419.76 1380.91 L 419.61 1381.09 L 418.41 1382.60 L 418.27 1382.77 L 417.06 1384.27 L 416.91 1384.45 L 415.68 1385.93 L 415.54 1386.11 L 414.30 1387.58 L 414.16 1387.74 L 412.91 1389.20 L 412.73 1389.41 L 411.46 1390.86 L 411.32 1391.02 L 410.04 1392.46 L 409.67 1392.87 L 407.62 1395.08 L 407.41 1395.31 L 405.34 1397.48 L 405.10 1397.73 L 403.01 1399.87 L 402.78 1400.11 L 400.67 1402.21 L 400.43 1402.45 L 398.31 1404.51 L 398.06 1404.75 L 395.92 1406.77 L 395.68 1407.00 L 393.53 1408.98 L 393.27 1409.22 L 391.10 1411.17 L 390.82 1411.41 L 388.64 1413.32 L 388.38 1413.54 L 386.18 1415.41 L 385.91 1415.64 L 383.69 1417.47 L 383.42 1417.69 L 381.18 1419.49 L 380.90 1419.72 L 378.64 1421.48 L 378.36 1421.70 L 376.09 1423.42 L 375.82 1423.62 L 373.54 1425.31 L 373.22 1425.54 L 370.92 1427.19 L 370.64 1427.39 L 368.32 1429.00 L 368.02 1429.20 L 365.69 1430.78 L 365.38 1430.98 L 363.03 1432.52 L 362.72 1432.72 L 360.36 1434.22 L 360.05 1434.41 L 357.67 1435.88 L 357.37 1436.06 L 354.97 1437.49 L 354.65 1437.68 L 352.24 1439.08 L 351.91 1439.26 L 349.48 1440.62 L 349.17 1440.79 L 346.73 1442.11 L 346.41 1442.28 L 343.94 1443.57 L 343.63 1443.73 L 341.15 1444.98 L 340.81 1445.15 L 338.32 1446.37 L 338.01 1446.52 L 335.50 1447.70 L 335.16 1447.85 L 332.63 1449.00 L 332.32 1449.14 L 329.77 1450.25 L 329.43 1450.40 L 326.88 1451.47 L 326.56 1451.61 L 323.98 1452.65 L 323.65 1452.78 L 321.07 1453.79 L 320.75 1453.91 L 318.15 1454.88 L 317.81 1455.00 L 315.19 1455.94 L 314.85 1456.06 L 312.22 1456.96 L 311.90 1457.07 L 309.24 1457.94 L 308.91 1458.05 L 306.25 1458.88 L 305.92 1458.98 L 303.24 1459.79 L 302.92 1459.88 L 300.23 1460.65 L 299.89 1460.74 L 297.17 1461.47 L 296.87 1461.55 L 294.14 1462.26 L 293.81 1462.34 L 291.07 1463.01 L 290.75 1463.08 L 287.99 1463.72 L 287.67 1463.79 L 284.90 1464.39 L 284.60 1464.45 L 281.81 1465.02 L 281.48 1465.09 L 278.67 1465.62 L 278.37 1465.67 L 275.56 1466.18 L 275.24 1466.23 L 272.41 1466.70 L 272.11 1466.75 L 269.27 1467.19 L 268.96 1467.23 L 266.09 1467.64 L 265.80 1467.68 L 262.92 1468.05 L 262.62 1468.09 L 259.73 1468.43 L 259.42 1468.46 L 256.51 1468.77 L 256.24 1468.80 L 253.32 1469.07 L 253.02 1469.10 L 250.09 1469.34 L 249.80 1469.37 L 246.85 1469.58 L 246.57 1469.60 L 243.60 1469.78 L 243.33 1469.79 L 240.35 1469.94 L 239.15 1469.98 L 232.91 1470.00 L 232.15 1469.99 L 225.97 1469.83 L 225.22 1469.80 L 219.10 1469.47 L 218.34 1469.42 L 212.28 1468.91 L 211.53 1468.84 L 205.53 1468.16 L 204.77 1468.06 L 198.82 1467.21 L 198.09 1467.10 L 192.21 1466.08 L 191.46 1465.94 L 185.65 1464.77 L 184.92 1464.60 L 179.18 1463.27 L 178.44 1463.08 L 172.77 1461.59 L 172.05 1461.38 L 166.45 1459.73 L 165.73 1459.50 L 160.20 1457.69 L 159.51 1457.46 L 154.05 1455.50 L 153.35 1455.23 L 147.98 1453.13 L 147.30 1452.85 L 142.00 1450.59 L 141.33 1450.30 L 136.11 1447.90 L 135.44 1447.58 L 130.31 1445.04 L 129.67 1444.71 L 124.63 1442.04 L 123.98 1441.68 L 119.02 1438.87 L 118.41 1438.51 L 113.54 1435.57 L 112.91 1435.18 L 108.13 1432.11 L 107.55 1431.72 L 102.86 1428.52 L 102.27 1428.11 L 97.68 1424.78 L 97.10 1424.35 L 92.61 1420.90 L 92.06 1420.47 L 87.66 1416.90 L 87.12 1416.45 L 82.82 1412.77 L 82.29 1412.30 L 78.09 1408.50 L 77.59 1408.03 L 73.50 1404.12 L 73.00 1403.63 L 69.01 1399.61 L 68.54 1399.12 L 64.65 1394.99 L 64.19 1394.48 L 60.41 1390.24 L 59.96 1389.73 L 56.30 1385.39 L 55.87 1384.87 L 52.32 1380.44 L 51.90 1379.89 L 48.46 1375.36 L 48.06 1374.82 L 44.75 1370.19 L 44.36 1369.64 L 41.16 1364.93 L 40.79 1364.36 L 37.71 1359.56 L 37.35 1358.99 L 34.40 1354.10 L 34.05 1353.51 L 31.22 1348.54 L 30.89 1347.95 L 28.19 1342.90 L 27.88 1342.30 L 25.30 1337.17 L 25.00 1336.57 L 22.55 1331.36 L 22.27 1330.75 L 19.96 1325.47 L 19.69 1324.85 L 17.51 1319.50 L 17.26 1318.87 L 15.21 1313.46 L 14.98 1312.82 L 13.07 1307.34 L 12.85 1306.70 L 11.08 1301.16 L 10.88 1300.51 L 9.25 1294.91 L 9.07 1294.26 L 7.57 1288.59 L 7.41 1287.93 L 6.06 1282.21 L 5.92 1281.56 L 4.71 1275.79 L 4.58 1275.12 L 3.53 1269.30 L 3.41 1268.63 L 2.51 1262.76 L 2.42 1262.09 L 1.66 1256.18 L 1.59 1255.51 L 0.99 1249.55 L 0.93 1248.87 L 0.48 1242.87 L 0.44 1242.19 L 0.16 1236.16 L 0.13 1235.48 L 0.01 1229.41 L 0.00 1228.73 L 0.03 1222.64 L 0.05 1221.95 L 0.24 1215.82 L 2.38 1206.33 L 7.87 1198.30 L 15.95 1192.86 L 26.46 1190.79 L 28.57 1190.82 L 30.66 1190.84 L 32.78 1190.87 L 34.87 1190.90 L 36.96 1190.92 L 39.08 1190.95 L 43.28 1190.99 L 45.38 1191.01 L 47.49 1191.03 L 49.58 1191.05 L 51.65 1191.07 L 51.65 1191.07 L 53.77 1191.08 L 53.79 1191.08 L 55.90 1191.10 L 58.00 1191.11 L 60.09 1191.12 L 62.20 1191.14 L 64.29 1191.15 L 66.39 1191.16 L 68.50 1191.17 L 70.59 1191.17 L 72.71 1191.18 L 74.80 1191.19 L 76.92 1191.19 L 79.01 1191.20 L 81.12 1191.20 L 83.21 1191.20 L 87.40 1191.20 L 89.51 1191.20 L 91.60 1191.20 L 93.70 1191.20 L 95.81 1191.19 L 97.93 1191.18 L 100.02 1191.18 L 102.11 1191.17 L 104.22 1191.16 L 106.32 1191.15 L 108.41 1191.14 L 110.52 1191.13 L 112.64 1191.12 L 114.73 1191.10 L 116.82 1191.09 L 118.94 1191.07 L 121.05 1191.05 L 121.05 1191.06 L 123.12 1191.04 L 125.24 1191.02 L 127.35 1191.00 L 129.44 1190.98 L 131.53 1190.95 L 133.65 1190.93 L 135.74 1190.91 L 137.83 1190.88 L 139.95 1190.85 L 142.06 1190.83 L 144.15 1190.80 L 146.27 1190.77 L 146.27 1190.77 L 148.36 1190.74 L 150.45 1190.71 L 152.57 1190.67 L 162.15 1192.35 L 170.44 1197.46 L 176.25 1205.27 L 178.84 1216.80 L 178.82 1218.28 L 178.81 1219.62 L 178.81 1219.62 L 178.80 1221.07 L 178.80 1222.45 L 178.80 1223.69 L 178.81 1225.11 L 178.82 1226.28 L 178.82 1226.28 L 178.84 1227.57 L 178.87 1228.96 L 178.89 1230.06 L 178.93 1231.21 L 178.97 1232.43 L 179.02 1233.63 L 179.08 1234.73 L 179.15 1235.97 L 179.22 1236.91 L 179.30 1238.00 L 179.39 1239.04 L 179.50 1240.22 L 179.61 1241.24 L 179.72 1242.19 L 179.86 1243.23 L 180.00 1244.22 L 180.11 1244.94 L 180.30 1246.07 L 180.45 1246.91 L 180.64 1247.90 L 180.80 1248.67 L 180.98 1249.47 L 181.21 1250.41 L 181.42 1251.24 L 181.62 1251.96 L 181.87 1252.84 L 182.11 1253.61 L 182.37 1254.41 L 182.62 1255.13 L 182.92 1255.94 L 183.18 1256.61 L 183.52 1257.47 L 183.80 1258.12 L 184.17 1258.94 L 184.49 1259.62 L 184.87 1260.40 L 185.28 1261.19 L 185.66 1261.89 L 186.05 1262.59 L 186.51 1263.37 L 186.93 1264.06 L 187.44 1264.86 L 187.97 1265.67 L 188.44 1266.35 L 189.05 1267.20 L 189.63 1267.98 L 190.21 1268.74 L 190.85 1269.54 L 191.54 1270.38 L 192.24 1271.20 L 192.95 1272.01 L 193.70 1272.83 L 194.42 1273.60 L 196.46 1275.67 L 198.41 1277.49 L 200.37 1279.20 L 202.35 1280.78 L 204.30 1282.22 L 206.25 1283.54 L 208.26 1284.79 L 210.18 1285.87 L 212.18 1286.89 L 214.14 1287.79 L 216.12 1288.60 L 218.08 1289.31 L 220.09 1289.95 L 222.04 1290.47 L 224.02 1290.92 L 226.01 1291.29 L 227.97 1291.56 L 229.99 1291.76 L 231.99 1291.88 L 233.94 1291.92 L 235.99 1291.88 L 237.95 1291.76 L 239.99 1291.55 L 241.96 1291.28 L 243.98 1290.92 L 245.95 1290.49 L 247.96 1289.97 L 249.93 1289.39 L 251.94 1288.71 L 253.84 1287.99 L 255.81 1287.16 L 257.75 1286.26 L 259.63 1285.30 L 261.54 1284.25 L 263.41 1283.13 L 265.21 1281.96 L 267.05 1280.68 L 268.78 1279.39 L 270.52 1277.98 L 272.23 1276.51 L 273.83 1275.02 L 275.49 1273.38 L 277.01 1271.77 L 278.51 1270.06 L 279.98 1268.28 L 281.38 1266.45 L 282.75 1264.53 L 284.02 1262.60 L 285.25 1260.60 L 286.41 1258.55 L 287.51 1256.44 L 288.55 1254.26 L 289.50 1252.09 L 290.40 1249.81 L 291.23 1247.48 L 291.98 1245.10 L 292.63 1242.72 L 293.22 1240.27 L 293.73 1237.73 L 294.19 1234.98 L 294.29 1234.30 L 294.40 1233.46 L 294.50 1232.74 L 294.59 1231.98 L 294.71 1230.99 L 294.78 1230.30 L 294.89 1229.31 L 294.96 1228.61 L 295.05 1227.62 L 295.13 1226.76 L 295.13 1226.76 L 295.19 1226.06 L 295.26 1225.11 L 295.33 1224.16 L 295.40 1223.26 L 295.45 1222.40 L 295.50 1221.64 L 295.55 1220.64 L 295.55 1220.64 L 295.59 1219.83 L 295.64 1218.82 L 295.68 1218.01 L 295.68 1218.01 L 295.72 1217.01 L 295.75 1216.10 L 295.75 1216.10 L 295.78 1215.28 L 295.81 1214.27 L 295.84 1213.31 L 295.88 1211.43 L 295.89 1210.52 L 295.91 1209.61 L 295.92 1208.64 L 295.93 1207.68 L 295.94 1206.81 L 295.94 1206.81 L 295.95 1204.79 L 295.95 1202.86 L 295.95 1201.90 L 295.95 1199.93 L 295.94 1199.01 L 295.94 1198.96 L 295.94 1197.95 L 295.93 1196.99 L 295.93 1196.03 L 295.93 1195.98 L 295.92 1194.98 L 295.91 1194.02 L 295.91 1193.01 L 295.91 1193.01 L 295.90 1192.05 L 295.90 1192.00 L 295.87 1188.99 L 295.87 1188.94 L 295.87 1187.93 L 295.86 1186.98 L 295.86 1186.93 L 295.86 1185.93 L 295.86 1185.88 L 295.85 1184.88 L 295.85 1183.88 L 295.85 1183.83 L 295.85 1182.83 L 295.84 1181.83 L 295.84 1180.74 L 295.85 1179.75 L 295.85 1179.70 L 295.85 1178.70 L 295.85 1178.64 L 295.86 1176.89 L 295.86 1176.87 L 295.87 1175.13 L 295.90 1171.67 L 295.91 1169.96 L 295.91 1169.93 L 295.92 1168.19 L 295.93 1166.47 L 295.93 1164.73 L 295.94 1163.02 L 295.94 1162.99 L 295.95 1161.25 L 295.97 1157.79 L 295.97 1156.05 L 295.98 1152.59 L 295.98 1152.57 L 295.99 1150.82 L 296.00 1149.14 L 296.00 1149.11 L 296.00 1147.37 L 296.01 1145.65 L 296.01 1145.63 L 296.01 1143.88 L 296.01 1142.17 L 296.02 1140.46 L 296.02 1140.43 L 296.02 1138.69 L 296.02 1136.97 L 296.02 1135.23 L 296.03 1133.49 L 296.03 1131.75 L 296.03 1130.01 L 296.03 1126.55 L 296.03 1124.84 L 296.03 1123.07 L 296.02 1121.35 L 296.02 1117.87 L 296.02 1116.15 L 296.02 1116.13 L 296.01 1114.38 L 296.01 1112.67 L 296.01 1110.96 L 296.01 1110.93 L 296.00 1109.19 L 296.00 1107.47 L 296.00 1107.45 L 295.99 1105.70 L 295.99 1103.99 L 295.98 1102.28 L 295.98 1102.25 L 295.97 1100.51 L 295.97 1098.79 L 295.95 1095.31 L 295.94 1093.59 L 295.94 1093.57 L 295.93 1091.82 L 295.93 1090.11 L 295.91 1088.40 L 295.91 1088.37 L 295.91 1086.63 L 295.89 1084.91 L 295.89 1084.89 L 295.89 1083.14 L 295.87 1081.43 L 295.86 1079.72 L 295.86 1079.69 L 295.85 1077.95 L 295.84 1076.23 L 295.82 1074.49 L 295.82 1074.26 L 296.16 825.41 L 293.84 825.38 L 290.36 825.34 L 286.87 825.30 L 283.39 825.27 L 283.39 825.27 L 279.85 825.24 L 276.31 825.21 L 272.80 825.19 L 269.25 825.17 L 265.72 825.15 L 262.16 825.14 L 258.62 825.13 L 255.06 825.13 L 251.49 825.12 L 247.94 825.12 L 244.38 825.12 L 240.79 825.13 L 237.22 825.14 L 233.64 825.15 L 230.05 825.16 L 226.46 825.18 L 222.88 825.19 L 219.27 825.21 L 215.68 825.23 L 212.09 825.25 L 208.51 825.28 L 204.90 825.31 L 204.89 825.31 L 201.31 825.33 L 194.10 825.39 L 194.10 825.39 L 190.53 825.42 L 186.93 825.45 L 183.33 825.49 L 179.75 825.52 L 176.16 825.56 L 172.57 825.59 L 169.00 825.63 L 165.43 825.66 L 165.41 825.66 L 161.85 825.70 L 158.28 825.74 L 154.71 825.77 L 154.70 825.77 L 151.16 825.81 L 147.60 825.84 L 147.59 825.84 L 144.04 825.88 L 140.50 825.91 L 136.97 825.95 L 133.44 825.98 L 133.43 825.98 L 129.91 826.02 L 129.89 826.02 L 126.38 826.05 L 122.88 826.08 L 119.38 826.11 L 119.37 826.11 L 115.89 826.14 L 115.87 826.14 L 112.39 826.17 L 112.38 826.17 L 108.91 826.20 L 99.34 824.44 L 91.09 819.26 L 85.34 811.41 L 82.85 800.69 L 82.82 798.59 L 82.83 798.59 L 82.79 796.50 L 82.79 796.45 L 82.77 794.33 L 82.74 792.23 L 82.71 790.10 L 82.71 790.07 L 82.68 787.93 L 82.65 785.79 L 82.65 785.76 L 82.62 783.61 L 82.60 781.48 L 82.60 781.46 L 82.57 779.29 L 82.57 779.27 L 82.55 777.10 L 82.52 774.95 L 82.52 774.91 L 82.50 772.73 L 82.48 770.57 L 82.48 770.55 L 82.45 768.37 L 82.45 768.35 L 82.43 766.16 L 82.41 763.97 L 82.39 761.77 L 82.39 761.75 L 82.37 759.55 L 82.35 757.35 L 82.35 757.33 L 82.34 755.13 L 82.34 755.10 L 82.32 752.90 L 82.29 748.48 L 82.29 748.44 L 82.28 746.23 L 82.26 741.81 L 82.26 741.78 L 82.25 739.57 L 82.25 739.55 L 82.24 737.34 L 82.24 737.32 L 82.23 732.89 L 82.23 732.87 L 82.23 730.66 L 82.23 730.63 L 82.23 728.42 L 82.23 723.96 L 82.23 721.75 L 82.23 721.73 L 82.23 719.52 L 82.23 719.50 L 82.24 715.09 L 82.24 715.05 L 82.26 710.65 L 82.26 710.61 L 82.27 708.41 L 82.29 706.22 L 82.29 706.20 L 82.30 704.01 L 82.30 703.97 L 82.32 701.78 L 82.34 699.60 L 82.34 699.58 L 82.36 697.40 L 82.36 697.38 L 82.38 695.21 L 82.38 695.19 L 82.41 693.02 L 82.41 692.98 L 82.43 690.81 L 82.46 688.66 L 82.46 688.61 L 82.49 686.46 L 82.53 684.32 L 82.53 684.27 L 82.56 682.13 L 82.56 682.11 L 82.60 679.97 L 82.60 679.95 L 82.64 677.82 L 82.64 677.80 L 82.68 675.68 L 82.68 675.66 L 82.72 673.54 L 82.72 673.50 L 82.77 671.39 L 82.77 671.37 L 82.82 669.27 L 84.87 659.76 L 90.29 651.67 L 98.31 646.16 L 108.66 643.99 L 295.69 643.83 L 296.26 356.56 L 296.07 277.45 L 296.07 276.09 L 296.06 274.76 L 296.05 273.37 L 296.04 272.01 L 296.03 270.62 L 296.03 270.62 L 296.02 269.27 L 296.00 267.89 L 295.99 266.55 L 295.99 266.52 L 295.98 265.15 L 295.96 263.77 L 295.95 262.41 L 295.94 261.04 L 295.93 261.01 L 295.92 259.65 L 295.91 258.29 L 295.91 258.25 L 295.90 256.89 L 295.90 256.86 L 295.90 255.50 L 295.90 255.47 L 295.89 254.11 L 295.89 254.08 L 295.89 252.73 L 295.89 252.69 L 295.89 251.34 L 295.89 249.89 L 295.89 248.55 L 295.89 248.51 L 295.89 247.16 L 295.89 247.09 L 295.90 245.75 L 295.91 245.68 L 295.92 244.34 L 295.92 244.26 L 295.93 242.92 L 295.94 242.85 L 295.96 241.51 L 295.96 241.40 L 295.98 240.06 L 295.98 240.03 L 296.01 238.69 L 296.01 238.58 L 296.05 237.24 L 296.05 237.17 L 296.09 235.83 L 296.09 235.69 L 296.14 234.35 L 296.14 234.28 L 296.19 232.95 L 296.19 232.84 L 296.24 231.50 L 296.25 231.39 L 296.31 230.06 L 296.31 229.95 L 296.38 228.61 L 296.38 228.47 L 296.46 227.13 L 296.46 227.02 L 296.54 225.68 L 296.55 225.58 L 296.63 224.24 L 296.64 224.10 L 296.73 222.76 L 296.74 222.58 L 296.84 221.24 L 296.85 221.14 L 296.95 219.80 L 296.97 219.66 L 297.08 218.31 L 297.09 218.17 L 297.21 216.83 L 297.23 216.65 L 297.36 215.31 L 297.37 215.17 L 297.51 213.82 L 297.52 213.68 L 297.66 212.33 L 297.69 212.13 L 297.84 210.78 L 297.86 210.65 L 298.02 209.29 L 298.04 209.12 L 298.21 207.77 L 298.23 207.60 L 298.41 206.24 L 298.44 206.08 L 298.63 204.72 L 298.66 204.52 L 298.86 203.15 L 298.88 202.99 L 299.09 201.63 L 299.12 201.44 L 299.35 200.07 L 299.37 199.90 L 299.60 198.53 L 299.64 198.35 L 299.88 196.97 L 299.91 196.78 L 300.16 195.40 L 300.20 195.21 L 300.46 193.83 L 300.50 193.65 L 300.77 192.26 L 300.82 192.05 L 301.11 190.66 L 301.17 190.34 L 301.59 188.45 L 301.64 188.22 L 302.08 186.33 L 302.12 186.13 L 302.57 184.25 L 302.64 184.00 L 303.10 182.12 L 303.16 181.90 L 303.64 180.03 L 303.70 179.82 L 304.20 177.96 L 304.26 177.71 L 304.78 175.85 L 304.84 175.65 L 305.37 173.79 L 305.44 173.57 L 305.98 171.72 L 306.05 171.49 L 306.62 169.65 L 306.69 169.42 L 307.27 167.59 L 307.34 167.35 L 307.94 165.52 L 308.01 165.33 L 308.62 163.50 L 308.70 163.27 L 309.33 161.45 L 309.40 161.24 L 310.05 159.43 L 310.13 159.21 L 310.79 157.40 L 310.87 157.18 L 311.55 155.38 L 311.63 155.17 L 312.32 153.38 L 312.41 153.15 L 313.12 151.36 L 313.20 151.17 L 313.92 149.39 L 314.02 149.16 L 314.76 147.39 L 314.84 147.19 L 315.59 145.42 L 315.70 145.19 L 316.47 143.43 L 316.56 143.24 L 317.34 141.48 L 317.45 141.25 L 318.25 139.51 L 318.33 139.33 L 319.15 137.60 L 319.26 137.35 L 320.10 135.62 L 320.19 135.43 L 321.04 133.71 L 321.14 133.50 L 322.01 131.78 L 322.10 131.60 L 322.98 129.89 L 323.09 129.67 L 323.99 127.97 L 324.11 127.75 L 325.02 126.05 L 325.11 125.89 L 326.03 124.21 L 326.15 123.99 L 327.09 122.32 L 327.21 122.11 L 328.16 120.45 L 328.27 120.26 L 329.24 118.60 L 329.37 118.38 L 330.35 116.73 L 330.47 116.53 L 331.47 114.89 L 331.58 114.72 L 332.59 113.09 L 332.72 112.87 L 333.75 111.24 L 333.87 111.06 L 334.91 109.45 L 335.03 109.26 L 336.09 107.66 L 336.23 107.45 L 337.30 105.85 L 337.42 105.67 L 338.51 104.08 L 338.65 103.88 L 339.75 102.30 L 339.87 102.13 L 340.99 100.56 L 341.13 100.36 L 342.26 98.80 L 342.39 98.62 L 343.54 97.07 L 343.67 96.88 L 344.83 95.34 L 344.96 95.17 L 346.13 93.64 L 346.28 93.44 L 347.47 91.92 L 347.61 91.74 L 348.81 90.23 L 348.96 90.05 L 350.17 88.55 L 350.32 88.37 L 351.54 86.88 L 351.69 86.71 L 352.93 85.23 L 353.08 85.05 L 354.34 83.58 L 354.49 83.41 L 355.76 81.95 L 355.91 81.78 L 357.19 80.33 L 357.35 80.14 L 358.65 78.71 L 358.80 78.54 L 360.11 77.11 L 360.32 76.88 L 362.41 74.67 L 362.64 74.43 L 364.74 72.25 L 364.96 72.03 L 367.07 69.89 L 367.29 69.67 L 369.42 67.57 L 369.66 67.33 L 371.81 65.27 L 372.04 65.05 L 374.20 63.02 L 374.44 62.80 L 376.61 60.81 L 376.86 60.58 L 379.05 58.63 L 379.30 58.41 L 381.50 56.50 L 381.75 56.29 L 383.96 54.42 L 384.24 54.18 L 386.47 52.35 L 386.73 52.14 L 388.97 50.34 L 389.25 50.12 L 391.52 48.36 L 391.78 48.15 L 394.06 46.43 L 394.34 46.21 L 396.63 44.52 L 396.92 44.31 L 399.22 42.66 L 399.52 42.45 L 401.84 40.84 L 402.12 40.65 L 404.45 39.07 L 404.76 38.86 L 407.11 37.32 L 407.41 37.13 L 409.78 35.63 L 410.09 35.43 L 412.47 33.96 L 412.76 33.78 L 415.16 32.35 L 415.48 32.16 L 417.90 30.76 L 418.20 30.59 L 420.63 29.23 L 420.95 29.05 L 423.39 27.72 L 423.71 27.55 L 426.17 26.26 L 426.50 26.10 L 428.97 24.84 L 429.30 24.68 L 431.79 23.47 L 432.11 23.31 L 434.61 22.13 L 434.94 21.98 L 437.46 20.83 L 437.79 20.68 L 440.32 19.57 L 440.66 19.43 L 443.21 18.35 L 443.54 18.21 L 446.11 17.17 L 446.44 17.04 L 449.03 16.03 L 449.36 15.90 L 451.96 14.93 L 452.30 14.81 L 454.92 13.87 L 455.24 13.76 L 457.87 12.86 L 458.21 12.74 L 460.86 11.87 L 461.20 11.77 L 463.86 10.93 L 464.19 10.83 L 466.87 10.03 L 467.21 9.94 L 469.90 9.17 L 470.23 9.08 L 472.94 8.35 L 473.28 8.26 L 476.01 7.56 L 476.32 7.49 L 479.06 6.82 L 479.42 6.74 L 482.18 6.11 L 482.48 6.04 L 485.26 5.45 L 485.59 5.38 L 488.38 4.82 L 488.72 4.75 L 491.53 4.22 L 491.84 4.17 L 494.67 3.67 L 494.97 3.62 L 497.82 3.16 L 498.15 3.10 L 501.01 2.68 L 501.31 2.63 L 504.19 2.24 L 504.50 2.20 L 507.40 1.83 L 507.70 1.79 L 510.62 1.46 L 510.90 1.43 L 513.83 1.13 L 514.14 1.10 L 517.08 0.84 L 517.39 0.81 L 520.35 0.58 L 520.63 0.56 L 523.62 0.36 L 523.91 0.34 L 526.91 0.17 L 527.19 0.16 L 530.20 0.02 L 531.94 0.00 L 534.83 0.06 L 535.15 0.07 L 538.03 0.17 L 538.35 0.18 L 541.22 0.32 L 541.55 0.33 L 544.40 0.50 L 544.73 0.52 L 547.57 0.73 L 547.90 0.75 L 550.73 0.99 L 551.06 1.02 L 553.88 1.29 L 554.21 1.33 L 557.01 1.64 L 557.33 1.67 L 560.12 2.01 L 560.47 2.06 L 563.25 2.44 L 563.57 2.48 L 566.33 2.90 L 566.67 2.95 L 569.42 3.39 L 569.75 3.45 L 572.48 3.93 L 572.84 3.99 L 575.56 4.51 L 575.89 4.57 L 578.60 5.13 L 578.92 5.19 L 581.62 5.78 L 581.98 5.86 L 584.66 6.48 L 584.99 6.56 L 587.66 7.21 L 587.98 7.29 L 590.64 7.98 L 590.98 8.07 L 593.63 8.79 L 593.95 8.88 L 596.58 9.64 L 596.92 9.74 L 599.54 10.53 L 599.88 10.64 L 602.48 11.46 L 602.80 11.57 L 605.39 12.43 L 605.72 12.54 L 608.29 13.43 L 608.61 13.54 L 611.17 14.47 L 611.51 14.59 L 614.06 15.55 L 614.38 15.68 L 616.91 16.67 L 617.24 16.80 L 619.76 17.83 L 620.08 17.97 L 622.58 19.03 L 622.90 19.17 L 625.39 20.26 L 625.70 20.40 L 628.18 21.53 L 628.50 21.68 L 630.96 22.84 L 631.26 22.99 L 633.71 24.18 L 634.03 24.34 L 636.46 25.57 L 636.75 25.72 L 639.17 26.98 L 639.49 27.15 L 641.89 28.45 L 642.19 28.61 L 644.58 29.94 L 644.87 30.11 L 647.24 31.47 L 647.54 31.65 L 649.90 33.04 L 650.19 33.21 L 652.53 34.64 L 652.82 34.82 L 655.15 36.29 L 655.43 36.47 L 657.75 37.96 L 658.02 38.14 L 660.32 39.67 L 660.61 39.86 L 662.89 41.42 L 663.15 41.60 L 665.42 43.19 L 665.71 43.40 L 667.96 45.03 L 668.22 45.21 L 670.46 46.87 L 670.72 47.07 L 672.94 48.76 L 673.20 48.96 L 675.41 50.68 L 675.67 50.89 L 677.86 52.65 L 678.10 52.84 L 680.28 54.63 L 680.53 54.84 L 682.70 56.66 L 682.94 56.87 L 685.09 58.73 L 685.31 58.93 L 687.45 60.81 L 687.68 61.02 L 689.80 62.94 L 690.03 63.15 L 692.13 65.10 L 692.35 65.32 L 694.44 67.30 L 694.65 67.50 L 696.72 69.52 L 696.95 69.74 L 699.00 71.79 L 699.03 71.82 L 700.66 73.45 L 700.86 73.65 L 702.47 75.30 L 702.66 75.49 L 704.25 77.15 L 704.46 77.38 L 706.03 79.06 L 706.21 79.25 L 707.76 80.94 L 707.96 81.17 L 709.49 82.87 L 709.68 83.08 L 711.19 84.81 L 711.39 85.03 L 712.87 86.77 L 713.05 86.98 L 714.52 88.74 L 714.71 88.96 L 716.16 90.73 L 716.34 90.96 L 717.77 92.74 L 717.94 92.96 L 719.35 94.76 L 719.53 94.99 L 720.91 96.81 L 721.09 97.03 L 722.45 98.86 L 722.61 99.08 L 723.96 100.92 L 724.14 101.17 L 725.46 103.03 L 725.63 103.26 L 726.93 105.13 L 727.08 105.35 L 728.36 107.23 L 728.53 107.48 L 729.79 109.38 L 729.95 109.60 L 731.19 111.52 L 731.34 111.76 L 732.56 113.68 L 732.72 113.93 L 733.92 115.87 L 734.06 116.10 L 735.24 118.05 L 735.38 118.29 L 736.53 120.25 L 736.68 120.50 L 737.81 122.48 L 737.95 122.72 L 739.06 124.70 L 739.20 124.95 L 740.29 126.95 L 740.43 127.21 L 741.50 129.22 L 741.62 129.45 L 742.66 131.47 L 742.80 131.73 L 743.82 133.76 L 743.95 134.02 L 744.95 136.07 L 745.07 136.31 L 746.05 138.37 L 746.17 138.63 L 747.13 140.69 L 747.24 140.95 L 748.17 143.02 L 748.29 143.27 L 749.20 145.36 L 749.32 145.63 L 750.20 147.73 L 750.30 147.97 L 751.17 150.08 L 751.28 150.36 L 752.13 152.47 L 752.22 152.72 L 753.04 154.84 L 753.15 155.13 L 753.95 157.27 L 754.04 157.52 L 754.81 159.67 L 754.90 159.92 L 755.65 162.08 L 755.74 162.35 L 756.47 164.51 L 756.57 164.79 L 757.27 166.96 L 757.35 167.23 L 758.03 169.41 L 758.11 169.66 L 758.76 171.85 L 758.85 172.15 L 759.48 174.34 L 759.55 174.60 L 760.16 176.80 L 760.24 177.07 L 760.82 179.28 L 760.89 179.56 L 761.45 181.78 L 761.52 182.07 L 762.06 184.30 L 762.12 184.55 L 762.63 186.78 L 762.70 187.08 L 763.18 189.32 L 763.23 189.57 L 763.70 191.82 L 763.76 192.14 L 764.20 194.39 L 764.25 194.64 L 764.66 196.90 L 764.71 197.19 L 765.10 199.46 L 765.15 199.74 L 765.51 202.01 L 765.55 202.30 L 765.89 204.58 L 765.93 204.85 L 766.25 207.14 L 766.30 207.54 L 766.39 208.30 L 766.40 208.42 L 766.49 209.18 L 766.50 209.24 L 766.59 210.00 L 766.60 210.12 L 766.69 210.88 L 766.70 211.01 L 766.78 211.77 L 766.79 211.88 L 766.87 212.64 L 766.87 212.71 L 766.95 213.47 L 766.96 213.59 L 767.03 214.35 L 767.03 214.41 L 767.10 215.17 L 767.11 215.29 L 767.18 216.05 L 767.18 216.12 L 767.24 216.88 L 767.26 217.00 L 767.32 217.76 L 767.32 217.82 L 767.38 218.58 L 767.39 218.71 L 767.44 219.47 L 767.44 219.52 L 767.49 220.28 L 767.50 220.41 L 767.55 221.17 L 767.60 221.92 L 767.61 222.05 L 767.65 222.81 L 767.66 222.93 L 767.70 223.69 L 767.70 223.70 L 767.74 224.46 L 767.75 224.58 L 767.78 225.34 L 767.79 225.40 L 767.82 226.16 L 767.83 226.22 L 767.86 226.98 L 767.86 227.04 L 767.89 227.80 L 767.89 227.86 L 767.92 228.62 L 767.93 228.68 L 767.95 229.44 L 767.96 229.51 L 767.98 230.27 L 767.98 230.33 L 768.01 231.09 L 768.01 231.15 L 768.03 231.91 L 768.03 231.97 L 768.05 232.73 L 768.06 232.79 L 768.07 233.55 L 768.08 233.62 L 768.11 235.14 L 768.11 235.20 L 768.12 235.96 L 768.13 236.02 L 768.14 236.78 L 768.14 236.84 L 768.16 238.36 L 768.16 238.42 L 768.17 239.18 L 768.17 239.25 L 768.18 240.01 L 768.19 240.77 L 768.19 240.83 L 768.20 242.35 L 768.20 242.41 L 768.20 243.17 L 768.21 243.93 L 768.21 243.99 L 768.21 244.76 L 768.21 245.52 L 768.21 246.28 L 768.21 249.45 L 768.21 250.97 L 768.21 251.73 L 768.21 252.49 L 768.20 253.26 L 768.20 254.02 L 768.20 254.08 L 768.20 254.84 L 768.19 256.31 L 766.34 265.86 L 761.09 274.06 L 753.18 279.73 L 741.88 282.11 L 739.86 282.07 L 737.84 282.04 L 735.84 282.01 L 733.86 281.97 L 733.86 281.98 L 731.82 281.95 L 729.77 281.92 L 727.72 281.89 L 725.70 281.86 L 723.63 281.84 L 721.56 281.81 L 719.53 281.79 L 719.51 281.79 L 717.43 281.76 L 715.38 281.74 L 713.29 281.72 L 711.22 281.70 L 709.14 281.69 L 709.14 281.69 L 707.03 281.67 L 702.84 281.64 L 700.72 281.63 L 698.65 281.62 L 696.53 281.60 L 694.41 281.59 L 692.31 281.58 L 690.21 281.58 L 688.10 281.57 L 688.08 281.57 L 685.95 281.56 L 681.74 281.56 L 679.63 281.55 L 677.50 281.55 L 673.29 281.55 Z" fill="#D4A574"/>
    </g>
    <g transform="matrix(0.006122,0,0,-0.006122,3.7392,54.9592)">
      <g transform="translate(0.00,0)"><path d="M140 0V1080H352.9967041015625V817.0001220703125L326.9967041015625 851.0001220703125Q347.3299560546875 904.9998779296875 380.82977294921875 949.6663818359375Q414.32958984375 994.3328857421875 460.9957275390625 1023.332763671875Q500.82916259765625 1050.4998168945312 549.2461242675781 1065.5Q597.6630859375 1080.5001831054688 648.663330078125 1084.0001831054688Q699.66357421875 1087.5001831054688 748.3302001953125 1080V855.0035400390625Q699.6630859375 869.1702270507812 637.5794372558594 863.8367919921875Q575.4957885742188 858.5033569335938 524.662109375 829.3359375Q475.16192626953125 802.1686401367188 443.7454528808594 760.2513122558594Q412.3289794921875 718.333984375 397.3292236328125 664.83349609375Q382.3294677734375 611.3330078125 382.3294677734375 548.666259765625V0Z" fill="#0D0D0D"/></g>
      <g transform="translate(718.33,0)"><path d="M630.665283203125 -30Q466.83221435546875 -30 342.99920654296875 41.083282470703125Q219.16619873046875 112.16656494140625 149.58309936523438 238.08328247070312Q80 364 80 528.3336181640625Q80 705.3336181640625 148.24978637695312 835.8335571289062Q216.49957275390625 966.33349609375 337.4159851074219 1038.166748046875Q458.3323974609375 1110 617.332275390625 1110Q784.8319702148438 1110 902.331787109375 1031.6668701171875Q1019.8316040039062 953.333740234375 1077.0816345214844 810.333984375Q1134.3316650390625 667.334228515625 1120.1653442382812 472.667724609375H881.0023193359375V560.666259765625Q880.002197265625 737.0009765625 819.0011596679688 818.168701171875Q758.0001220703125 899.33642578125 627.33203125 899.33642578125Q479.49761962890625 899.33642578125 407.2467956542969 807.6688842773438Q334.9959716796875 716.0013427734375 334.9959716796875 540Q334.9959716796875 375.6650390625 407.2467956542969 285.66412353515625Q479.49761962890625 195.6632080078125 617.332275390625 195.6632080078125Q706.3333740234375 195.6632080078125 770.6676025390625 235.3304443359375Q835.0018310546875 274.9976806640625 870.00244140625 349.6654052734375L1108.3316650390625 277.99951171875Q1046.4982299804688 131.6663818359375 916.7484436035156 50.83319091796875Q786.9986572265625 -30 630.665283203125 -30ZM258.9969482421875 472.667724609375V654.9986572265625H1002.3336181640625V472.667724609375Z" fill="#0D0D0D"/></g>
      <g transform="translate(1902.66,-170)"><path d="M 671.18 1188.45 L 669.06 1188.44 L 666.93 1188.44 L 664.86 1188.43 L 662.73 1188.43 L 662.71 1188.43 L 660.64 1188.42 L 658.52 1188.41 L 658.50 1188.41 L 656.43 1188.41 L 654.32 1188.39 L 652.21 1188.38 L 650.13 1188.37 L 648.05 1188.36 L 645.95 1188.34 L 643.86 1188.33 L 641.77 1188.31 L 641.77 1188.32 L 639.74 1188.30 L 639.72 1188.30 L 637.64 1188.28 L 637.64 1188.28 L 635.61 1188.26 L 633.55 1188.24 L 631.51 1188.22 L 629.46 1188.20 L 627.43 1188.18 L 625.39 1188.15 L 623.39 1188.13 L 621.36 1188.10 L 619.37 1188.08 L 617.35 1188.05 L 607.77 1189.75 L 599.49 1194.87 L 593.70 1202.69 L 591.13 1213.45 L 591.11 1214.99 L 591.08 1216.43 L 591.08 1216.43 L 591.04 1217.86 L 591.00 1219.24 L 590.95 1220.68 L 590.90 1222.02 L 590.84 1223.41 L 590.77 1224.76 L 590.70 1226.06 L 590.63 1227.22 L 590.62 1227.22 L 590.53 1228.68 L 590.43 1229.93 L 590.35 1230.99 L 590.22 1232.43 L 590.09 1233.68 L 589.99 1234.65 L 589.83 1236.06 L 589.72 1236.97 L 589.56 1238.15 L 589.36 1239.55 L 589.20 1240.56 L 589.05 1241.48 L 588.82 1242.76 L 588.67 1243.60 L 588.41 1244.85 L 588.17 1245.98 L 587.95 1246.99 L 587.77 1247.73 L 587.43 1249.06 L 587.22 1249.83 L 586.94 1250.81 L 586.63 1251.87 L 586.34 1252.78 L 586.07 1253.60 L 585.74 1254.53 L 585.37 1255.56 L 585.06 1256.35 L 584.66 1257.36 L 584.32 1258.17 L 583.94 1259.03 L 583.55 1259.88 L 583.12 1260.76 L 582.70 1261.60 L 582.25 1262.46 L 581.76 1263.37 L 581.35 1264.08 L 580.82 1264.98 L 580.32 1265.80 L 579.80 1266.61 L 579.22 1267.49 L 578.70 1268.25 L 578.06 1269.14 L 577.46 1269.95 L 576.83 1270.77 L 576.16 1271.62 L 575.44 1272.49 L 574.76 1273.28 L 574.03 1274.11 L 573.30 1274.91 L 572.51 1275.75 L 571.04 1277.23 L 569.58 1278.62 L 568.08 1279.96 L 566.63 1281.18 L 565.10 1282.38 L 563.58 1283.50 L 562.04 1284.56 L 560.53 1285.54 L 558.95 1286.48 L 557.40 1287.35 L 555.79 1288.18 L 554.26 1288.92 L 552.60 1289.64 L 551.02 1290.28 L 549.40 1290.87 L 547.78 1291.41 L 546.12 1291.90 L 544.52 1292.32 L 542.89 1292.69 L 541.20 1293.02 L 539.55 1293.29 L 537.90 1293.51 L 536.25 1293.67 L 534.58 1293.78 L 532.90 1293.85 L 531.25 1293.86 L 529.58 1293.81 L 527.93 1293.72 L 526.25 1293.58 L 524.59 1293.38 L 522.94 1293.13 L 521.35 1292.85 L 519.66 1292.49 L 518.00 1292.08 L 516.47 1291.66 L 514.76 1291.13 L 513.22 1290.60 L 511.60 1289.98 L 510.02 1289.33 L 508.50 1288.64 L 506.89 1287.86 L 505.41 1287.08 L 503.90 1286.23 L 502.39 1285.32 L 500.89 1284.34 L 499.49 1283.38 L 498.01 1282.29 L 496.61 1281.19 L 495.22 1280.02 L 493.87 1278.83 L 492.52 1277.55 L 491.18 1276.21 L 489.94 1274.89 L 488.68 1273.46 L 487.46 1271.98 L 486.24 1270.42 L 485.08 1268.85 L 483.97 1267.23 L 482.88 1265.55 L 481.77 1263.70 L 481.18 1262.67 L 480.65 1261.71 L 480.11 1260.69 L 479.62 1259.72 L 479.08 1258.60 L 478.64 1257.67 L 478.16 1256.59 L 477.79 1255.70 L 477.32 1254.54 L 476.96 1253.61 L 476.58 1252.56 L 476.20 1251.48 L 475.90 1250.55 L 475.60 1249.59 L 475.30 1248.59 L 474.98 1247.43 L 474.70 1246.35 L 474.47 1245.42 L 474.24 1244.42 L 474.00 1243.29 L 473.78 1242.20 L 473.58 1241.11 L 473.39 1240.06 L 473.21 1238.92 L 473.05 1237.83 L 472.88 1236.55 L 472.75 1235.52 L 472.62 1234.42 L 472.51 1233.31 L 472.39 1232.05 L 472.28 1230.71 L 472.20 1229.60 L 472.13 1228.50 L 472.06 1227.25 L 471.99 1225.80 L 471.95 1224.71 L 471.90 1223.42 L 471.90 1223.27 L 471.90 1223.26 L 471.86 1221.96 L 471.86 1221.96 L 471.83 1220.79 L 471.81 1219.33 L 471.80 1218.08 L 471.78 1216.61 L 471.78 1215.26 L 471.78 1213.84 L 471.79 1212.51 L 471.80 1211.02 L 471.79 1211.02 L 471.81 1209.61 L 471.82 1208.14 L 471.84 1206.67 L 471.86 1205.18 L 471.88 1203.67 L 471.88 1203.63 L 471.90 1202.11 L 471.91 1200.58 L 471.91 1200.58 L 471.93 1199.04 L 471.93 1198.98 L 471.95 1197.44 L 471.95 1197.41 L 471.96 1195.86 L 471.96 1195.83 L 471.97 1194.28 L 471.97 1194.19 L 471.98 1192.63 L 471.98 1192.57 L 471.98 1191.00 L 471.98 1190.91 L 471.98 1189.34 L 471.87 1103.84 L 471.83 826.31 L 658.31 825.88 L 667.86 824.03 L 676.06 818.78 L 681.73 810.87 L 684.12 799.99 L 683.97 670.14 L 682.13 660.59 L 676.89 652.39 L 668.98 646.70 L 658.11 644.30 L 471.86 644.28 L 471.83 361.75 L 471.83 278.23 L 471.83 276.84 L 471.83 274.17 L 471.84 271.44 L 471.86 268.71 L 471.87 267.34 L 471.87 267.30 L 471.88 265.96 L 471.88 264.59 L 471.88 264.55 L 471.89 263.18 L 471.90 261.81 L 471.91 260.44 L 471.91 260.41 L 471.92 257.67 L 471.92 257.64 L 471.92 256.27 L 471.92 256.24 L 471.92 254.87 L 471.92 253.44 L 471.92 252.08 L 471.92 252.04 L 471.92 250.68 L 471.92 250.61 L 471.91 249.25 L 471.91 249.21 L 471.90 247.85 L 471.90 247.82 L 471.89 246.46 L 471.89 246.39 L 471.87 245.03 L 471.87 244.96 L 471.86 243.61 L 471.85 243.53 L 471.83 242.18 L 471.83 242.11 L 471.80 240.75 L 471.80 240.68 L 471.77 239.33 L 471.77 239.26 L 471.74 237.90 L 471.74 237.83 L 471.70 236.48 L 471.70 236.37 L 471.65 235.02 L 471.65 234.91 L 471.60 233.56 L 471.60 233.45 L 471.54 232.10 L 471.54 232.03 L 471.48 230.67 L 471.48 230.57 L 471.42 229.21 L 471.41 229.11 L 471.34 227.76 L 471.34 227.61 L 471.26 226.26 L 471.25 226.16 L 471.17 224.80 L 471.17 224.70 L 471.08 223.34 L 471.07 223.20 L 470.98 221.85 L 470.97 221.74 L 470.87 220.39 L 470.86 220.22 L 470.75 218.86 L 470.74 218.76 L 470.62 217.40 L 470.61 217.26 L 470.49 215.91 L 470.48 215.77 L 470.35 214.41 L 470.33 214.24 L 470.19 212.89 L 470.18 212.75 L 470.03 211.39 L 470.02 211.25 L 469.86 209.90 L 469.84 209.69 L 469.67 208.33 L 469.66 208.23 L 469.49 206.87 L 469.47 206.67 L 469.28 205.31 L 469.26 205.14 L 469.07 203.78 L 469.05 203.64 L 468.85 202.28 L 468.82 202.09 L 468.62 200.72 L 468.58 200.51 L 468.36 199.15 L 468.34 199.02 L 468.12 197.66 L 468.08 197.42 L 467.84 196.06 L 467.81 195.90 L 467.56 194.53 L 467.53 194.37 L 467.27 192.99 L 467.22 192.76 L 466.95 191.39 L 466.92 191.24 L 466.54 189.35 L 466.49 189.15 L 466.09 187.26 L 466.04 187.02 L 465.62 185.13 L 465.57 184.93 L 465.14 183.05 L 465.08 182.81 L 464.63 180.94 L 464.58 180.73 L 464.11 178.86 L 464.05 178.64 L 463.57 176.78 L 463.51 176.56 L 463.01 174.70 L 462.94 174.47 L 462.43 172.62 L 462.36 172.39 L 461.83 170.55 L 461.77 170.34 L 461.22 168.51 L 461.15 168.26 L 460.58 166.43 L 460.52 166.24 L 459.94 164.41 L 459.86 164.17 L 459.26 162.35 L 459.19 162.13 L 458.58 160.32 L 458.50 160.10 L 457.87 158.29 L 457.79 158.06 L 457.15 156.26 L 457.07 156.06 L 456.41 154.26 L 456.33 154.03 L 455.65 152.24 L 455.57 152.04 L 454.88 150.26 L 454.79 150.03 L 454.08 148.25 L 454.00 148.04 L 453.27 146.27 L 453.19 146.08 L 452.45 144.31 L 452.35 144.09 L 451.60 142.33 L 451.50 142.11 L 450.73 140.36 L 450.65 140.17 L 449.86 138.43 L 449.75 138.19 L 448.95 136.45 L 448.86 136.27 L 448.05 134.54 L 447.94 134.32 L 447.11 132.60 L 447.01 132.39 L 446.06 130.49 L 445.20 128.78 L 445.09 128.57 L 444.22 126.87 L 444.11 126.67 L 443.22 124.98 L 443.10 124.77 L 442.19 123.08 L 442.09 122.89 L 441.16 121.21 L 441.05 121.01 L 440.11 119.34 L 440.01 119.16 L 439.06 117.50 L 438.93 117.28 L 437.96 115.63 L 437.85 115.44 L 436.87 113.80 L 436.74 113.60 L 435.75 111.96 L 435.62 111.76 L 434.61 110.14 L 434.49 109.95 L 433.46 108.33 L 433.35 108.15 L 432.31 106.55 L 432.17 106.33 L 431.11 104.73 L 430.99 104.55 L 429.92 102.96 L 429.79 102.77 L 428.71 101.19 L 428.57 101.00 L 427.47 99.43 L 427.34 99.25 L 426.23 97.68 L 426.10 97.50 L 424.97 95.95 L 424.83 95.76 L 423.69 94.21 L 423.54 94.01 L 422.38 92.48 L 422.26 92.33 L 421.09 90.80 L 420.94 90.60 L 419.76 89.09 L 419.61 88.91 L 418.41 87.40 L 418.27 87.23 L 417.06 85.73 L 416.91 85.55 L 415.68 84.07 L 415.54 83.89 L 414.30 82.42 L 414.16 82.26 L 412.91 80.80 L 412.73 80.59 L 411.46 79.14 L 411.32 78.98 L 410.04 77.54 L 409.67 77.13 L 407.62 74.92 L 407.41 74.69 L 405.34 72.52 L 405.10 72.27 L 403.01 70.13 L 402.78 69.89 L 400.67 67.79 L 400.43 67.55 L 398.31 65.49 L 398.06 65.25 L 395.92 63.23 L 395.68 63.00 L 393.53 61.02 L 393.27 60.78 L 391.10 58.83 L 390.82 58.59 L 388.64 56.68 L 388.38 56.46 L 386.18 54.59 L 385.91 54.36 L 383.69 52.53 L 383.42 52.31 L 381.18 50.51 L 380.90 50.28 L 378.64 48.52 L 378.36 48.30 L 376.09 46.58 L 375.82 46.38 L 373.54 44.69 L 373.22 44.46 L 370.92 42.81 L 370.64 42.61 L 368.32 41.00 L 368.02 40.80 L 365.69 39.22 L 365.38 39.02 L 363.03 37.48 L 362.72 37.28 L 360.36 35.78 L 360.05 35.59 L 357.67 34.12 L 357.37 33.94 L 354.97 32.51 L 354.65 32.32 L 352.24 30.92 L 351.91 30.74 L 349.48 29.38 L 349.17 29.21 L 346.73 27.89 L 346.41 27.72 L 343.94 26.43 L 343.63 26.27 L 341.15 25.02 L 340.81 24.85 L 338.32 23.63 L 338.01 23.48 L 335.50 22.30 L 335.16 22.15 L 332.63 21.00 L 332.32 20.86 L 329.77 19.75 L 329.43 19.60 L 326.88 18.53 L 326.56 18.39 L 323.98 17.35 L 323.65 17.22 L 321.07 16.21 L 320.75 16.09 L 318.15 15.12 L 317.81 15.00 L 315.19 14.06 L 314.85 13.94 L 312.22 13.04 L 311.90 12.93 L 309.24 12.06 L 308.91 11.95 L 306.25 11.12 L 305.92 11.02 L 303.24 10.21 L 302.92 10.12 L 300.23 9.35 L 299.89 9.26 L 297.17 8.53 L 296.87 8.45 L 294.14 7.74 L 293.81 7.66 L 291.07 6.99 L 290.75 6.92 L 287.99 6.28 L 287.67 6.21 L 284.90 5.61 L 284.60 5.55 L 281.81 4.98 L 281.48 4.91 L 278.67 4.38 L 278.37 4.33 L 275.56 3.82 L 275.24 3.77 L 272.41 3.30 L 272.11 3.25 L 269.27 2.81 L 268.96 2.77 L 266.09 2.36 L 265.80 2.32 L 262.92 1.95 L 262.62 1.91 L 259.73 1.57 L 259.42 1.54 L 256.51 1.23 L 256.24 1.20 L 253.32 0.93 L 253.02 0.90 L 250.09 0.66 L 249.80 0.63 L 246.85 0.42 L 246.57 0.40 L 243.60 0.22 L 243.33 0.21 L 240.35 0.06 L 239.15 0.02 L 232.91 0.00 L 232.15 0.01 L 225.97 0.17 L 225.22 0.20 L 219.10 0.53 L 218.34 0.58 L 212.28 1.09 L 211.53 1.16 L 205.53 1.84 L 204.77 1.94 L 198.82 2.79 L 198.09 2.90 L 192.21 3.92 L 191.46 4.06 L 185.65 5.23 L 184.92 5.40 L 179.18 6.73 L 178.44 6.92 L 172.77 8.41 L 172.05 8.62 L 166.45 10.27 L 165.73 10.50 L 160.20 12.31 L 159.51 12.54 L 154.05 14.50 L 153.35 14.77 L 147.98 16.87 L 147.30 17.15 L 142.00 19.41 L 141.33 19.70 L 136.11 22.10 L 135.44 22.42 L 130.31 24.96 L 129.67 25.29 L 124.63 27.96 L 123.98 28.32 L 119.02 31.13 L 118.41 31.49 L 113.54 34.43 L 112.91 34.82 L 108.13 37.89 L 107.55 38.28 L 102.86 41.48 L 102.27 41.89 L 97.68 45.22 L 97.10 45.65 L 92.61 49.10 L 92.06 49.53 L 87.66 53.10 L 87.12 53.55 L 82.82 57.23 L 82.29 57.70 L 78.09 61.50 L 77.59 61.97 L 73.50 65.88 L 73.00 66.37 L 69.01 70.39 L 68.54 70.88 L 64.65 75.01 L 64.19 75.52 L 60.41 79.76 L 59.96 80.27 L 56.30 84.61 L 55.87 85.13 L 52.32 89.56 L 51.90 90.11 L 48.46 94.64 L 48.06 95.18 L 44.75 99.81 L 44.36 100.36 L 41.16 105.07 L 40.79 105.64 L 37.71 110.44 L 37.35 111.01 L 34.40 115.90 L 34.05 116.49 L 31.22 121.46 L 30.89 122.05 L 28.19 127.10 L 27.88 127.70 L 25.30 132.83 L 25.00 133.43 L 22.55 138.64 L 22.27 139.25 L 19.96 144.53 L 19.69 145.15 L 17.51 150.50 L 17.26 151.13 L 15.21 156.54 L 14.98 157.18 L 13.07 162.66 L 12.85 163.30 L 11.08 168.84 L 10.88 169.49 L 9.25 175.09 L 9.07 175.74 L 7.57 181.41 L 7.41 182.07 L 6.06 187.79 L 5.92 188.44 L 4.71 194.21 L 4.58 194.88 L 3.53 200.70 L 3.41 201.37 L 2.51 207.24 L 2.42 207.91 L 1.66 213.82 L 1.59 214.49 L 0.99 220.45 L 0.93 221.13 L 0.48 227.13 L 0.44 227.81 L 0.16 233.84 L 0.13 234.52 L 0.01 240.59 L 0.00 241.27 L 0.03 247.36 L 0.05 248.05 L 0.24 254.18 L 2.38 263.67 L 7.87 271.70 L 15.95 277.14 L 26.46 279.21 L 28.57 279.18 L 30.66 279.16 L 32.78 279.13 L 34.87 279.10 L 36.96 279.08 L 39.08 279.05 L 43.28 279.01 L 45.38 278.99 L 47.49 278.97 L 49.58 278.95 L 51.65 278.93 L 51.65 278.93 L 53.77 278.92 L 53.79 278.92 L 55.90 278.90 L 58.00 278.89 L 60.09 278.88 L 62.20 278.86 L 64.29 278.85 L 66.39 278.84 L 68.50 278.83 L 70.59 278.83 L 72.71 278.82 L 74.80 278.81 L 76.92 278.81 L 79.01 278.80 L 81.12 278.80 L 83.21 278.80 L 87.40 278.80 L 89.51 278.80 L 91.60 278.80 L 93.70 278.80 L 95.81 278.81 L 97.93 278.82 L 100.02 278.82 L 102.11 278.83 L 104.22 278.84 L 106.32 278.85 L 108.41 278.86 L 110.52 278.87 L 112.64 278.88 L 114.73 278.90 L 116.82 278.91 L 118.94 278.93 L 121.05 278.95 L 121.05 278.94 L 123.12 278.96 L 125.24 278.98 L 127.35 279.00 L 129.44 279.02 L 131.53 279.05 L 133.65 279.07 L 135.74 279.09 L 137.83 279.12 L 139.95 279.15 L 142.06 279.17 L 144.15 279.20 L 146.27 279.23 L 146.27 279.23 L 148.36 279.26 L 150.45 279.29 L 152.57 279.33 L 162.15 277.65 L 170.44 272.54 L 176.25 264.73 L 178.84 253.20 L 178.82 251.72 L 178.81 250.38 L 178.81 250.38 L 178.80 248.93 L 178.80 247.55 L 178.80 246.31 L 178.81 244.89 L 178.82 243.72 L 178.82 243.72 L 178.84 242.43 L 178.87 241.04 L 178.89 239.94 L 178.93 238.79 L 178.97 237.57 L 179.02 236.37 L 179.08 235.27 L 179.15 234.03 L 179.22 233.09 L 179.30 232.00 L 179.39 230.96 L 179.50 229.78 L 179.61 228.76 L 179.72 227.81 L 179.86 226.77 L 180.00 225.78 L 180.11 225.06 L 180.30 223.93 L 180.45 223.09 L 180.64 222.10 L 180.80 221.33 L 180.98 220.53 L 181.21 219.59 L 181.42 218.76 L 181.62 218.04 L 181.87 217.16 L 182.11 216.39 L 182.37 215.59 L 182.62 214.87 L 182.92 214.06 L 183.18 213.39 L 183.52 212.53 L 183.80 211.88 L 184.17 211.06 L 184.49 210.38 L 184.87 209.60 L 185.28 208.81 L 185.66 208.11 L 186.05 207.41 L 186.51 206.63 L 186.93 205.94 L 187.44 205.14 L 187.97 204.33 L 188.44 203.65 L 189.05 202.80 L 189.63 202.02 L 190.21 201.26 L 190.85 200.46 L 191.54 199.62 L 192.24 198.80 L 192.95 197.99 L 193.70 197.17 L 194.42 196.40 L 196.46 194.33 L 198.41 192.51 L 200.37 190.80 L 202.35 189.22 L 204.30 187.78 L 206.25 186.46 L 208.26 185.21 L 210.18 184.13 L 212.18 183.11 L 214.14 182.21 L 216.12 181.40 L 218.08 180.69 L 220.09 180.05 L 222.04 179.53 L 224.02 179.08 L 226.01 178.71 L 227.97 178.44 L 229.99 178.24 L 231.99 178.12 L 233.94 178.08 L 235.99 178.12 L 237.95 178.24 L 239.99 178.45 L 241.96 178.72 L 243.98 179.08 L 245.95 179.51 L 247.96 180.03 L 249.93 180.61 L 251.94 181.29 L 253.84 182.01 L 255.81 182.84 L 257.75 183.74 L 259.63 184.70 L 261.54 185.75 L 263.41 186.87 L 265.21 188.04 L 267.05 189.32 L 268.78 190.61 L 270.52 192.02 L 272.23 193.49 L 273.83 194.98 L 275.49 196.62 L 277.01 198.23 L 278.51 199.94 L 279.98 201.72 L 281.38 203.55 L 282.75 205.47 L 284.02 207.40 L 285.25 209.40 L 286.41 211.45 L 287.51 213.56 L 288.55 215.74 L 289.50 217.91 L 290.40 220.19 L 291.23 222.52 L 291.98 224.90 L 292.63 227.28 L 293.22 229.73 L 293.73 232.27 L 294.19 235.02 L 294.29 235.70 L 294.40 236.54 L 294.50 237.26 L 294.59 238.02 L 294.71 239.01 L 294.78 239.70 L 294.89 240.69 L 294.96 241.39 L 295.05 242.38 L 295.13 243.24 L 295.13 243.24 L 295.19 243.94 L 295.26 244.89 L 295.33 245.84 L 295.40 246.74 L 295.45 247.60 L 295.50 248.36 L 295.55 249.36 L 295.55 249.36 L 295.59 250.17 L 295.64 251.18 L 295.68 251.99 L 295.68 251.99 L 295.72 252.99 L 295.75 253.90 L 295.75 253.90 L 295.78 254.72 L 295.81 255.73 L 295.84 256.69 L 295.88 258.57 L 295.89 259.48 L 295.91 260.39 L 295.92 261.36 L 295.93 262.32 L 295.94 263.19 L 295.94 263.19 L 295.95 265.21 L 295.95 267.14 L 295.95 268.10 L 295.95 270.07 L 295.94 270.99 L 295.94 271.04 L 295.94 272.05 L 295.93 273.01 L 295.93 273.97 L 295.93 274.02 L 295.92 275.02 L 295.91 275.98 L 295.91 276.99 L 295.91 276.99 L 295.90 277.95 L 295.90 278.00 L 295.87 281.01 L 295.87 281.06 L 295.87 282.07 L 295.86 283.02 L 295.86 283.07 L 295.86 284.07 L 295.86 284.12 L 295.85 285.12 L 295.85 286.12 L 295.85 286.17 L 295.85 287.17 L 295.84 288.17 L 295.84 289.26 L 295.85 290.25 L 295.85 290.30 L 295.85 291.30 L 295.85 291.36 L 295.86 293.11 L 295.86 293.13 L 295.87 294.87 L 295.90 298.33 L 295.91 300.04 L 295.91 300.07 L 295.92 301.81 L 295.93 303.53 L 295.93 305.27 L 295.94 306.98 L 295.94 307.01 L 295.95 308.75 L 295.97 312.21 L 295.97 313.95 L 295.98 317.41 L 295.98 317.43 L 295.99 319.18 L 296.00 320.86 L 296.00 320.89 L 296.00 322.63 L 296.01 324.35 L 296.01 324.37 L 296.01 326.12 L 296.01 327.83 L 296.02 329.54 L 296.02 329.57 L 296.02 331.31 L 296.02 333.03 L 296.02 334.77 L 296.03 336.51 L 296.03 338.25 L 296.03 339.99 L 296.03 343.45 L 296.03 345.16 L 296.03 346.93 L 296.02 348.65 L 296.02 352.13 L 296.02 353.85 L 296.02 353.87 L 296.01 355.62 L 296.01 357.33 L 296.01 359.04 L 296.01 359.07 L 296.00 360.81 L 296.00 362.53 L 296.00 362.55 L 295.99 364.30 L 295.99 366.01 L 295.98 367.72 L 295.98 367.75 L 295.97 369.49 L 295.97 371.21 L 295.95 374.69 L 295.94 376.41 L 295.94 376.43 L 295.93 378.18 L 295.93 379.89 L 295.91 381.60 L 295.91 381.63 L 295.91 383.37 L 295.89 385.09 L 295.89 385.11 L 295.89 386.86 L 295.87 388.57 L 295.86 390.28 L 295.86 390.31 L 295.85 392.05 L 295.84 393.77 L 295.82 395.51 L 295.82 395.74 L 296.16 644.59 L 293.84 644.62 L 290.36 644.66 L 286.87 644.70 L 283.39 644.73 L 283.39 644.73 L 279.85 644.76 L 276.31 644.79 L 272.80 644.81 L 269.25 644.83 L 265.72 644.85 L 262.16 644.86 L 258.62 644.87 L 255.06 644.87 L 251.49 644.88 L 247.94 644.88 L 244.38 644.88 L 240.79 644.87 L 237.22 644.86 L 233.64 644.85 L 230.05 644.84 L 226.46 644.82 L 222.88 644.81 L 219.27 644.79 L 215.68 644.77 L 212.09 644.75 L 208.51 644.72 L 204.90 644.69 L 204.89 644.69 L 201.31 644.67 L 194.10 644.61 L 194.10 644.61 L 190.53 644.58 L 186.93 644.55 L 183.33 644.51 L 179.75 644.48 L 176.16 644.44 L 172.57 644.41 L 169.00 644.37 L 165.43 644.34 L 165.41 644.34 L 161.85 644.30 L 158.28 644.26 L 154.71 644.23 L 154.70 644.23 L 151.16 644.19 L 147.60 644.16 L 147.59 644.16 L 144.04 644.12 L 140.50 644.09 L 136.97 644.05 L 133.44 644.02 L 133.43 644.02 L 129.91 643.98 L 129.89 643.98 L 126.38 643.95 L 122.88 643.92 L 119.38 643.89 L 119.37 643.89 L 115.89 643.86 L 115.87 643.86 L 112.39 643.83 L 112.38 643.83 L 108.91 643.80 L 99.34 645.56 L 91.09 650.74 L 85.34 658.59 L 82.85 669.31 L 82.82 671.41 L 82.83 671.41 L 82.79 673.50 L 82.79 673.55 L 82.77 675.67 L 82.74 677.77 L 82.71 679.90 L 82.71 679.93 L 82.68 682.07 L 82.65 684.21 L 82.65 684.24 L 82.62 686.39 L 82.60 688.52 L 82.60 688.54 L 82.57 690.71 L 82.57 690.73 L 82.55 692.90 L 82.52 695.05 L 82.52 695.09 L 82.50 697.27 L 82.48 699.43 L 82.48 699.45 L 82.45 701.63 L 82.45 701.65 L 82.43 703.84 L 82.41 706.03 L 82.39 708.23 L 82.39 708.25 L 82.37 710.45 L 82.35 712.65 L 82.35 712.67 L 82.34 714.87 L 82.34 714.90 L 82.32 717.10 L 82.29 721.52 L 82.29 721.56 L 82.28 723.77 L 82.26 728.19 L 82.26 728.22 L 82.25 730.43 L 82.25 730.45 L 82.24 732.66 L 82.24 732.68 L 82.23 737.11 L 82.23 737.13 L 82.23 739.34 L 82.23 739.37 L 82.23 741.58 L 82.23 746.04 L 82.23 748.25 L 82.23 748.27 L 82.23 750.48 L 82.23 750.50 L 82.24 754.91 L 82.24 754.95 L 82.26 759.35 L 82.26 759.39 L 82.27 761.59 L 82.29 763.78 L 82.29 763.80 L 82.30 765.99 L 82.30 766.03 L 82.32 768.22 L 82.34 770.40 L 82.34 770.42 L 82.36 772.60 L 82.36 772.62 L 82.38 774.79 L 82.38 774.81 L 82.41 776.98 L 82.41 777.02 L 82.43 779.19 L 82.46 781.34 L 82.46 781.39 L 82.49 783.54 L 82.53 785.68 L 82.53 785.73 L 82.56 787.87 L 82.56 787.89 L 82.60 790.03 L 82.60 790.05 L 82.64 792.18 L 82.64 792.20 L 82.68 794.32 L 82.68 794.34 L 82.72 796.46 L 82.72 796.50 L 82.77 798.61 L 82.77 798.63 L 82.82 800.73 L 84.87 810.24 L 90.29 818.33 L 98.31 823.84 L 108.66 826.01 L 295.69 826.17 L 296.26 1113.44 L 296.07 1192.55 L 296.07 1193.91 L 296.06 1195.24 L 296.05 1196.63 L 296.04 1197.99 L 296.03 1199.38 L 296.03 1199.38 L 296.02 1200.73 L 296.00 1202.11 L 295.99 1203.45 L 295.99 1203.48 L 295.98 1204.85 L 295.96 1206.23 L 295.95 1207.59 L 295.94 1208.96 L 295.93 1208.99 L 295.92 1210.35 L 295.91 1211.71 L 295.91 1211.75 L 295.90 1213.11 L 295.90 1213.14 L 295.90 1214.50 L 295.90 1214.53 L 295.89 1215.89 L 295.89 1215.92 L 295.89 1217.27 L 295.89 1217.31 L 295.89 1218.66 L 295.89 1220.11 L 295.89 1221.45 L 295.89 1221.49 L 295.89 1222.84 L 295.89 1222.91 L 295.90 1224.25 L 295.91 1224.32 L 295.92 1225.66 L 295.92 1225.74 L 295.93 1227.08 L 295.94 1227.15 L 295.96 1228.49 L 295.96 1228.60 L 295.98 1229.94 L 295.98 1229.97 L 296.01 1231.31 L 296.01 1231.42 L 296.05 1232.76 L 296.05 1232.83 L 296.09 1234.17 L 296.09 1234.31 L 296.14 1235.65 L 296.14 1235.72 L 296.19 1237.05 L 296.19 1237.16 L 296.24 1238.50 L 296.25 1238.61 L 296.31 1239.94 L 296.31 1240.05 L 296.38 1241.39 L 296.38 1241.53 L 296.46 1242.87 L 296.46 1242.98 L 296.54 1244.32 L 296.55 1244.42 L 296.63 1245.76 L 296.64 1245.90 L 296.73 1247.24 L 296.74 1247.42 L 296.84 1248.76 L 296.85 1248.86 L 296.95 1250.20 L 296.97 1250.34 L 297.08 1251.69 L 297.09 1251.83 L 297.21 1253.17 L 297.23 1253.35 L 297.36 1254.69 L 297.37 1254.83 L 297.51 1256.18 L 297.52 1256.32 L 297.66 1257.67 L 297.69 1257.87 L 297.84 1259.22 L 297.86 1259.35 L 298.02 1260.71 L 298.04 1260.88 L 298.21 1262.23 L 298.23 1262.40 L 298.41 1263.76 L 298.44 1263.92 L 298.63 1265.28 L 298.66 1265.48 L 298.86 1266.85 L 298.88 1267.01 L 299.09 1268.37 L 299.12 1268.56 L 299.35 1269.93 L 299.37 1270.10 L 299.60 1271.47 L 299.64 1271.65 L 299.88 1273.03 L 299.91 1273.22 L 300.16 1274.60 L 300.20 1274.79 L 300.46 1276.17 L 300.50 1276.35 L 300.77 1277.74 L 300.82 1277.95 L 301.11 1279.34 L 301.17 1279.66 L 301.59 1281.55 L 301.64 1281.78 L 302.08 1283.67 L 302.12 1283.87 L 302.57 1285.75 L 302.64 1286.00 L 303.10 1287.88 L 303.16 1288.10 L 303.64 1289.97 L 303.70 1290.18 L 304.20 1292.04 L 304.26 1292.29 L 304.78 1294.15 L 304.84 1294.35 L 305.37 1296.21 L 305.44 1296.43 L 305.98 1298.28 L 306.05 1298.51 L 306.62 1300.35 L 306.69 1300.58 L 307.27 1302.41 L 307.34 1302.65 L 307.94 1304.48 L 308.01 1304.67 L 308.62 1306.50 L 308.70 1306.73 L 309.33 1308.55 L 309.40 1308.76 L 310.05 1310.57 L 310.13 1310.79 L 310.79 1312.60 L 310.87 1312.82 L 311.55 1314.62 L 311.63 1314.83 L 312.32 1316.62 L 312.41 1316.85 L 313.12 1318.64 L 313.20 1318.83 L 313.92 1320.61 L 314.02 1320.84 L 314.76 1322.61 L 314.84 1322.81 L 315.59 1324.58 L 315.70 1324.81 L 316.47 1326.57 L 316.56 1326.76 L 317.34 1328.52 L 317.45 1328.75 L 318.25 1330.49 L 318.33 1330.67 L 319.15 1332.40 L 319.26 1332.65 L 320.10 1334.38 L 320.19 1334.57 L 321.04 1336.29 L 321.14 1336.50 L 322.01 1338.22 L 322.10 1338.40 L 322.98 1340.11 L 323.09 1340.33 L 323.99 1342.03 L 324.11 1342.25 L 325.02 1343.95 L 325.11 1344.11 L 326.03 1345.79 L 326.15 1346.01 L 327.09 1347.68 L 327.21 1347.89 L 328.16 1349.55 L 328.27 1349.74 L 329.24 1351.40 L 329.37 1351.62 L 330.35 1353.27 L 330.47 1353.47 L 331.47 1355.11 L 331.58 1355.28 L 332.59 1356.91 L 332.72 1357.13 L 333.75 1358.76 L 333.87 1358.94 L 334.91 1360.55 L 335.03 1360.74 L 336.09 1362.34 L 336.23 1362.55 L 337.30 1364.15 L 337.42 1364.33 L 338.51 1365.92 L 338.65 1366.12 L 339.75 1367.70 L 339.87 1367.87 L 340.99 1369.44 L 341.13 1369.64 L 342.26 1371.20 L 342.39 1371.38 L 343.54 1372.93 L 343.67 1373.12 L 344.83 1374.66 L 344.96 1374.83 L 346.13 1376.36 L 346.28 1376.56 L 347.47 1378.08 L 347.61 1378.26 L 348.81 1379.77 L 348.96 1379.95 L 350.17 1381.45 L 350.32 1381.63 L 351.54 1383.12 L 351.69 1383.29 L 352.93 1384.77 L 353.08 1384.95 L 354.34 1386.42 L 354.49 1386.59 L 355.76 1388.05 L 355.91 1388.22 L 357.19 1389.67 L 357.35 1389.86 L 358.65 1391.29 L 358.80 1391.46 L 360.11 1392.89 L 360.32 1393.12 L 362.41 1395.33 L 362.64 1395.57 L 364.74 1397.75 L 364.96 1397.97 L 367.07 1400.11 L 367.29 1400.33 L 369.42 1402.43 L 369.66 1402.67 L 371.81 1404.73 L 372.04 1404.95 L 374.20 1406.98 L 374.44 1407.20 L 376.61 1409.19 L 376.86 1409.42 L 379.05 1411.37 L 379.30 1411.59 L 381.50 1413.50 L 381.75 1413.71 L 383.96 1415.58 L 384.24 1415.82 L 386.47 1417.65 L 386.73 1417.86 L 388.97 1419.66 L 389.25 1419.88 L 391.52 1421.64 L 391.78 1421.85 L 394.06 1423.57 L 394.34 1423.79 L 396.63 1425.48 L 396.92 1425.69 L 399.22 1427.34 L 399.52 1427.55 L 401.84 1429.16 L 402.12 1429.35 L 404.45 1430.93 L 404.76 1431.14 L 407.11 1432.68 L 407.41 1432.87 L 409.78 1434.37 L 410.09 1434.57 L 412.47 1436.04 L 412.76 1436.22 L 415.16 1437.65 L 415.48 1437.84 L 417.90 1439.24 L 418.20 1439.41 L 420.63 1440.77 L 420.95 1440.95 L 423.39 1442.28 L 423.71 1442.45 L 426.17 1443.74 L 426.50 1443.90 L 428.97 1445.16 L 429.30 1445.32 L 431.79 1446.53 L 432.11 1446.69 L 434.61 1447.87 L 434.94 1448.02 L 437.46 1449.17 L 437.79 1449.32 L 440.32 1450.43 L 440.66 1450.57 L 443.21 1451.65 L 443.54 1451.79 L 446.11 1452.83 L 446.44 1452.96 L 449.03 1453.97 L 449.36 1454.10 L 451.96 1455.07 L 452.30 1455.19 L 454.92 1456.13 L 455.24 1456.24 L 457.87 1457.14 L 458.21 1457.26 L 460.86 1458.13 L 461.20 1458.23 L 463.86 1459.07 L 464.19 1459.17 L 466.87 1459.97 L 467.21 1460.06 L 469.90 1460.83 L 470.23 1460.92 L 472.94 1461.65 L 473.28 1461.74 L 476.01 1462.44 L 476.32 1462.51 L 479.06 1463.18 L 479.42 1463.26 L 482.18 1463.89 L 482.48 1463.96 L 485.26 1464.55 L 485.59 1464.62 L 488.38 1465.18 L 488.72 1465.25 L 491.53 1465.78 L 491.84 1465.83 L 494.67 1466.33 L 494.97 1466.38 L 497.82 1466.84 L 498.15 1466.90 L 501.01 1467.32 L 501.31 1467.37 L 504.19 1467.76 L 504.50 1467.80 L 507.40 1468.17 L 507.70 1468.21 L 510.62 1468.54 L 510.90 1468.57 L 513.83 1468.87 L 514.14 1468.90 L 517.08 1469.16 L 517.39 1469.19 L 520.35 1469.42 L 520.63 1469.44 L 523.62 1469.64 L 523.91 1469.66 L 526.91 1469.83 L 527.19 1469.84 L 530.20 1469.98 L 531.94 1470.00 L 534.83 1469.94 L 535.15 1469.93 L 538.03 1469.83 L 538.35 1469.82 L 541.22 1469.68 L 541.55 1469.67 L 544.40 1469.50 L 544.73 1469.48 L 547.57 1469.27 L 547.90 1469.25 L 550.73 1469.01 L 551.06 1468.98 L 553.88 1468.71 L 554.21 1468.67 L 557.01 1468.36 L 557.33 1468.33 L 560.12 1467.99 L 560.47 1467.94 L 563.25 1467.56 L 563.57 1467.52 L 566.33 1467.10 L 566.67 1467.05 L 569.42 1466.61 L 569.75 1466.55 L 572.48 1466.07 L 572.84 1466.01 L 575.56 1465.49 L 575.89 1465.43 L 578.60 1464.87 L 578.92 1464.81 L 581.62 1464.22 L 581.98 1464.14 L 584.66 1463.52 L 584.99 1463.44 L 587.66 1462.79 L 587.98 1462.71 L 590.64 1462.02 L 590.98 1461.93 L 593.63 1461.21 L 593.95 1461.12 L 596.58 1460.36 L 596.92 1460.26 L 599.54 1459.47 L 599.88 1459.36 L 602.48 1458.54 L 602.80 1458.43 L 605.39 1457.57 L 605.72 1457.46 L 608.29 1456.57 L 608.61 1456.46 L 611.17 1455.53 L 611.51 1455.41 L 614.06 1454.45 L 614.38 1454.32 L 616.91 1453.33 L 617.24 1453.20 L 619.76 1452.17 L 620.08 1452.03 L 622.58 1450.97 L 622.90 1450.83 L 625.39 1449.74 L 625.70 1449.60 L 628.18 1448.47 L 628.50 1448.32 L 630.96 1447.16 L 631.26 1447.01 L 633.71 1445.82 L 634.03 1445.66 L 636.46 1444.43 L 636.75 1444.28 L 639.17 1443.02 L 639.49 1442.85 L 641.89 1441.55 L 642.19 1441.39 L 644.58 1440.06 L 644.87 1439.89 L 647.24 1438.53 L 647.54 1438.35 L 649.90 1436.96 L 650.19 1436.79 L 652.53 1435.36 L 652.82 1435.18 L 655.15 1433.71 L 655.43 1433.53 L 657.75 1432.04 L 658.02 1431.86 L 660.32 1430.33 L 660.61 1430.14 L 662.89 1428.58 L 663.15 1428.40 L 665.42 1426.81 L 665.71 1426.60 L 667.96 1424.97 L 668.22 1424.79 L 670.46 1423.13 L 670.72 1422.93 L 672.94 1421.24 L 673.20 1421.04 L 675.41 1419.32 L 675.67 1419.11 L 677.86 1417.35 L 678.10 1417.16 L 680.28 1415.37 L 680.53 1415.16 L 682.70 1413.34 L 682.94 1413.13 L 685.09 1411.27 L 685.31 1411.07 L 687.45 1409.19 L 687.68 1408.98 L 689.80 1407.06 L 690.03 1406.85 L 692.13 1404.90 L 692.35 1404.68 L 694.44 1402.70 L 694.65 1402.50 L 696.72 1400.48 L 696.95 1400.26 L 699.00 1398.21 L 699.03 1398.18 L 700.66 1396.55 L 700.86 1396.35 L 702.47 1394.70 L 702.66 1394.51 L 704.25 1392.85 L 704.46 1392.62 L 706.03 1390.94 L 706.21 1390.75 L 707.76 1389.06 L 707.96 1388.83 L 709.49 1387.13 L 709.68 1386.92 L 711.19 1385.19 L 711.39 1384.97 L 712.87 1383.23 L 713.05 1383.02 L 714.52 1381.26 L 714.71 1381.04 L 716.16 1379.27 L 716.34 1379.04 L 717.77 1377.26 L 717.94 1377.04 L 719.35 1375.24 L 719.53 1375.01 L 720.91 1373.19 L 721.09 1372.97 L 722.45 1371.14 L 722.61 1370.92 L 723.96 1369.08 L 724.14 1368.83 L 725.46 1366.97 L 725.63 1366.74 L 726.93 1364.87 L 727.08 1364.65 L 728.36 1362.77 L 728.53 1362.52 L 729.79 1360.62 L 729.95 1360.40 L 731.19 1358.48 L 731.34 1358.24 L 732.56 1356.32 L 732.72 1356.07 L 733.92 1354.13 L 734.06 1353.90 L 735.24 1351.95 L 735.38 1351.71 L 736.53 1349.75 L 736.68 1349.50 L 737.81 1347.52 L 737.95 1347.28 L 739.06 1345.30 L 739.20 1345.05 L 740.29 1343.05 L 740.43 1342.79 L 741.50 1340.78 L 741.62 1340.55 L 742.66 1338.53 L 742.80 1338.27 L 743.82 1336.24 L 743.95 1335.98 L 744.95 1333.93 L 745.07 1333.69 L 746.05 1331.63 L 746.17 1331.37 L 747.13 1329.31 L 747.24 1329.05 L 748.17 1326.98 L 748.29 1326.73 L 749.20 1324.64 L 749.32 1324.37 L 750.20 1322.27 L 750.30 1322.03 L 751.17 1319.92 L 751.28 1319.64 L 752.13 1317.53 L 752.22 1317.28 L 753.04 1315.16 L 753.15 1314.87 L 753.95 1312.73 L 754.04 1312.48 L 754.81 1310.33 L 754.90 1310.08 L 755.65 1307.92 L 755.74 1307.65 L 756.47 1305.49 L 756.57 1305.21 L 757.27 1303.04 L 757.35 1302.77 L 758.03 1300.59 L 758.11 1300.34 L 758.76 1298.15 L 758.85 1297.85 L 759.48 1295.66 L 759.55 1295.40 L 760.16 1293.20 L 760.24 1292.93 L 760.82 1290.72 L 760.89 1290.44 L 761.45 1288.22 L 761.52 1287.93 L 762.06 1285.70 L 762.12 1285.45 L 762.63 1283.22 L 762.70 1282.92 L 763.18 1280.68 L 763.23 1280.43 L 763.70 1278.18 L 763.76 1277.86 L 764.20 1275.61 L 764.25 1275.36 L 764.66 1273.10 L 764.71 1272.81 L 765.10 1270.54 L 765.15 1270.26 L 765.51 1267.99 L 765.55 1267.70 L 765.89 1265.42 L 765.93 1265.15 L 766.25 1262.86 L 766.30 1262.46 L 766.39 1261.70 L 766.40 1261.58 L 766.49 1260.82 L 766.50 1260.76 L 766.59 1260.00 L 766.60 1259.88 L 766.69 1259.12 L 766.70 1258.99 L 766.78 1258.23 L 766.79 1258.12 L 766.87 1257.36 L 766.87 1257.29 L 766.95 1256.53 L 766.96 1256.41 L 767.03 1255.65 L 767.03 1255.59 L 767.10 1254.83 L 767.11 1254.71 L 767.18 1253.95 L 767.18 1253.88 L 767.24 1253.12 L 767.26 1253.00 L 767.32 1252.24 L 767.32 1252.18 L 767.38 1251.42 L 767.39 1251.29 L 767.44 1250.53 L 767.44 1250.48 L 767.49 1249.72 L 767.50 1249.59 L 767.55 1248.83 L 767.60 1248.08 L 767.61 1247.95 L 767.65 1247.19 L 767.66 1247.07 L 767.70 1246.31 L 767.70 1246.30 L 767.74 1245.54 L 767.75 1245.42 L 767.78 1244.66 L 767.79 1244.60 L 767.82 1243.84 L 767.83 1243.78 L 767.86 1243.02 L 767.86 1242.96 L 767.89 1242.20 L 767.89 1242.14 L 767.92 1241.38 L 767.93 1241.32 L 767.95 1240.56 L 767.96 1240.49 L 767.98 1239.73 L 767.98 1239.67 L 768.01 1238.91 L 768.01 1238.85 L 768.03 1238.09 L 768.03 1238.03 L 768.05 1237.27 L 768.06 1237.21 L 768.07 1236.45 L 768.08 1236.38 L 768.11 1234.86 L 768.11 1234.80 L 768.12 1234.04 L 768.13 1233.98 L 768.14 1233.22 L 768.14 1233.16 L 768.16 1231.64 L 768.16 1231.58 L 768.17 1230.82 L 768.17 1230.75 L 768.18 1229.99 L 768.19 1229.23 L 768.19 1229.17 L 768.20 1227.65 L 768.20 1227.59 L 768.20 1226.83 L 768.21 1226.07 L 768.21 1226.01 L 768.21 1225.24 L 768.21 1224.48 L 768.21 1223.72 L 768.21 1220.55 L 768.21 1219.03 L 768.21 1218.27 L 768.21 1217.51 L 768.20 1216.74 L 768.20 1215.98 L 768.20 1215.92 L 768.20 1215.16 L 768.19 1213.69 L 766.34 1204.14 L 761.09 1195.94 L 753.18 1190.27 L 741.88 1187.89 L 739.86 1187.93 L 737.84 1187.96 L 735.84 1187.99 L 733.86 1188.03 L 733.86 1188.02 L 731.82 1188.05 L 729.77 1188.08 L 727.72 1188.11 L 725.70 1188.14 L 723.63 1188.16 L 721.56 1188.19 L 719.53 1188.21 L 719.51 1188.21 L 717.43 1188.24 L 715.38 1188.26 L 713.29 1188.28 L 711.22 1188.30 L 709.14 1188.31 L 709.14 1188.31 L 707.03 1188.33 L 702.84 1188.36 L 700.72 1188.37 L 698.65 1188.38 L 696.53 1188.40 L 694.41 1188.41 L 692.31 1188.42 L 690.21 1188.42 L 688.10 1188.43 L 688.08 1188.43 L 685.95 1188.44 L 681.74 1188.44 L 679.63 1188.45 L 677.50 1188.45 L 673.29 1188.45 Z" fill="#0D0D0D"/></g>
      <g transform="translate(2640.87,0)"><path d="M583.6663818359375 -30.0Q747.4994506835938 -30.0 871.3324584960938 41.083282470703125Q995.1654663085938 112.16656494140625 1064.7485656738281 238.08328247070312Q1134.3316650390625 364 1134.3316650390625 528.3336181640625Q1134.3316650390625 705.3336181640625 1066.0818786621094 835.8335571289062Q997.8320922851562 966.33349609375 876.9156799316406 1038.166748046875Q755.999267578125 1110.0 596.9993896484375 1110.0Q429.49969482421875 1110.0 311.9998779296875 1031.6668701171875Q194.50006103515625 953.333740234375 137.25003051757812 810.333984375Q80.0 667.334228515625 94.16632080078125 472.667724609375H333.329345703125V560.666259765625Q334.3294677734375 737.0009765625 395.33050537109375 818.168701171875Q456.33154296875 899.33642578125 586.9996337890625 899.33642578125Q734.8340454101562 899.33642578125 807.0848693847656 807.6688842773438Q879.335693359375 716.0013427734375 879.335693359375 540.0Q879.335693359375 375.6650390625 807.0848693847656 285.66412353515625Q734.8340454101562 195.6632080078125 596.9993896484375 195.6632080078125Q507.998291015625 195.6632080078125 443.6640625 235.3304443359375Q379.329833984375 274.9976806640625 344.3292236328125 349.6654052734375L106.0 277.99951171875Q167.83343505859375 131.6663818359375 297.5832214355469 50.83319091796875Q427.3330078125 -30.0 583.6663818359375 -30.0ZM955.334716796875 472.667724609375V654.9986572265625H211.998046875V472.667724609375Z" fill="#0D0D0D"/></g>
      <g transform="translate(3685.21,0)"><path d="M748.3302001953125 0V1080H535.33349609375V817.0001220703125L561.33349609375 851.0001220703125Q541.000244140625 904.9998779296875 507.50042724609375 949.6663818359375Q474.0006103515625 994.3328857421875 427.33447265625 1023.332763671875Q387.50103759765625 1050.4998168945312 339.0840759277344 1065.5Q290.6671142578125 1080.5001831054688 239.6668701171875 1084.0001831054688Q188.6666259765625 1087.5001831054688 140.0 1080.0V855.0035400390625Q188.6671142578125 869.1702270507812 250.75076293945312 863.8367919921875Q312.83441162109375 858.5033569335938 363.6680908203125 829.3359375Q413.16827392578125 802.1686401367188 444.5847473144531 760.2513122558594Q476.001220703125 718.333984375 491.0009765625 664.83349609375Q506.000732421875 611.3330078125 506.000732421875 548.666259765625V0.0Z" fill="#0D0D0D"/></g>
      <g transform="translate(4345.20,0)"><path d="M887.0013427734375 0V520.3345947265625Q887.0013427734375 570.5028686523438 879.7509460449219 632.50341796875Q872.5005493164062 694.5039672851562 847.3333740234375 752.0872497558594Q822.1661987304688 809.6705322265625 771.6658325195312 846.6702880859375Q721.1654663085938 883.6700439453125 634.66552734375 883.6700439453125Q588.99755859375 883.6700439453125 544.0802917480469 868.7528991699219Q499.16302490234375 853.8357543945312 462.82952880859375 817.5851745605469Q426.49603271484375 781.3345947265625 404.4127502441406 717.5009155273438Q382.3294677734375 653.667236328125 382.3294677734375 555.0008544921875L239.3310546875 616.3326416015625Q239.3310546875 753.8338012695312 292.83123779296875 866.0838317871094Q346.3314208984375 978.3338623046875 450.1646728515625 1044.5001831054688Q553.9979248046875 1110.66650390625 706.3304443359375 1110.66650390625Q825.8295288085938 1110.66650390625 903.9126281738281 1071.000244140625Q981.9957275390625 1031.333984375 1027.9959106445312 969.0844421386719Q1073.99609375 906.8348999023438 1095.9964599609375 836.7517395019531Q1117.996826171875 766.6685791015625 1124.4971313476562 704.0848083496094Q1130.9974365234375 641.5010375976562 1130.9974365234375 602.9996337890625V0ZM138.3333740234375 0V1080H352.9967041015625V745.0028076171875H382.3294677734375V0Z" fill="#0D0D0D"/></g>
      <g transform="translate(5446.20,0)"><path d="M442.3336181640625 -30Q324.666748046875 -30 243.75003051757812 14.416656494140625Q162.83331298828125 58.83331298828125 121.41665649414062 132.91659545898438Q80 206.9998779296875 80 295.999755859375Q80 374.33349609375 106.08370971679688 436.4168395996094Q132.16741943359375 498.50018310546875 186.25106811523438 544.0832824707031Q240.334716796875 589.6663818359375 325.6678466796875 618.9993896484375Q391.335205078125 640.4993286132812 478.4190368652344 657.0826110839844Q565.5028686523438 673.6658935546875 668.1692504882812 688.2491149902344Q770.8356323242188 702.8323364257812 883.333984375 719.6654052734375L796.668701171875 671.332763671875Q797.5021362304688 783.1680297851562 746.7515563964844 836.2523498535156Q696.0009765625 889.336669921875 574.666015625 889.336669921875Q501.997802734375 889.336669921875 434.0807800292969 855.0860290527344Q366.16375732421875 820.8353881835938 338.9969482421875 738.3343505859375L118.666748046875 807.333251953125Q158.83331298828125 944.000244140625 271.5832824707031 1027.0001220703125Q384.333251953125 1110 575.332763671875 1110Q719.4995727539062 1110 828.666015625 1063.1663208007812Q937.8324584960938 1016.3326416015625 991.33203125 908.9993896484375Q1020.3316650390625 852.3331298828125 1026.3316650390625 792.8331909179688Q1032.3316650390625 733.333251953125 1032.3316650390625 662.6669921875V0H821.0015869140625V234.3348388671875L856.001708984375 195.6690673828125Q783.00244140625 79.16815185546875 685.4183654785156 24.584075927734375Q587.8342895507812 -30 442.3336181640625 -30ZM489.9990234375 162.3306884765625Q571.9998779296875 162.3306884765625 629.833984375 191.41433715820312Q687.6680908203125 220.49798583984375 722.3352661132812 262.0822448730469Q757.00244140625 303.66650390625 768.669189453125 341.3349609375Q787.5022583007812 387.335205078125 790.4188537597656 446.7519836425781Q793.33544921875 506.16876220703125 793.33544921875 543.335205078125L867.334716796875 521.0015869140625Q757.66943359375 503.50189208984375 679.5857238769531 490.8353271484375Q601.5020141601562 478.16876220703125 545.8341674804688 466.7520446777344Q490.16632080078125 455.3353271484375 446.9986572265625 441.0018310546875Q405.49847412109375 425.6685791015625 376.4145812988281 405.9184265136719Q347.3306884765625 386.16827392578125 331.8302001953125 360.0010986328125Q316.3297119140625 333.83392333984375 316.3297119140625 298.9996337890625Q316.3297119140625 259.49932861328125 336.0798645019531 228.58212280273438Q355.83001708984375 197.6649169921875 394.4139099121094 179.997802734375Q432.997802734375 162.3306884765625 489.9990234375 162.3306884765625Z" fill="#0D0D0D"/></g>
    </g>
  </g>
</svg>