<svg xmlns="http://www.w3.org/2000/svg" viewBox="-120.0 -51.8 9187.8 2037.5">
  <path d="M 367.50,48.25 L 1837.50,48.25 L 1837.50,1518.25 A 367.50,367.50 0 0,1 1470.00,1885.75 L 0.00,1885.75 L 0.00,415.75 A 367.50,367.50 0 0,1 367.50,48.25 Z" fill="#FFFFFF"/>
  <g transform="translate(508.7688,232.0000)">
    <path d="M 818.98 217.23 L 819.10 218.74 L 819.10 218.74 L 819.16 219.50 L 819.17 219.63 L 819.27 221.15 L 819.27 221.15 L 819.32 221.91 L 819.33 222.03 L 819.37 222.79 L 819.42 223.55 L 819.46 224.30 L 819.47 224.43 L 819.50 225.13 L 819.54 225.89 L 819.55 226.01 L 819.59 226.77 L 819.62 227.53 L 819.65 228.29 L 819.65 228.35 L 819.68 229.11 L 819.69 229.17 L 819.71 229.93 L 819.74 230.69 L 819.74 230.76 L 819.76 231.51 L 819.78 232.27 L 819.81 233.03 L 819.81 233.09 L 819.84 234.61 L 819.84 234.68 L 819.86 235.44 L 819.87 236.19 L 819.88 236.26 L 819.89 237.02 L 819.88 237.02 L 819.90 237.71 L 819.90 237.84 L 819.91 238.53 L 819.92 239.29 L 819.92 239.36 L 819.93 240.12 L 819.94 241.64 L 819.94 241.70 L 819.95 242.46 L 819.95 243.22 L 819.95 243.98 L 819.96 244.74 L 819.96 245.56 L 819.96 246.26 L 819.96 248.67 L 819.96 249.43 L 819.96 250.95 L 819.95 251.72 L 819.95 252.48 L 819.95 253.24 L 819.95 254.00 L 819.95 254.77 L 819.94 255.53 L 819.94 256.23 L 816.28 265.79 L 805.81 274.00 L 790.02 279.69 L 766.40 282.08 L 762.38 282.01 L 762.38 282.01 L 760.55 281.98 L 758.61 281.95 L 756.57 281.92 L 754.52 281.89 L 752.67 281.86 L 752.67 281.87 L 750.61 281.84 L 746.48 281.79 L 744.58 281.77 L 744.49 281.77 L 742.41 281.74 L 738.51 281.70 L 738.51 281.71 L 736.41 281.69 L 734.31 281.67 L 732.39 281.65 L 732.39 281.65 L 730.29 281.64 L 726.06 281.61 L 726.06 281.61 L 724.12 281.60 L 719.88 281.58 L 717.94 281.57 L 717.94 281.57 L 715.81 281.56 L 713.78 281.56 L 713.69 281.56 L 711.56 281.55 L 707.48 281.54 L 703.32 281.54 L 699.23 281.54 L 697.20 281.54 L 695.07 281.54 L 692.95 281.55 L 691.00 281.55 L 688.88 281.56 L 688.79 281.56 L 686.67 281.56 L 686.67 281.56 L 684.74 281.57 L 684.65 281.57 L 682.53 281.58 L 678.49 281.60 L 676.48 281.61 L 674.48 281.62 L 672.38 281.64 L 670.29 281.65 L 668.20 281.67 L 666.30 281.69 L 666.21 281.69 L 664.23 281.70 L 662.16 281.72 L 662.16 281.72 L 660.19 281.74 L 658.22 281.76 L 658.22 281.76 L 656.17 281.78 L 654.13 281.80 L 652.19 281.83 L 650.16 281.85 L 648.23 281.87 L 646.31 281.90 L 646.31 281.90 L 644.30 281.93 L 625.09 280.36 L 608.40 275.35 L 596.59 267.62 L 591.15 256.32 L 591.12 254.78 L 591.08 253.28 L 591.04 251.82 L 591.00 250.34 L 590.95 248.89 L 590.89 247.43 L 590.83 246.03 L 590.76 244.62 L 590.68 243.21 L 590.60 241.81 L 590.51 240.45 L 590.51 240.45 L 590.41 239.07 L 590.30 237.84 L 590.17 236.40 L 590.04 235.08 L 589.90 233.73 L 589.76 232.45 L 589.61 231.27 L 589.60 231.27 L 589.42 229.87 L 589.24 228.62 L 589.07 227.53 L 588.84 226.15 L 588.63 224.93 L 588.43 223.86 L 588.15 222.51 L 587.90 221.31 L 587.63 220.12 L 587.39 219.13 L 587.05 217.80 L 586.80 216.86 L 586.80 216.86 L 586.42 215.54 L 586.09 214.42 L 585.80 213.51 L 585.45 212.45 L 585.00 211.15 L 584.60 210.06 L 584.20 209.02 L 583.79 208.00 L 583.43 207.15 L 582.94 206.03 L 582.52 205.11 L 581.92 203.87 L 581.55 203.13 L 580.90 201.89 L 580.43 201.03 L 579.97 200.21 L 579.41 199.27 L 578.67 198.05 L 578.26 197.42 L 577.46 196.21 L 577.01 195.55 L 576.16 194.36 L 575.61 193.63 L 574.78 192.54 L 574.27 191.90 L 573.45 190.91 L 572.63 189.95 L 571.93 189.15 L 571.16 188.31 L 570.50 187.61 L 568.88 185.98 L 567.55 184.71 L 566.07 183.39 L 564.79 182.31 L 563.37 181.20 L 562.09 180.25 L 560.92 179.44 L 559.74 178.68 L 558.64 178.03 L 557.63 177.46 L 557.54 177.41 L 557.04 177.67 L 556.01 178.25 L 554.96 178.89 L 553.81 179.63 L 552.69 180.40 L 551.46 181.31 L 550.22 182.30 L 548.97 183.33 L 547.70 184.46 L 546.36 185.73 L 545.04 187.05 L 543.76 188.41 L 542.51 189.83 L 541.15 191.47 L 539.86 193.13 L 538.66 194.77 L 537.38 196.61 L 536.15 198.53 L 535.05 200.34 L 534.27 201.71 L 533.71 202.73 L 533.16 203.77 L 532.52 205.03 L 531.94 206.22 L 531.39 207.41 L 530.87 208.58 L 530.35 209.82 L 529.95 210.81 L 529.50 211.98 L 529.06 213.16 L 528.57 214.57 L 528.19 215.73 L 527.88 216.74 L 527.53 217.93 L 527.14 219.34 L 526.87 220.35 L 526.57 221.57 L 526.25 222.99 L 525.98 224.23 L 525.77 225.25 L 525.51 226.67 L 525.32 227.79 L 525.09 229.21 L 524.90 230.46 L 524.73 231.72 L 524.57 233.02 L 524.42 234.31 L 524.30 235.58 L 524.18 236.91 L 524.07 238.21 L 523.98 239.42 L 523.89 240.86 L 523.89 240.86 L 523.82 242.11 L 523.75 243.56 L 523.69 244.91 L 523.65 246.20 L 523.65 246.26 L 523.64 246.30 L 523.61 247.66 L 523.60 247.66 L 523.58 249.03 L 523.55 250.36 L 523.56 250.36 L 523.54 251.84 L 523.53 253.28 L 523.52 254.73 L 523.53 256.11 L 523.53 257.57 L 523.54 259.00 L 523.55 260.50 L 523.57 261.97 L 523.59 263.48 L 523.60 264.99 L 523.62 266.51 L 523.64 268.03 L 523.64 268.03 L 523.66 269.56 L 523.68 271.10 L 523.68 271.13 L 523.69 272.67 L 523.71 274.22 L 523.71 274.28 L 523.72 275.83 L 523.72 277.39 L 523.72 280.60 L 523.62 366.13 L 523.57 643.74 L 684.36 644.10 L 703.47 645.98 L 719.83 651.25 L 731.14 659.17 L 735.87 669.99 L 735.72 799.84 L 732.04 809.39 L 721.57 817.60 L 705.77 823.28 L 684.00 825.69 L 523.60 825.71 L 523.57 1108.24 L 523.57 1194.54 L 523.57 1195.86 L 523.59 1198.63 L 523.60 1201.39 L 523.61 1202.77 L 523.63 1205.48 L 523.64 1206.85 L 523.64 1206.89 L 523.64 1208.26 L 523.64 1208.29 L 523.65 1209.63 L 523.66 1210.99 L 523.66 1211.03 L 523.66 1212.40 L 523.66 1213.76 L 523.67 1215.12 L 523.67 1216.56 L 523.66 1219.28 L 523.66 1220.64 L 523.66 1220.71 L 523.64 1222.07 L 523.63 1223.43 L 523.63 1223.47 L 523.62 1224.82 L 523.62 1224.86 L 523.60 1226.21 L 523.60 1226.25 L 523.58 1227.61 L 523.57 1227.64 L 523.55 1229.00 L 523.55 1229.03 L 523.52 1230.39 L 523.52 1230.42 L 523.49 1231.78 L 523.49 1231.81 L 523.45 1233.17 L 523.45 1233.24 L 523.40 1234.59 L 523.40 1234.63 L 523.35 1235.98 L 523.35 1236.02 L 523.30 1237.37 L 523.30 1237.40 L 523.24 1238.76 L 523.24 1238.83 L 523.18 1240.18 L 523.17 1240.25 L 523.10 1241.61 L 523.10 1241.64 L 523.03 1243.00 L 523.02 1243.07 L 522.94 1244.42 L 522.94 1244.49 L 522.85 1245.84 L 522.85 1245.88 L 522.75 1247.23 L 522.75 1247.34 L 522.64 1248.69 L 522.64 1248.73 L 522.53 1250.08 L 522.53 1250.15 L 522.41 1251.51 L 522.41 1251.58 L 522.29 1252.93 L 522.28 1253.00 L 522.15 1254.36 L 522.14 1254.43 L 522.00 1255.79 L 521.99 1255.89 L 521.85 1257.25 L 521.84 1257.32 L 521.68 1258.68 L 521.68 1258.74 L 521.51 1260.10 L 521.51 1260.17 L 521.34 1261.53 L 521.32 1261.63 L 521.14 1263.00 L 521.13 1263.06 L 520.94 1264.43 L 520.93 1264.53 L 520.73 1265.89 L 520.71 1265.99 L 520.50 1267.36 L 520.49 1267.43 L 520.27 1268.79 L 520.26 1268.89 L 520.03 1270.26 L 520.02 1270.33 L 519.78 1271.69 L 519.75 1271.83 L 519.50 1273.20 L 519.49 1273.26 L 519.23 1274.64 L 519.21 1274.74 L 518.94 1276.11 L 518.92 1276.22 L 518.53 1278.11 L 518.52 1278.19 L 518.12 1280.08 L 518.08 1280.23 L 517.66 1282.11 L 517.64 1282.22 L 517.20 1284.10 L 517.18 1284.20 L 516.73 1286.07 L 516.70 1286.19 L 516.23 1288.05 L 516.19 1288.21 L 515.70 1290.07 L 515.68 1290.15 L 515.18 1292.01 L 515.15 1292.14 L 514.63 1293.99 L 514.60 1294.11 L 514.07 1295.95 L 514.03 1296.09 L 513.48 1297.92 L 513.44 1298.03 L 512.88 1299.87 L 512.83 1300.01 L 512.25 1301.84 L 512.21 1301.95 L 511.61 1303.77 L 511.57 1303.89 L 510.96 1305.70 L 510.92 1305.81 L 510.29 1307.63 L 510.24 1307.77 L 509.59 1309.57 L 509.55 1309.69 L 508.89 1311.48 L 508.85 1311.60 L 508.17 1313.40 L 508.12 1313.54 L 507.42 1315.32 L 507.37 1315.44 L 506.66 1317.22 L 506.62 1317.34 L 505.89 1319.11 L 505.84 1319.23 L 505.11 1321.00 L 505.04 1321.14 L 504.28 1322.90 L 504.24 1322.99 L 503.48 1324.74 L 503.41 1324.90 L 502.62 1326.64 L 502.56 1326.76 L 501.76 1328.50 L 501.70 1328.62 L 500.88 1330.35 L 500.81 1330.51 L 499.98 1332.23 L 499.92 1332.34 L 499.08 1334.05 L 499.01 1334.20 L 498.14 1335.90 L 498.08 1336.01 L 497.21 1337.71 L 497.13 1337.86 L 496.24 1339.56 L 496.17 1339.68 L 495.26 1341.37 L 495.19 1341.50 L 494.26 1343.17 L 494.19 1343.31 L 493.25 1344.98 L 493.17 1345.11 L 492.22 1346.77 L 492.14 1346.91 L 491.17 1348.56 L 491.09 1348.69 L 490.11 1350.33 L 490.02 1350.48 L 489.02 1352.11 L 488.95 1352.22 L 487.94 1353.85 L 487.84 1354.01 L 486.82 1355.62 L 486.72 1355.77 L 485.68 1357.38 L 485.59 1357.52 L 484.53 1359.12 L 484.43 1359.26 L 483.36 1360.85 L 483.28 1360.97 L 482.20 1362.55 L 482.08 1362.73 L 480.98 1364.30 L 480.90 1364.41 L 479.78 1365.97 L 479.67 1366.13 L 478.54 1367.68 L 478.44 1367.83 L 477.29 1369.37 L 477.18 1369.53 L 476.02 1371.06 L 475.91 1371.20 L 474.74 1372.73 L 474.63 1372.87 L 473.45 1374.38 L 473.33 1374.53 L 472.13 1376.03 L 472.00 1376.20 L 470.79 1377.69 L 470.66 1377.85 L 469.44 1379.33 L 469.30 1379.50 L 468.05 1380.97 L 467.95 1381.10 L 466.69 1382.56 L 466.55 1382.73 L 465.28 1384.18 L 465.13 1384.35 L 463.85 1385.79 L 463.52 1386.15 L 461.47 1388.36 L 461.26 1388.60 L 459.19 1390.77 L 458.95 1391.02 L 456.86 1393.15 L 456.63 1393.39 L 454.53 1395.49 L 454.29 1395.72 L 452.18 1397.78 L 451.90 1398.05 L 449.76 1400.07 L 449.50 1400.32 L 447.34 1402.30 L 447.06 1402.56 L 444.89 1404.51 L 444.58 1404.78 L 442.39 1406.69 L 442.09 1406.95 L 439.89 1408.82 L 439.56 1409.09 L 437.34 1410.93 L 437.02 1411.19 L 434.78 1412.99 L 434.44 1413.26 L 432.19 1415.02 L 431.80 1415.32 L 429.53 1417.05 L 429.15 1417.33 L 426.86 1419.02 L 426.46 1419.31 L 424.15 1420.96 L 423.76 1421.24 L 421.44 1422.85 L 421.01 1423.15 L 418.68 1424.72 L 418.19 1425.05 L 415.83 1426.59 L 415.38 1426.88 L 413.02 1428.38 L 412.52 1428.69 L 410.14 1430.16 L 409.65 1430.46 L 407.25 1431.89 L 406.72 1432.20 L 404.31 1433.60 L 403.72 1433.93 L 401.29 1435.29 L 400.73 1435.59 L 398.29 1436.92 L 397.68 1437.24 L 395.21 1438.53 L 394.60 1438.84 L 392.12 1440.09 L 391.46 1440.42 L 388.97 1441.64 L 388.34 1441.94 L 385.84 1443.12 L 385.09 1443.46 L 382.56 1444.61 L 381.92 1444.90 L 379.38 1446.01 L 378.58 1446.35 L 376.02 1447.42 L 375.27 1447.74 L 372.69 1448.78 L 371.93 1449.08 L 369.35 1450.09 L 368.54 1450.40 L 365.93 1451.37 L 365.09 1451.68 L 362.47 1452.62 L 361.60 1452.92 L 358.96 1453.83 L 358.11 1454.11 L 355.46 1454.98 L 354.51 1455.29 L 351.84 1456.12 L 350.96 1456.39 L 348.28 1457.20 L 347.32 1457.48 L 344.62 1458.24 L 343.62 1458.52 L 340.91 1459.26 L 339.98 1459.50 L 337.25 1460.20 L 336.20 1460.47 L 333.46 1461.13 L 332.44 1461.37 L 329.68 1462.01 L 328.64 1462.24 L 325.87 1462.84 L 324.84 1463.06 L 322.05 1463.63 L 320.94 1463.85 L 318.14 1464.38 L 317.10 1464.57 L 314.28 1465.07 L 313.15 1465.27 L 310.32 1465.74 L 309.27 1465.91 L 306.43 1466.34 L 305.28 1466.51 L 302.41 1466.92 L 301.35 1467.06 L 298.47 1467.44 L 297.31 1467.58 L 294.41 1467.92 L 293.27 1468.05 L 290.36 1468.35 L 289.31 1468.46 L 286.39 1468.74 L 285.23 1468.84 L 282.30 1469.08 L 281.18 1469.17 L 278.23 1469.38 L 277.14 1469.45 L 274.17 1469.64 L 273.07 1469.70 L 270.09 1469.85 L 265.32 1469.98 L 259.08 1470.00 L 256.06 1469.97 L 249.88 1469.81 L 246.92 1469.69 L 240.79 1469.36 L 237.83 1469.16 L 231.76 1468.65 L 228.91 1468.37 L 222.90 1467.69 L 220.07 1467.33 L 214.13 1466.48 L 211.48 1466.06 L 205.60 1465.04 L 203.03 1464.56 L 197.22 1463.38 L 194.79 1462.85 L 189.05 1461.52 L 186.76 1460.95 L 181.08 1459.45 L 178.93 1458.84 L 173.33 1457.19 L 171.32 1456.57 L 165.79 1454.76 L 163.93 1454.12 L 158.48 1452.16 L 156.73 1451.50 L 151.36 1449.39 L 149.78 1448.75 L 144.48 1446.50 L 142.99 1445.84 L 137.78 1443.44 L 136.39 1442.78 L 131.26 1440.24 L 130.04 1439.61 L 124.99 1436.94 L 123.79 1436.28 L 118.84 1433.47 L 117.80 1432.87 L 112.93 1429.92 L 111.94 1429.31 L 107.16 1426.23 L 106.26 1425.63 L 101.57 1422.43 L 100.74 1421.85 L 96.15 1418.53 L 95.38 1417.95 L 90.89 1414.50 L 90.18 1413.95 L 85.78 1410.38 L 85.14 1409.84 L 80.84 1406.16 L 80.24 1405.63 L 76.04 1401.83 L 75.49 1401.32 L 71.40 1397.41 L 70.89 1396.90 L 66.90 1392.88 L 66.43 1392.40 L 62.55 1388.27 L 62.11 1387.80 L 58.34 1383.56 L 57.94 1383.10 L 54.28 1378.77 L 53.90 1378.31 L 50.35 1373.88 L 50.01 1373.43 L 46.57 1368.90 L 46.26 1368.47 L 42.94 1363.85 L 42.65 1363.43 L 39.44 1358.71 L 39.17 1358.29 L 36.09 1353.49 L 35.83 1353.08 L 32.88 1348.20 L 32.65 1347.80 L 29.81 1342.83 L 29.59 1342.42 L 26.88 1337.37 L 26.69 1337.00 L 24.11 1331.87 L 23.92 1331.48 L 21.47 1326.27 L 21.29 1325.89 L 18.98 1320.61 L 18.82 1320.24 L 16.64 1314.89 L 16.49 1314.52 L 14.44 1309.11 L 14.30 1308.74 L 12.39 1303.26 L 12.27 1302.90 L 10.50 1297.35 L 10.39 1297.00 L 8.75 1291.39 L 8.66 1291.04 L 7.17 1285.38 L 7.08 1285.03 L 5.73 1279.31 L 5.65 1278.96 L 4.45 1273.19 L 4.38 1272.85 L 3.33 1267.03 L 3.27 1266.67 L 2.37 1260.80 L 2.32 1260.47 L 1.56 1254.56 L 1.53 1254.21 L 0.93 1248.25 L 0.90 1247.91 L 0.45 1241.92 L 0.43 1241.58 L 0.14 1235.55 L 0.13 1235.21 L 0.00 1229.14 L 0.00 1228.80 L 0.03 1222.70 L 0.04 1222.35 L 0.24 1216.23 L 4.21 1206.70 L 14.95 1198.58 L 30.92 1193.02 L 53.41 1190.79 L 55.53 1190.82 L 55.53 1190.82 L 59.58 1190.87 L 61.69 1190.90 L 61.69 1190.90 L 65.74 1190.95 L 69.97 1190.99 L 71.99 1191.01 L 74.02 1191.03 L 74.02 1191.03 L 78.07 1191.06 L 80.18 1191.08 L 80.27 1191.08 L 82.30 1191.10 L 82.30 1191.10 L 84.41 1191.11 L 88.55 1191.14 L 90.57 1191.15 L 94.62 1191.17 L 94.62 1191.16 L 96.74 1191.17 L 98.85 1191.18 L 102.99 1191.19 L 107.13 1191.20 L 109.15 1191.20 L 113.20 1191.20 L 115.32 1191.20 L 117.34 1191.20 L 119.37 1191.19 L 123.59 1191.18 L 125.62 1191.17 L 127.73 1191.17 L 127.73 1191.17 L 131.78 1191.15 L 133.81 1191.14 L 140.06 1191.10 L 142.18 1191.09 L 142.18 1191.09 L 146.22 1191.05 L 148.33 1191.04 L 148.33 1191.04 L 150.36 1191.02 L 152.48 1191.00 L 154.50 1190.98 L 156.61 1190.96 L 160.66 1190.91 L 160.66 1190.91 L 162.78 1190.88 L 168.94 1190.80 L 168.94 1190.80 L 171.05 1190.77 L 173.08 1190.74 L 175.20 1190.71 L 177.22 1190.68 L 196.44 1192.21 L 213.17 1197.18 L 225.05 1204.90 L 230.58 1216.66 L 230.56 1218.14 L 230.55 1219.58 L 230.55 1221.01 L 230.54 1222.42 L 230.54 1223.82 L 230.55 1225.11 L 230.56 1226.48 L 230.58 1227.88 L 230.58 1227.88 L 230.61 1229.13 L 230.63 1230.41 L 230.68 1231.74 L 230.72 1232.99 L 230.78 1234.29 L 230.84 1235.46 L 230.92 1236.71 L 231.00 1237.92 L 231.09 1239.08 L 231.19 1240.27 L 231.31 1241.57 L 231.31 1241.57 L 231.42 1242.58 L 231.42 1242.58 L 231.57 1243.86 L 231.57 1243.86 L 231.70 1244.86 L 231.88 1246.10 L 232.02 1247.03 L 232.22 1248.25 L 232.39 1249.19 L 232.59 1250.23 L 232.85 1251.45 L 233.03 1252.28 L 233.33 1253.50 L 233.55 1254.36 L 233.82 1255.34 L 234.13 1256.43 L 234.45 1257.47 L 234.70 1258.24 L 235.07 1259.29 L 235.39 1260.17 L 235.82 1261.30 L 236.10 1261.99 L 236.56 1263.06 L 236.90 1263.82 L 237.31 1264.69 L 237.88 1265.86 L 238.25 1266.58 L 238.71 1267.43 L 239.25 1268.39 L 239.74 1269.22 L 240.22 1270.00 L 240.86 1271.02 L 241.44 1271.90 L 241.97 1272.67 L 242.59 1273.53 L 243.20 1274.36 L 243.95 1275.33 L 244.50 1276.02 L 245.29 1276.97 L 246.13 1277.96 L 246.75 1278.67 L 247.52 1279.52 L 248.28 1280.32 L 250.29 1282.37 L 252.20 1284.16 L 254.06 1285.77 L 255.83 1287.19 L 257.42 1288.36 L 259.05 1289.46 L 260.29 1290.23 L 261.26 1289.70 L 262.61 1288.89 L 264.03 1287.97 L 265.50 1286.95 L 267.04 1285.79 L 268.56 1284.57 L 270.20 1283.15 L 271.74 1281.73 L 273.40 1280.08 L 274.92 1278.47 L 276.51 1276.66 L 278.07 1274.77 L 279.54 1272.85 L 280.99 1270.82 L 282.43 1268.63 L 283.76 1266.46 L 285.13 1264.05 L 286.32 1261.75 L 287.50 1259.29 L 288.63 1256.70 L 289.64 1254.15 L 290.62 1251.38 L 291.47 1248.69 L 292.26 1245.82 L 292.95 1242.94 L 293.52 1240.10 L 294.07 1236.80 L 294.17 1236.11 L 294.28 1235.23 L 294.41 1234.29 L 294.52 1233.41 L 294.61 1232.62 L 294.82 1230.64 L 294.83 1230.64 L 294.92 1229.75 L 295.00 1228.85 L 295.08 1227.91 L 295.16 1226.96 L 295.23 1226.06 L 295.30 1225.11 L 295.37 1224.16 L 295.43 1223.21 L 295.49 1222.31 L 295.54 1221.35 L 295.54 1221.35 L 295.59 1220.39 L 295.63 1219.44 L 295.67 1218.48 L 295.68 1218.48 L 295.71 1217.57 L 295.75 1216.57 L 295.78 1215.61 L 295.81 1214.70 L 295.81 1214.70 L 295.86 1212.68 L 295.90 1210.76 L 295.91 1209.84 L 295.91 1209.84 L 295.92 1208.83 L 295.93 1207.82 L 295.95 1205.85 L 295.96 1202.86 L 295.96 1201.90 L 295.95 1199.92 L 295.95 1198.91 L 295.94 1197.90 L 295.94 1196.94 L 295.94 1196.90 L 295.93 1195.89 L 295.93 1194.92 L 295.92 1193.92 L 295.91 1192.91 L 295.90 1191.90 L 295.88 1188.89 L 295.87 1186.88 L 295.87 1186.83 L 295.86 1185.83 L 295.86 1184.83 L 295.85 1182.83 L 295.85 1179.74 L 295.86 1178.75 L 295.86 1178.71 L 295.87 1176.97 L 295.88 1175.23 L 295.90 1171.75 L 295.91 1170.01 L 295.92 1168.26 L 295.93 1166.55 L 295.93 1166.52 L 295.94 1164.78 L 295.95 1163.07 L 295.96 1161.33 L 295.97 1157.84 L 295.98 1156.10 L 295.99 1152.62 L 296.00 1150.90 L 296.00 1150.87 L 296.00 1149.13 L 296.01 1147.42 L 296.01 1145.68 L 296.02 1142.19 L 296.02 1140.45 L 296.03 1136.97 L 296.03 1133.48 L 296.03 1131.74 L 296.03 1124.80 L 296.03 1123.09 L 296.03 1119.58 L 296.03 1117.86 L 296.02 1116.12 L 296.02 1114.38 L 296.01 1112.64 L 296.01 1109.15 L 296.00 1107.41 L 296.00 1105.70 L 296.00 1105.67 L 295.99 1103.93 L 295.98 1102.22 L 295.98 1100.47 L 295.97 1098.73 L 295.96 1095.25 L 295.95 1093.51 L 295.94 1091.77 L 295.93 1090.05 L 295.93 1090.02 L 295.92 1088.28 L 295.91 1086.57 L 295.90 1084.83 L 295.88 1081.34 L 295.87 1079.60 L 295.86 1077.86 L 295.84 1076.12 L 295.83 1074.40 L 295.83 1074.28 L 296.17 825.17 L 294.84 825.16 L 291.28 825.15 L 287.76 825.13 L 284.29 825.12 L 280.82 825.12 L 277.28 825.11 L 273.85 825.11 L 270.37 825.12 L 266.83 825.12 L 263.34 825.13 L 259.79 825.14 L 256.24 825.15 L 252.64 825.17 L 252.64 825.17 L 249.19 825.18 L 245.59 825.20 L 242.03 825.22 L 238.48 825.24 L 234.87 825.27 L 234.87 825.27 L 231.37 825.29 L 231.32 825.30 L 227.71 825.32 L 227.71 825.32 L 220.66 825.38 L 217.12 825.41 L 213.52 825.44 L 209.92 825.48 L 206.33 825.51 L 206.33 825.51 L 202.79 825.54 L 199.21 825.58 L 195.68 825.61 L 192.10 825.65 L 192.05 825.65 L 188.53 825.69 L 184.96 825.72 L 181.39 825.76 L 181.34 825.76 L 177.83 825.80 L 174.28 825.83 L 174.23 825.83 L 170.68 825.87 L 167.14 825.90 L 163.61 825.94 L 160.09 825.97 L 160.03 825.97 L 156.51 826.01 L 156.46 826.01 L 152.95 826.04 L 145.95 826.10 L 145.90 826.10 L 142.41 826.13 L 142.36 826.13 L 138.88 826.16 L 138.83 826.16 L 135.36 826.19 L 116.19 824.50 L 99.62 819.39 L 88.01 811.58 L 82.86 800.50 L 82.83 798.40 L 82.80 796.29 L 82.77 794.17 L 82.77 794.16 L 82.74 792.04 L 82.71 789.91 L 82.71 789.88 L 82.68 787.75 L 82.65 785.62 L 82.65 785.60 L 82.63 783.45 L 82.60 781.29 L 82.57 779.13 L 82.55 776.96 L 82.52 774.79 L 82.52 774.77 L 82.50 772.59 L 82.48 770.41 L 82.46 768.23 L 82.43 766.04 L 82.41 763.85 L 82.41 763.83 L 82.39 761.63 L 82.37 759.43 L 82.36 757.23 L 82.36 757.21 L 82.34 755.01 L 82.32 752.83 L 82.32 752.80 L 82.31 750.60 L 82.31 750.57 L 82.30 748.37 L 82.28 746.18 L 82.28 746.16 L 82.27 743.94 L 82.27 743.92 L 82.26 741.71 L 82.25 739.52 L 82.25 739.50 L 82.24 735.07 L 82.24 735.05 L 82.23 732.84 L 82.23 730.63 L 82.23 728.39 L 82.23 726.20 L 82.23 723.95 L 82.23 721.74 L 82.23 719.53 L 82.24 717.33 L 82.24 717.31 L 82.25 715.10 L 82.25 715.08 L 82.26 712.88 L 82.26 710.70 L 82.26 710.68 L 82.27 708.49 L 82.27 708.47 L 82.29 706.27 L 82.30 704.09 L 82.30 704.06 L 82.32 701.88 L 82.34 699.70 L 82.34 699.68 L 82.36 697.50 L 82.39 695.33 L 82.41 693.17 L 82.41 693.14 L 82.43 690.98 L 82.43 690.96 L 82.46 688.80 L 82.49 686.65 L 82.49 686.63 L 82.53 684.48 L 82.53 684.46 L 82.57 682.34 L 82.56 682.34 L 82.60 680.21 L 82.60 680.16 L 82.64 678.04 L 82.68 675.92 L 82.68 675.89 L 82.73 673.78 L 82.77 671.68 L 82.77 671.65 L 82.82 669.56 L 86.70 660.02 L 97.36 651.87 L 113.28 646.27 L 134.46 643.98 L 295.70 643.84 L 296.27 356.57 L 296.08 277.41 L 296.07 276.04 L 296.07 274.64 L 296.06 273.28 L 296.04 271.89 L 296.03 270.50 L 296.02 269.16 L 296.02 269.12 L 296.01 267.74 L 295.99 266.40 L 295.99 266.36 L 295.98 264.99 L 295.97 263.65 L 295.95 262.29 L 295.95 262.25 L 295.94 260.89 L 295.93 259.53 L 295.92 258.17 L 295.92 258.13 L 295.91 256.77 L 295.90 255.45 L 295.90 255.38 L 295.90 254.03 L 295.89 252.68 L 295.89 251.33 L 295.89 251.26 L 295.89 249.91 L 295.89 248.53 L 295.90 247.18 L 295.90 247.15 L 295.91 245.80 L 295.92 244.46 L 295.92 244.39 L 295.96 241.71 L 295.96 241.64 L 295.99 240.30 L 295.99 240.26 L 296.02 238.92 L 296.02 238.89 L 296.05 237.55 L 296.05 237.51 L 296.09 236.18 L 296.09 236.14 L 296.13 234.80 L 296.13 234.73 L 296.18 233.39 L 296.18 233.32 L 296.24 231.98 L 296.24 231.95 L 296.30 230.61 L 296.30 230.54 L 296.37 229.20 L 296.37 229.17 L 296.44 227.83 L 296.45 227.75 L 296.52 226.42 L 296.53 226.35 L 296.61 225.01 L 296.62 224.97 L 296.71 223.63 L 296.71 223.52 L 296.81 222.18 L 296.81 222.15 L 296.92 220.81 L 296.93 220.70 L 297.04 219.35 L 297.05 219.28 L 297.17 217.94 L 297.17 217.91 L 297.30 216.56 L 297.31 216.45 L 297.44 215.10 L 297.46 215.00 L 297.60 213.65 L 297.61 213.62 L 297.76 212.27 L 297.77 212.16 L 297.93 210.81 L 297.95 210.71 L 298.12 209.35 L 298.13 209.28 L 298.31 207.92 L 298.32 207.82 L 298.52 206.46 L 298.52 206.39 L 298.72 205.03 L 298.74 204.93 L 298.95 203.56 L 298.97 203.47 L 299.19 202.10 L 299.20 202.03 L 299.43 200.66 L 299.45 200.53 L 299.70 199.15 L 299.71 199.05 L 299.97 197.67 L 299.98 197.61 L 300.24 196.23 L 300.26 196.10 L 300.54 194.71 L 300.56 194.62 L 300.85 193.23 L 300.88 193.09 L 301.30 191.19 L 301.33 191.04 L 301.77 189.15 L 301.79 189.04 L 302.24 187.16 L 302.27 187.05 L 302.74 185.17 L 302.77 185.04 L 303.25 183.17 L 303.28 183.06 L 303.78 181.20 L 303.82 181.06 L 304.33 179.20 L 304.37 179.09 L 304.90 177.23 L 304.94 177.10 L 305.49 175.25 L 305.52 175.14 L 306.09 173.29 L 306.12 173.18 L 306.70 171.34 L 306.75 171.20 L 307.34 169.37 L 307.38 169.26 L 307.99 167.44 L 308.04 167.32 L 308.66 165.50 L 308.72 165.35 L 309.36 163.54 L 309.40 163.43 L 310.06 161.62 L 310.12 161.48 L 310.80 159.68 L 310.83 159.58 L 311.52 157.79 L 311.58 157.64 L 312.29 155.86 L 312.34 155.74 L 313.06 153.96 L 313.12 153.81 L 313.86 152.04 L 313.90 151.95 L 314.66 150.18 L 314.72 150.02 L 315.50 148.27 L 315.55 148.15 L 316.34 146.39 L 316.39 146.26 L 317.20 144.52 L 317.26 144.37 L 318.08 142.64 L 318.13 142.54 L 318.96 140.80 L 319.04 140.65 L 319.89 138.93 L 319.95 138.80 L 320.81 137.09 L 320.88 136.95 L 321.76 135.25 L 321.83 135.12 L 322.72 133.42 L 322.80 133.28 L 323.70 131.59 L 323.77 131.47 L 324.69 129.79 L 324.78 129.64 L 325.71 127.97 L 325.78 127.84 L 326.74 126.17 L 326.83 126.01 L 327.80 124.35 L 327.87 124.24 L 328.86 122.59 L 328.94 122.45 L 329.93 120.81 L 330.03 120.65 L 331.05 119.01 L 331.12 118.90 L 332.15 117.27 L 332.24 117.13 L 333.28 115.52 L 333.37 115.38 L 334.43 113.77 L 334.53 113.62 L 335.60 112.02 L 335.70 111.89 L 336.78 110.30 L 336.89 110.14 L 337.99 108.57 L 338.09 108.42 L 339.21 106.85 L 339.29 106.74 L 340.42 105.18 L 340.55 104.99 L 341.70 103.44 L 341.80 103.31 L 342.95 101.77 L 343.06 101.63 L 344.23 100.10 L 344.35 99.94 L 345.54 98.42 L 345.66 98.26 L 346.86 96.75 L 346.97 96.61 L 348.18 95.11 L 348.34 94.93 L 349.57 93.44 L 349.68 93.31 L 350.92 91.83 L 351.02 91.70 L 352.28 90.23 L 352.44 90.04 L 353.71 88.58 L 353.84 88.44 L 355.12 86.99 L 355.27 86.82 L 356.57 85.38 L 356.72 85.21 L 358.03 83.78 L 358.22 83.59 L 360.30 81.37 L 360.54 81.12 L 362.64 78.95 L 362.84 78.74 L 364.96 76.60 L 365.18 76.38 L 367.31 74.27 L 367.55 74.03 L 369.70 71.97 L 369.96 71.73 L 372.11 69.70 L 372.37 69.46 L 374.55 67.47 L 374.83 67.22 L 377.01 65.27 L 377.30 65.02 L 379.50 63.11 L 379.80 62.85 L 382.01 60.98 L 382.34 60.71 L 384.57 58.87 L 384.89 58.62 L 387.13 56.82 L 387.48 56.54 L 389.75 54.77 L 390.10 54.50 L 392.38 52.77 L 392.75 52.49 L 395.04 50.80 L 395.44 50.52 L 397.74 48.87 L 398.15 48.58 L 400.47 46.97 L 400.88 46.68 L 403.22 45.10 L 403.68 44.79 L 406.03 43.25 L 406.51 42.95 L 408.88 41.44 L 409.34 41.15 L 411.72 39.68 L 412.24 39.37 L 414.63 37.93 L 415.17 37.62 L 417.58 36.22 L 418.11 35.92 L 420.54 34.56 L 421.12 34.24 L 423.57 32.91 L 424.15 32.60 L 426.60 31.31 L 427.26 30.97 L 429.74 29.72 L 430.34 29.42 L 432.83 28.20 L 433.51 27.87 L 436.02 26.69 L 436.72 26.36 L 439.25 25.22 L 439.93 24.91 L 442.46 23.80 L 443.23 23.47 L 445.78 22.40 L 446.54 22.08 L 449.11 21.04 L 449.92 20.71 L 452.51 19.71 L 453.30 19.40 L 455.90 18.43 L 456.77 18.11 L 459.39 17.18 L 460.25 16.88 L 462.88 15.97 L 463.78 15.67 L 466.43 14.80 L 467.36 14.51 L 470.02 13.67 L 470.93 13.39 L 473.61 12.59 L 474.62 12.30 L 477.32 11.54 L 478.30 11.27 L 481.01 10.53 L 482.02 10.27 L 484.74 9.57 L 485.74 9.33 L 488.49 8.66 L 489.60 8.40 L 492.36 7.77 L 493.39 7.54 L 496.18 6.95 L 497.22 6.73 L 500.01 6.17 L 501.17 5.94 L 503.98 5.41 L 505.09 5.21 L 507.92 4.72 L 508.97 4.54 L 511.82 4.07 L 513.02 3.89 L 515.88 3.46 L 516.97 3.30 L 519.85 2.90 L 520.98 2.76 L 523.87 2.39 L 525.05 2.25 L 527.96 1.92 L 529.06 1.80 L 531.99 1.50 L 533.15 1.39 L 536.10 1.13 L 537.26 1.03 L 540.22 0.80 L 541.33 0.72 L 544.31 0.51 L 545.47 0.44 L 548.47 0.27 L 549.56 0.22 L 552.58 0.08 L 559.49 0.00 L 562.39 0.06 L 563.66 0.10 L 566.54 0.20 L 567.81 0.25 L 570.68 0.38 L 571.94 0.45 L 574.80 0.62 L 576.08 0.70 L 578.92 0.90 L 580.20 1.00 L 583.03 1.24 L 584.29 1.35 L 587.11 1.63 L 588.37 1.76 L 591.18 2.07 L 592.36 2.20 L 595.16 2.54 L 596.46 2.71 L 599.24 3.09 L 600.42 3.26 L 603.18 3.67 L 604.38 3.86 L 607.14 4.31 L 608.28 4.50 L 611.02 4.98 L 612.24 5.20 L 614.97 5.72 L 616.08 5.94 L 618.79 6.49 L 619.88 6.72 L 622.58 7.30 L 623.76 7.57 L 626.44 8.19 L 627.46 8.43 L 630.13 9.08 L 631.16 9.34 L 633.81 10.03 L 634.84 10.30 L 637.48 11.02 L 638.48 11.30 L 641.11 12.06 L 642.08 12.34 L 644.70 13.14 L 645.66 13.43 L 648.26 14.26 L 649.13 14.54 L 651.72 15.40 L 652.59 15.70 L 655.17 16.59 L 656.04 16.90 L 658.59 17.82 L 659.42 18.13 L 661.97 19.09 L 662.73 19.38 L 665.26 20.38 L 666.09 20.71 L 668.61 21.74 L 669.34 22.04 L 671.85 23.11 L 672.53 23.40 L 675.02 24.50 L 675.71 24.81 L 678.18 25.93 L 678.85 26.24 L 681.31 27.40 L 681.94 27.71 L 684.39 28.91 L 685.03 29.23 L 687.46 30.46 L 688.03 30.75 L 690.45 32.01 L 691.04 32.32 L 693.44 33.62 L 693.99 33.92 L 696.37 35.25 L 696.85 35.52 L 699.23 36.88 L 699.78 37.20 L 702.14 38.60 L 702.60 38.88 L 704.95 40.31 L 705.43 40.61 L 707.76 42.07 L 708.16 42.33 L 710.48 43.82 L 710.94 44.12 L 713.23 45.65 L 713.65 45.93 L 715.93 47.49 L 716.31 47.75 L 718.58 49.34 L 718.97 49.63 L 721.23 51.25 L 721.56 51.49 L 723.80 53.15 L 724.19 53.45 L 726.41 55.14 L 726.72 55.37 L 728.93 57.10 L 729.26 57.36 L 731.46 59.12 L 731.76 59.37 L 733.94 61.16 L 734.22 61.40 L 736.39 63.22 L 736.68 63.47 L 738.83 65.33 L 739.09 65.55 L 741.22 67.44 L 741.49 67.68 L 743.60 69.60 L 743.85 69.82 L 745.95 71.77 L 746.21 72.01 L 748.29 74.00 L 748.50 74.19 L 750.57 76.21 L 750.81 76.45 L 752.86 78.49 L 754.52 80.15 L 754.74 80.37 L 756.35 82.02 L 756.50 82.18 L 758.10 83.84 L 758.31 84.07 L 759.88 85.75 L 760.07 85.96 L 761.62 87.65 L 761.77 87.81 L 763.30 89.52 L 763.51 89.75 L 765.02 91.48 L 765.16 91.64 L 766.65 93.38 L 766.83 93.60 L 768.30 95.36 L 768.44 95.52 L 769.89 97.29 L 770.04 97.48 L 771.47 99.27 L 771.64 99.47 L 773.05 101.27 L 773.19 101.46 L 774.58 103.28 L 774.70 103.45 L 776.07 105.28 L 776.19 105.44 L 777.54 107.28 L 777.68 107.47 L 779.01 109.33 L 779.14 109.52 L 780.44 111.39 L 780.57 111.56 L 781.85 113.45 L 781.96 113.61 L 783.22 115.51 L 783.35 115.71 L 784.59 117.62 L 784.69 117.78 L 785.91 119.70 L 786.01 119.86 L 787.21 121.79 L 787.33 121.99 L 788.50 123.94 L 788.59 124.08 L 789.75 126.05 L 789.86 126.24 L 790.99 128.21 L 791.08 128.36 L 792.19 130.35 L 792.28 130.51 L 793.37 132.51 L 793.46 132.67 L 794.53 134.68 L 794.62 134.87 L 795.66 136.89 L 795.74 137.03 L 796.76 139.06 L 796.84 139.22 L 797.84 141.26 L 797.92 141.43 L 798.90 143.48 L 798.97 143.64 L 799.93 145.70 L 800.01 145.88 L 800.94 147.95 L 801.00 148.08 L 801.91 150.17 L 801.99 150.34 L 802.88 152.44 L 802.94 152.60 L 803.81 154.70 L 803.87 154.85 L 804.71 156.96 L 804.77 157.13 L 805.59 159.26 L 805.64 159.39 L 806.44 161.52 L 806.50 161.69 L 807.27 163.83 L 807.32 163.98 L 808.07 166.13 L 808.13 166.29 L 808.85 168.45 L 808.90 168.60 L 809.60 170.77 L 809.65 170.91 L 810.33 173.09 L 810.38 173.25 L 811.03 175.44 L 811.07 175.58 L 811.71 177.78 L 811.75 177.94 L 812.36 180.14 L 812.39 180.28 L 812.98 182.49 L 813.02 182.64 L 813.58 184.86 L 813.61 185.00 L 814.15 187.23 L 814.18 187.36 L 814.69 189.59 L 814.73 189.77 L 815.22 192.01 L 815.24 192.14 L 815.71 194.39 L 815.73 194.52 L 816.17 196.78 L 816.20 196.93 L 816.62 199.19 L 816.64 199.34 L 817.03 201.60 L 817.06 201.76 L 817.42 204.03 L 817.44 204.16 L 817.78 206.43 L 817.80 206.59 L 818.11 208.87 L 818.14 209.07 L 818.23 209.83 L 818.24 209.90 L 818.33 210.66 L 818.34 210.72 L 818.42 211.48 L 818.43 211.54 L 818.59 213.06 L 818.60 213.12 L 818.68 213.88 L 818.68 213.94 L 818.75 214.70 L 818.76 214.76 L 818.83 215.52 L 818.84 215.59 L 818.97 217.10 Z" fill="#0D0D0D"/>
  </g>
  <g transform="scale(1,-1) translate(0,-1532)">
    <g transform="translate(2297.50,0)"><path d="M140 0V1080H352.9967041015625V817.0001220703125L326.9967041015625 851.0001220703125Q347.3299560546875 904.9998779296875 380.82977294921875 949.6663818359375Q414.32958984375 994.3328857421875 460.9957275390625 1023.332763671875Q500.82916259765625 1050.4998168945312 549.2461242675781 1065.5Q597.6630859375 1080.5001831054688 648.663330078125 1084.0001831054688Q699.66357421875 1087.5001831054688 748.3302001953125 1080V855.0035400390625Q699.6630859375 869.1702270507812 637.5794372558594 863.8367919921875Q575.4957885742188 858.5033569335938 524.662109375 829.3359375Q475.16192626953125 802.1686401367188 443.7454528808594 760.2513122558594Q412.3289794921875 718.333984375 397.3292236328125 664.83349609375Q382.3294677734375 611.3330078125 382.3294677734375 548.666259765625V0Z" fill="#FFFFFF"/></g>
    <g transform="translate(3040.83,0)"><path d="M630.665283203125 -30Q466.83221435546875 -30 342.99920654296875 41.083282470703125Q219.16619873046875 112.16656494140625 149.58309936523438 238.08328247070312Q80 364 80 528.3336181640625Q80 705.3336181640625 148.24978637695312 835.8335571289062Q216.49957275390625 966.33349609375 337.4159851074219 1038.166748046875Q458.3323974609375 1110 617.332275390625 1110Q784.8319702148438 1110 902.331787109375 1031.6668701171875Q1019.8316040039062 953.333740234375 1077.0816345214844 810.333984375Q1134.3316650390625 667.334228515625 1120.1653442382812 472.667724609375H881.0023193359375V560.666259765625Q880.002197265625 737.0009765625 819.0011596679688 818.168701171875Q758.0001220703125 899.33642578125 627.33203125 899.33642578125Q479.49761962890625 899.33642578125 407.2467956542969 807.6688842773438Q334.9959716796875 716.0013427734375 334.9959716796875 540Q334.9959716796875 375.6650390625 407.2467956542969 285.66412353515625Q479.49761962890625 195.6632080078125 617.332275390625 195.6632080078125Q706.3333740234375 195.6632080078125 770.6676025390625 235.3304443359375Q835.0018310546875 274.9976806640625 870.00244140625 349.6654052734375L1108.3316650390625 277.99951171875Q1046.4982299804688 131.6663818359375 916.7484436035156 50.83319091796875Q786.9986572265625 -30 630.665283203125 -30ZM258.9969482421875 472.667724609375V654.9986572265625H1002.3336181640625V472.667724609375Z" fill="#FFFFFF"/></g>
    <g transform="translate(4225.16,-170)"><path d="M 818.98 1252.77 L 819.10 1251.26 L 819.10 1251.26 L 819.16 1250.50 L 819.17 1250.37 L 819.27 1248.85 L 819.27 1248.85 L 819.32 1248.09 L 819.33 1247.97 L 819.37 1247.21 L 819.42 1246.45 L 819.46 1245.70 L 819.47 1245.57 L 819.50 1244.87 L 819.54 1244.11 L 819.55 1243.99 L 819.59 1243.23 L 819.62 1242.47 L 819.65 1241.71 L 819.65 1241.65 L 819.68 1240.89 L 819.69 1240.83 L 819.71 1240.07 L 819.74 1239.31 L 819.74 1239.24 L 819.76 1238.49 L 819.78 1237.73 L 819.81 1236.97 L 819.81 1236.91 L 819.84 1235.39 L 819.84 1235.32 L 819.86 1234.56 L 819.87 1233.81 L 819.88 1233.74 L 819.89 1232.98 L 819.88 1232.98 L 819.90 1232.29 L 819.90 1232.16 L 819.91 1231.47 L 819.92 1230.71 L 819.92 1230.64 L 819.93 1229.88 L 819.94 1228.36 L 819.94 1228.30 L 819.95 1227.54 L 819.95 1226.78 L 819.95 1226.02 L 819.96 1225.26 L 819.96 1224.44 L 819.96 1223.74 L 819.96 1221.33 L 819.96 1220.57 L 819.96 1219.05 L 819.95 1218.28 L 819.95 1217.52 L 819.95 1216.76 L 819.95 1216.00 L 819.95 1215.23 L 819.94 1214.47 L 819.94 1213.77 L 816.28 1204.21 L 805.81 1196.00 L 790.02 1190.31 L 766.40 1187.92 L 762.38 1187.99 L 762.38 1187.99 L 760.55 1188.02 L 758.61 1188.05 L 756.57 1188.08 L 754.52 1188.11 L 752.67 1188.14 L 752.67 1188.13 L 750.61 1188.16 L 746.48 1188.21 L 744.58 1188.23 L 744.49 1188.23 L 742.41 1188.26 L 738.51 1188.30 L 738.51 1188.29 L 736.41 1188.31 L 734.31 1188.33 L 732.39 1188.35 L 732.39 1188.35 L 730.29 1188.36 L 726.06 1188.39 L 726.06 1188.39 L 724.12 1188.40 L 719.88 1188.42 L 717.94 1188.43 L 717.94 1188.43 L 715.81 1188.44 L 713.78 1188.44 L 713.69 1188.44 L 711.56 1188.45 L 707.48 1188.46 L 703.32 1188.46 L 699.23 1188.46 L 697.20 1188.46 L 695.07 1188.46 L 692.95 1188.45 L 691.00 1188.45 L 688.88 1188.44 L 688.79 1188.44 L 686.67 1188.44 L 686.67 1188.44 L 684.74 1188.43 L 684.65 1188.43 L 682.53 1188.42 L 678.49 1188.40 L 676.48 1188.39 L 674.48 1188.38 L 672.38 1188.36 L 670.29 1188.35 L 668.20 1188.33 L 666.30 1188.31 L 666.21 1188.31 L 664.23 1188.30 L 662.16 1188.28 L 662.16 1188.28 L 660.19 1188.26 L 658.22 1188.24 L 658.22 1188.24 L 656.17 1188.22 L 654.13 1188.20 L 652.19 1188.17 L 650.16 1188.15 L 648.23 1188.13 L 646.31 1188.10 L 646.31 1188.10 L 644.30 1188.07 L 625.09 1189.64 L 608.40 1194.65 L 596.59 1202.38 L 591.15 1213.68 L 591.12 1215.22 L 591.08 1216.72 L 591.04 1218.18 L 591.00 1219.66 L 590.95 1221.11 L 590.89 1222.57 L 590.83 1223.97 L 590.76 1225.38 L 590.68 1226.79 L 590.60 1228.19 L 590.51 1229.55 L 590.51 1229.55 L 590.41 1230.93 L 590.30 1232.16 L 590.17 1233.60 L 590.04 1234.92 L 589.90 1236.27 L 589.76 1237.55 L 589.61 1238.73 L 589.60 1238.73 L 589.42 1240.13 L 589.24 1241.38 L 589.07 1242.47 L 588.84 1243.85 L 588.63 1245.07 L 588.43 1246.14 L 588.15 1247.49 L 587.90 1248.69 L 587.63 1249.88 L 587.39 1250.87 L 587.05 1252.20 L 586.80 1253.14 L 586.80 1253.14 L 586.42 1254.46 L 586.09 1255.58 L 585.80 1256.49 L 585.45 1257.55 L 585.00 1258.85 L 584.60 1259.94 L 584.20 1260.98 L 583.79 1262.00 L 583.43 1262.85 L 582.94 1263.97 L 582.52 1264.89 L 581.92 1266.13 L 581.55 1266.87 L 580.90 1268.11 L 580.43 1268.97 L 579.97 1269.79 L 579.41 1270.73 L 578.67 1271.95 L 578.26 1272.58 L 577.46 1273.79 L 577.01 1274.45 L 576.16 1275.64 L 575.61 1276.37 L 574.78 1277.46 L 574.27 1278.10 L 573.45 1279.09 L 572.63 1280.05 L 571.93 1280.85 L 571.16 1281.69 L 570.50 1282.39 L 568.88 1284.02 L 567.55 1285.29 L 566.07 1286.61 L 564.79 1287.69 L 563.37 1288.80 L 562.09 1289.75 L 560.92 1290.56 L 559.74 1291.32 L 558.64 1291.97 L 557.63 1292.54 L 557.54 1292.59 L 557.04 1292.33 L 556.01 1291.75 L 554.96 1291.11 L 553.81 1290.37 L 552.69 1289.60 L 551.46 1288.69 L 550.22 1287.70 L 548.97 1286.67 L 547.70 1285.54 L 546.36 1284.27 L 545.04 1282.95 L 543.76 1281.59 L 542.51 1280.17 L 541.15 1278.53 L 539.86 1276.87 L 538.66 1275.23 L 537.38 1273.39 L 536.15 1271.47 L 535.05 1269.66 L 534.27 1268.29 L 533.71 1267.27 L 533.16 1266.23 L 532.52 1264.97 L 531.94 1263.78 L 531.39 1262.59 L 530.87 1261.42 L 530.35 1260.18 L 529.95 1259.19 L 529.50 1258.02 L 529.06 1256.84 L 528.57 1255.43 L 528.19 1254.27 L 527.88 1253.26 L 527.53 1252.07 L 527.14 1250.66 L 526.87 1249.65 L 526.57 1248.43 L 526.25 1247.01 L 525.98 1245.77 L 525.77 1244.75 L 525.51 1243.33 L 525.32 1242.21 L 525.09 1240.79 L 524.90 1239.54 L 524.73 1238.28 L 524.57 1236.98 L 524.42 1235.69 L 524.30 1234.42 L 524.18 1233.09 L 524.07 1231.79 L 523.98 1230.58 L 523.89 1229.14 L 523.89 1229.14 L 523.82 1227.89 L 523.75 1226.44 L 523.69 1225.09 L 523.65 1223.80 L 523.65 1223.74 L 523.64 1223.70 L 523.61 1222.34 L 523.60 1222.34 L 523.58 1220.97 L 523.55 1219.64 L 523.56 1219.64 L 523.54 1218.16 L 523.53 1216.72 L 523.52 1215.27 L 523.53 1213.89 L 523.53 1212.43 L 523.54 1211.00 L 523.55 1209.50 L 523.57 1208.03 L 523.59 1206.52 L 523.60 1205.01 L 523.62 1203.49 L 523.64 1201.97 L 523.64 1201.97 L 523.66 1200.44 L 523.68 1198.90 L 523.68 1198.87 L 523.69 1197.33 L 523.71 1195.78 L 523.71 1195.72 L 523.72 1194.17 L 523.72 1192.61 L 523.72 1189.40 L 523.62 1103.87 L 523.57 826.26 L 684.36 825.90 L 703.47 824.02 L 719.83 818.75 L 731.14 810.83 L 735.87 800.01 L 735.72 670.16 L 732.04 660.61 L 721.57 652.40 L 705.77 646.72 L 684.00 644.31 L 523.60 644.29 L 523.57 361.76 L 523.57 275.46 L 523.57 274.14 L 523.59 271.37 L 523.60 268.61 L 523.61 267.23 L 523.63 264.52 L 523.64 263.15 L 523.64 263.11 L 523.64 261.74 L 523.64 261.71 L 523.65 260.37 L 523.66 259.01 L 523.66 258.97 L 523.66 257.60 L 523.66 256.24 L 523.67 254.88 L 523.67 253.44 L 523.66 250.72 L 523.66 249.36 L 523.66 249.29 L 523.64 247.93 L 523.63 246.57 L 523.63 246.53 L 523.62 245.18 L 523.62 245.14 L 523.60 243.79 L 523.60 243.75 L 523.58 242.39 L 523.57 242.36 L 523.55 241.00 L 523.55 240.97 L 523.52 239.61 L 523.52 239.58 L 523.49 238.22 L 523.49 238.19 L 523.45 236.83 L 523.45 236.76 L 523.40 235.41 L 523.40 235.37 L 523.35 234.02 L 523.35 233.98 L 523.30 232.63 L 523.30 232.60 L 523.24 231.24 L 523.24 231.17 L 523.18 229.82 L 523.17 229.75 L 523.10 228.39 L 523.10 228.36 L 523.03 227.00 L 523.02 226.93 L 522.94 225.58 L 522.94 225.51 L 522.85 224.16 L 522.85 224.12 L 522.75 222.77 L 522.75 222.66 L 522.64 221.31 L 522.64 221.27 L 522.53 219.92 L 522.53 219.85 L 522.41 218.49 L 522.41 218.42 L 522.29 217.07 L 522.28 217.00 L 522.15 215.64 L 522.14 215.57 L 522.00 214.21 L 521.99 214.11 L 521.85 212.75 L 521.84 212.68 L 521.68 211.32 L 521.68 211.26 L 521.51 209.90 L 521.51 209.83 L 521.34 208.47 L 521.32 208.37 L 521.14 207.00 L 521.13 206.94 L 520.94 205.57 L 520.93 205.47 L 520.73 204.11 L 520.71 204.01 L 520.50 202.64 L 520.49 202.57 L 520.27 201.21 L 520.26 201.11 L 520.03 199.74 L 520.02 199.67 L 519.78 198.31 L 519.75 198.17 L 519.50 196.80 L 519.49 196.74 L 519.23 195.36 L 519.21 195.26 L 518.94 193.89 L 518.92 193.78 L 518.53 191.89 L 518.52 191.81 L 518.12 189.92 L 518.08 189.77 L 517.66 187.89 L 517.64 187.78 L 517.20 185.90 L 517.18 185.80 L 516.73 183.93 L 516.70 183.81 L 516.23 181.95 L 516.19 181.79 L 515.70 179.93 L 515.68 179.85 L 515.18 177.99 L 515.15 177.86 L 514.63 176.01 L 514.60 175.89 L 514.07 174.05 L 514.03 173.91 L 513.48 172.08 L 513.44 171.97 L 512.88 170.13 L 512.83 169.99 L 512.25 168.16 L 512.21 168.05 L 511.61 166.23 L 511.57 166.11 L 510.96 164.30 L 510.92 164.19 L 510.29 162.37 L 510.24 162.23 L 509.59 160.43 L 509.55 160.31 L 508.89 158.52 L 508.85 158.40 L 508.17 156.60 L 508.12 156.46 L 507.42 154.68 L 507.37 154.56 L 506.66 152.78 L 506.62 152.66 L 505.89 150.89 L 505.84 150.77 L 505.11 149.00 L 505.04 148.86 L 504.28 147.10 L 504.24 147.01 L 503.48 145.26 L 503.41 145.10 L 502.62 143.36 L 502.56 143.24 L 501.76 141.50 L 501.70 141.38 L 500.88 139.65 L 500.81 139.49 L 499.98 137.77 L 499.92 137.66 L 499.08 135.95 L 499.01 135.80 L 498.14 134.10 L 498.08 133.99 L 497.21 132.29 L 497.13 132.14 L 496.24 130.44 L 496.17 130.32 L 495.26 128.63 L 495.19 128.50 L 494.26 126.83 L 494.19 126.69 L 493.25 125.02 L 493.17 124.89 L 492.22 123.23 L 492.14 123.09 L 491.17 121.44 L 491.09 121.31 L 490.11 119.67 L 490.02 119.52 L 489.02 117.89 L 488.95 117.78 L 487.94 116.15 L 487.84 115.99 L 486.82 114.38 L 486.72 114.23 L 485.68 112.62 L 485.59 112.48 L 484.53 110.88 L 484.43 110.74 L 483.36 109.15 L 483.28 109.03 L 482.20 107.45 L 482.08 107.27 L 480.98 105.70 L 480.90 105.59 L 479.78 104.03 L 479.67 103.87 L 478.54 102.32 L 478.44 102.17 L 477.29 100.63 L 477.18 100.47 L 476.02 98.94 L 475.91 98.80 L 474.74 97.27 L 474.63 97.13 L 473.45 95.62 L 473.33 95.47 L 472.13 93.97 L 472.00 93.80 L 470.79 92.31 L 470.66 92.15 L 469.44 90.67 L 469.30 90.50 L 468.05 89.03 L 467.95 88.90 L 466.69 87.44 L 466.55 87.27 L 465.28 85.82 L 465.13 85.65 L 463.85 84.21 L 463.52 83.85 L 461.47 81.64 L 461.26 81.40 L 459.19 79.23 L 458.95 78.98 L 456.86 76.85 L 456.63 76.61 L 454.53 74.51 L 454.29 74.28 L 452.18 72.22 L 451.90 71.95 L 449.76 69.93 L 449.50 69.68 L 447.34 67.70 L 447.06 67.44 L 444.89 65.49 L 444.58 65.22 L 442.39 63.31 L 442.09 63.05 L 439.89 61.18 L 439.56 60.91 L 437.34 59.07 L 437.02 58.81 L 434.78 57.01 L 434.44 56.74 L 432.19 54.98 L 431.80 54.68 L 429.53 52.95 L 429.15 52.67 L 426.86 50.98 L 426.46 50.69 L 424.15 49.04 L 423.76 48.76 L 421.44 47.15 L 421.01 46.85 L 418.68 45.28 L 418.19 44.95 L 415.83 43.41 L 415.38 43.12 L 413.02 41.62 L 412.52 41.31 L 410.14 39.84 L 409.65 39.54 L 407.25 38.11 L 406.72 37.80 L 404.31 36.40 L 403.72 36.07 L 401.29 34.71 L 400.73 34.41 L 398.29 33.08 L 397.68 32.76 L 395.21 31.47 L 394.60 31.16 L 392.12 29.91 L 391.46 29.58 L 388.97 28.36 L 388.34 28.06 L 385.84 26.88 L 385.09 26.54 L 382.56 25.39 L 381.92 25.10 L 379.38 23.99 L 378.58 23.65 L 376.02 22.58 L 375.27 22.26 L 372.69 21.22 L 371.93 20.92 L 369.35 19.91 L 368.54 19.60 L 365.93 18.63 L 365.09 18.32 L 362.47 17.38 L 361.60 17.08 L 358.96 16.17 L 358.11 15.89 L 355.46 15.02 L 354.51 14.71 L 351.84 13.88 L 350.96 13.61 L 348.28 12.80 L 347.32 12.52 L 344.62 11.76 L 343.62 11.48 L 340.91 10.74 L 339.98 10.50 L 337.25 9.80 L 336.20 9.53 L 333.46 8.87 L 332.44 8.63 L 329.68 7.99 L 328.64 7.76 L 325.87 7.16 L 324.84 6.94 L 322.05 6.37 L 320.94 6.15 L 318.14 5.62 L 317.10 5.43 L 314.28 4.93 L 313.15 4.73 L 310.32 4.26 L 309.27 4.09 L 306.43 3.66 L 305.28 3.49 L 302.41 3.08 L 301.35 2.94 L 298.47 2.56 L 297.31 2.42 L 294.41 2.08 L 293.27 1.95 L 290.36 1.65 L 289.31 1.54 L 286.39 1.26 L 285.23 1.16 L 282.30 0.92 L 281.18 0.83 L 278.23 0.62 L 277.14 0.55 L 274.17 0.36 L 273.07 0.30 L 270.09 0.15 L 265.32 0.02 L 259.08 0.00 L 256.06 0.03 L 249.88 0.19 L 246.92 0.31 L 240.79 0.64 L 237.83 0.84 L 231.76 1.35 L 228.91 1.63 L 222.90 2.31 L 220.07 2.67 L 214.13 3.52 L 211.48 3.94 L 205.60 4.96 L 203.03 5.44 L 197.22 6.62 L 194.79 7.15 L 189.05 8.48 L 186.76 9.05 L 181.08 10.55 L 178.93 11.16 L 173.33 12.81 L 171.32 13.43 L 165.79 15.24 L 163.93 15.88 L 158.48 17.84 L 156.73 18.50 L 151.36 20.61 L 149.78 21.25 L 144.48 23.50 L 142.99 24.16 L 137.78 26.56 L 136.39 27.22 L 131.26 29.76 L 130.04 30.39 L 124.99 33.06 L 123.79 33.72 L 118.84 36.53 L 117.80 37.13 L 112.93 40.08 L 111.94 40.69 L 107.16 43.77 L 106.26 44.37 L 101.57 47.57 L 100.74 48.15 L 96.15 51.47 L 95.38 52.05 L 90.89 55.50 L 90.18 56.05 L 85.78 59.62 L 85.14 60.16 L 80.84 63.84 L 80.24 64.37 L 76.04 68.17 L 75.49 68.68 L 71.40 72.59 L 70.89 73.10 L 66.90 77.12 L 66.43 77.60 L 62.55 81.73 L 62.11 82.20 L 58.34 86.44 L 57.94 86.90 L 54.28 91.23 L 53.90 91.69 L 50.35 96.12 L 50.01 96.57 L 46.57 101.10 L 46.26 101.53 L 42.94 106.15 L 42.65 106.57 L 39.44 111.29 L 39.17 111.71 L 36.09 116.51 L 35.83 116.92 L 32.88 121.80 L 32.65 122.20 L 29.81 127.17 L 29.59 127.58 L 26.88 132.63 L 26.69 133.00 L 24.11 138.13 L 23.92 138.52 L 21.47 143.73 L 21.29 144.11 L 18.98 149.39 L 18.82 149.76 L 16.64 155.11 L 16.49 155.48 L 14.44 160.89 L 14.30 161.26 L 12.39 166.74 L 12.27 167.10 L 10.50 172.65 L 10.39 173.00 L 8.75 178.61 L 8.66 178.96 L 7.17 184.62 L 7.08 184.97 L 5.73 190.69 L 5.65 191.04 L 4.45 196.81 L 4.38 197.15 L 3.33 202.97 L 3.27 203.33 L 2.37 209.20 L 2.32 209.53 L 1.56 215.44 L 1.53 215.79 L 0.93 221.75 L 0.90 222.09 L 0.45 228.08 L 0.43 228.42 L 0.14 234.45 L 0.13 234.79 L 0.00 240.86 L 0.00 241.20 L 0.03 247.30 L 0.04 247.65 L 0.24 253.77 L 4.21 263.30 L 14.95 271.42 L 30.92 276.98 L 53.41 279.21 L 55.53 279.18 L 55.53 279.18 L 59.58 279.13 L 61.69 279.10 L 61.69 279.10 L 65.74 279.05 L 69.97 279.01 L 71.99 278.99 L 74.02 278.97 L 74.02 278.97 L 78.07 278.94 L 80.18 278.92 L 80.27 278.92 L 82.30 278.90 L 82.30 278.90 L 84.41 278.89 L 88.55 278.86 L 90.57 278.85 L 94.62 278.83 L 94.62 278.84 L 96.74 278.83 L 98.85 278.82 L 102.99 278.81 L 107.13 278.80 L 109.15 278.80 L 113.20 278.80 L 115.32 278.80 L 117.34 278.80 L 119.37 278.81 L 123.59 278.82 L 125.62 278.83 L 127.73 278.83 L 127.73 278.83 L 131.78 278.85 L 133.81 278.86 L 140.06 278.90 L 142.18 278.91 L 142.18 278.91 L 146.22 278.95 L 148.33 278.96 L 148.33 278.96 L 150.36 278.98 L 152.48 279.00 L 154.50 279.02 L 156.61 279.04 L 160.66 279.09 L 160.66 279.09 L 162.78 279.12 L 168.94 279.20 L 168.94 279.20 L 171.05 279.23 L 173.08 279.26 L 175.20 279.29 L 177.22 279.32 L 196.44 277.79 L 213.17 272.82 L 225.05 265.10 L 230.58 253.34 L 230.56 251.86 L 230.55 250.42 L 230.55 248.99 L 230.54 247.58 L 230.54 246.18 L 230.55 244.89 L 230.56 243.52 L 230.58 242.12 L 230.58 242.12 L 230.61 240.87 L 230.63 239.59 L 230.68 238.26 L 230.72 237.01 L 230.78 235.71 L 230.84 234.54 L 230.92 233.29 L 231.00 232.08 L 231.09 230.92 L 231.19 229.73 L 231.31 228.43 L 231.31 228.43 L 231.42 227.42 L 231.42 227.42 L 231.57 226.14 L 231.57 226.14 L 231.70 225.14 L 231.88 223.90 L 232.02 222.97 L 232.22 221.75 L 232.39 220.81 L 232.59 219.77 L 232.85 218.55 L 233.03 217.72 L 233.33 216.50 L 233.55 215.64 L 233.82 214.66 L 234.13 213.57 L 234.45 212.53 L 234.70 211.76 L 235.07 210.71 L 235.39 209.83 L 235.82 208.70 L 236.10 208.01 L 236.56 206.94 L 236.90 206.18 L 237.31 205.31 L 237.88 204.14 L 238.25 203.42 L 238.71 202.57 L 239.25 201.61 L 239.74 200.78 L 240.22 200.00 L 240.86 198.98 L 241.44 198.10 L 241.97 197.33 L 242.59 196.47 L 243.20 195.64 L 243.95 194.67 L 244.50 193.98 L 245.29 193.03 L 246.13 192.04 L 246.75 191.33 L 247.52 190.48 L 248.28 189.68 L 250.29 187.63 L 252.20 185.84 L 254.06 184.23 L 255.83 182.81 L 257.42 181.64 L 259.05 180.54 L 260.29 179.77 L 261.26 180.30 L 262.61 181.11 L 264.03 182.03 L 265.50 183.05 L 267.04 184.21 L 268.56 185.43 L 270.20 186.85 L 271.74 188.27 L 273.40 189.92 L 274.92 191.53 L 276.51 193.34 L 278.07 195.23 L 279.54 197.15 L 280.99 199.18 L 282.43 201.37 L 283.76 203.54 L 285.13 205.95 L 286.32 208.25 L 287.50 210.71 L 288.63 213.30 L 289.64 215.85 L 290.62 218.62 L 291.47 221.31 L 292.26 224.18 L 292.95 227.06 L 293.52 229.90 L 294.07 233.20 L 294.17 233.89 L 294.28 234.77 L 294.41 235.71 L 294.52 236.59 L 294.61 237.38 L 294.82 239.36 L 294.83 239.36 L 294.92 240.25 L 295.00 241.15 L 295.08 242.09 L 295.16 243.04 L 295.23 243.94 L 295.30 244.89 L 295.37 245.84 L 295.43 246.79 L 295.49 247.69 L 295.54 248.65 L 295.54 248.65 L 295.59 249.61 L 295.63 250.56 L 295.67 251.52 L 295.68 251.52 L 295.71 252.43 L 295.75 253.43 L 295.78 254.39 L 295.81 255.30 L 295.81 255.30 L 295.86 257.32 L 295.90 259.24 L 295.91 260.16 L 295.91 260.16 L 295.92 261.17 L 295.93 262.18 L 295.95 264.15 L 295.96 267.14 L 295.96 268.10 L 295.95 270.08 L 295.95 271.09 L 295.94 272.10 L 295.94 273.06 L 295.94 273.10 L 295.93 274.11 L 295.93 275.08 L 295.92 276.08 L 295.91 277.09 L 295.90 278.10 L 295.88 281.11 L 295.87 283.12 L 295.87 283.17 L 295.86 284.17 L 295.86 285.17 L 295.85 287.17 L 295.85 290.26 L 295.86 291.25 L 295.86 291.29 L 295.87 293.03 L 295.88 294.77 L 295.90 298.25 L 295.91 299.99 L 295.92 301.74 L 295.93 303.45 L 295.93 303.48 L 295.94 305.22 L 295.95 306.93 L 295.96 308.67 L 295.97 312.16 L 295.98 313.90 L 295.99 317.38 L 296.00 319.10 L 296.00 319.13 L 296.00 320.87 L 296.01 322.58 L 296.01 324.32 L 296.02 327.81 L 296.02 329.55 L 296.03 333.03 L 296.03 336.52 L 296.03 338.26 L 296.03 345.20 L 296.03 346.91 L 296.03 350.42 L 296.03 352.14 L 296.02 353.88 L 296.02 355.62 L 296.01 357.36 L 296.01 360.85 L 296.00 362.59 L 296.00 364.30 L 296.00 364.33 L 295.99 366.07 L 295.98 367.78 L 295.98 369.53 L 295.97 371.27 L 295.96 374.75 L 295.95 376.49 L 295.94 378.23 L 295.93 379.95 L 295.93 379.98 L 295.92 381.72 L 295.91 383.43 L 295.90 385.17 L 295.88 388.66 L 295.87 390.40 L 295.86 392.14 L 295.84 393.88 L 295.83 395.60 L 295.83 395.72 L 296.17 644.83 L 294.84 644.84 L 291.28 644.85 L 287.76 644.87 L 284.29 644.88 L 280.82 644.88 L 277.28 644.89 L 273.85 644.89 L 270.37 644.88 L 266.83 644.88 L 263.34 644.87 L 259.79 644.86 L 256.24 644.85 L 252.64 644.83 L 252.64 644.83 L 249.19 644.82 L 245.59 644.80 L 242.03 644.78 L 238.48 644.76 L 234.87 644.73 L 234.87 644.73 L 231.37 644.71 L 231.32 644.70 L 227.71 644.68 L 227.71 644.68 L 220.66 644.62 L 217.12 644.59 L 213.52 644.56 L 209.92 644.52 L 206.33 644.49 L 206.33 644.49 L 202.79 644.46 L 199.21 644.42 L 195.68 644.39 L 192.10 644.35 L 192.05 644.35 L 188.53 644.31 L 184.96 644.28 L 181.39 644.24 L 181.34 644.24 L 177.83 644.20 L 174.28 644.17 L 174.23 644.17 L 170.68 644.13 L 167.14 644.10 L 163.61 644.06 L 160.09 644.03 L 160.03 644.03 L 156.51 643.99 L 156.46 643.99 L 152.95 643.96 L 145.95 643.90 L 145.90 643.90 L 142.41 643.87 L 142.36 643.87 L 138.88 643.84 L 138.83 643.84 L 135.36 643.81 L 116.19 645.50 L 99.62 650.61 L 88.01 658.42 L 82.86 669.50 L 82.83 671.60 L 82.80 673.71 L 82.77 675.83 L 82.77 675.84 L 82.74 677.96 L 82.71 680.09 L 82.71 680.12 L 82.68 682.25 L 82.65 684.38 L 82.65 684.40 L 82.63 686.55 L 82.60 688.71 L 82.57 690.87 L 82.55 693.04 L 82.52 695.21 L 82.52 695.23 L 82.50 697.41 L 82.48 699.59 L 82.46 701.77 L 82.43 703.96 L 82.41 706.15 L 82.41 706.17 L 82.39 708.37 L 82.37 710.57 L 82.36 712.77 L 82.36 712.79 L 82.34 714.99 L 82.32 717.17 L 82.32 717.20 L 82.31 719.40 L 82.31 719.43 L 82.30 721.63 L 82.28 723.82 L 82.28 723.84 L 82.27 726.06 L 82.27 726.08 L 82.26 728.29 L 82.25 730.48 L 82.25 730.50 L 82.24 734.93 L 82.24 734.95 L 82.23 737.16 L 82.23 739.37 L 82.23 741.61 L 82.23 743.80 L 82.23 746.05 L 82.23 748.26 L 82.23 750.47 L 82.24 752.67 L 82.24 752.69 L 82.25 754.90 L 82.25 754.92 L 82.26 757.12 L 82.26 759.30 L 82.26 759.32 L 82.27 761.51 L 82.27 761.53 L 82.29 763.73 L 82.30 765.91 L 82.30 765.94 L 82.32 768.12 L 82.34 770.30 L 82.34 770.32 L 82.36 772.50 L 82.39 774.67 L 82.41 776.83 L 82.41 776.86 L 82.43 779.02 L 82.43 779.04 L 82.46 781.20 L 82.49 783.35 L 82.49 783.37 L 82.53 785.52 L 82.53 785.54 L 82.57 787.66 L 82.56 787.66 L 82.60 789.79 L 82.60 789.84 L 82.64 791.96 L 82.68 794.08 L 82.68 794.11 L 82.73 796.22 L 82.77 798.32 L 82.77 798.35 L 82.82 800.44 L 86.70 809.98 L 97.36 818.13 L 113.28 823.73 L 134.46 826.02 L 295.70 826.16 L 296.27 1113.43 L 296.08 1192.59 L 296.07 1193.96 L 296.07 1195.36 L 296.06 1196.72 L 296.04 1198.11 L 296.03 1199.50 L 296.02 1200.84 L 296.02 1200.88 L 296.01 1202.26 L 295.99 1203.60 L 295.99 1203.64 L 295.98 1205.01 L 295.97 1206.35 L 295.95 1207.71 L 295.95 1207.75 L 295.94 1209.11 L 295.93 1210.47 L 295.92 1211.83 L 295.92 1211.87 L 295.91 1213.23 L 295.90 1214.55 L 295.90 1214.62 L 295.90 1215.97 L 295.89 1217.32 L 295.89 1218.67 L 295.89 1218.74 L 295.89 1220.09 L 295.89 1221.47 L 295.90 1222.82 L 295.90 1222.85 L 295.91 1224.20 L 295.92 1225.54 L 295.92 1225.61 L 295.96 1228.29 L 295.96 1228.36 L 295.99 1229.70 L 295.99 1229.74 L 296.02 1231.08 L 296.02 1231.11 L 296.05 1232.45 L 296.05 1232.49 L 296.09 1233.82 L 296.09 1233.86 L 296.13 1235.20 L 296.13 1235.27 L 296.18 1236.61 L 296.18 1236.68 L 296.24 1238.02 L 296.24 1238.05 L 296.30 1239.39 L 296.30 1239.46 L 296.37 1240.80 L 296.37 1240.83 L 296.44 1242.17 L 296.45 1242.25 L 296.52 1243.58 L 296.53 1243.65 L 296.61 1244.99 L 296.62 1245.03 L 296.71 1246.37 L 296.71 1246.48 L 296.81 1247.82 L 296.81 1247.85 L 296.92 1249.19 L 296.93 1249.30 L 297.04 1250.65 L 297.05 1250.72 L 297.17 1252.06 L 297.17 1252.09 L 297.30 1253.44 L 297.31 1253.55 L 297.44 1254.90 L 297.46 1255.00 L 297.60 1256.35 L 297.61 1256.38 L 297.76 1257.73 L 297.77 1257.84 L 297.93 1259.19 L 297.95 1259.29 L 298.12 1260.65 L 298.13 1260.72 L 298.31 1262.08 L 298.32 1262.18 L 298.52 1263.54 L 298.52 1263.61 L 298.72 1264.97 L 298.74 1265.07 L 298.95 1266.44 L 298.97 1266.53 L 299.19 1267.90 L 299.20 1267.97 L 299.43 1269.34 L 299.45 1269.47 L 299.70 1270.85 L 299.71 1270.95 L 299.97 1272.33 L 299.98 1272.39 L 300.24 1273.77 L 300.26 1273.90 L 300.54 1275.29 L 300.56 1275.38 L 300.85 1276.77 L 300.88 1276.91 L 301.30 1278.81 L 301.33 1278.96 L 301.77 1280.85 L 301.79 1280.96 L 302.24 1282.84 L 302.27 1282.95 L 302.74 1284.83 L 302.77 1284.96 L 303.25 1286.83 L 303.28 1286.94 L 303.78 1288.80 L 303.82 1288.94 L 304.33 1290.80 L 304.37 1290.91 L 304.90 1292.77 L 304.94 1292.90 L 305.49 1294.75 L 305.52 1294.86 L 306.09 1296.71 L 306.12 1296.82 L 306.70 1298.66 L 306.75 1298.80 L 307.34 1300.63 L 307.38 1300.74 L 307.99 1302.56 L 308.04 1302.68 L 308.66 1304.50 L 308.72 1304.65 L 309.36 1306.46 L 309.40 1306.57 L 310.06 1308.38 L 310.12 1308.52 L 310.80 1310.32 L 310.83 1310.42 L 311.52 1312.21 L 311.58 1312.36 L 312.29 1314.14 L 312.34 1314.26 L 313.06 1316.04 L 313.12 1316.19 L 313.86 1317.96 L 313.90 1318.05 L 314.66 1319.82 L 314.72 1319.98 L 315.50 1321.73 L 315.55 1321.85 L 316.34 1323.61 L 316.39 1323.74 L 317.20 1325.48 L 317.26 1325.63 L 318.08 1327.36 L 318.13 1327.46 L 318.96 1329.20 L 319.04 1329.35 L 319.89 1331.07 L 319.95 1331.20 L 320.81 1332.91 L 320.88 1333.05 L 321.76 1334.75 L 321.83 1334.88 L 322.72 1336.58 L 322.80 1336.72 L 323.70 1338.41 L 323.77 1338.53 L 324.69 1340.21 L 324.78 1340.36 L 325.71 1342.03 L 325.78 1342.16 L 326.74 1343.83 L 326.83 1343.99 L 327.80 1345.65 L 327.87 1345.76 L 328.86 1347.41 L 328.94 1347.55 L 329.93 1349.19 L 330.03 1349.35 L 331.05 1350.99 L 331.12 1351.10 L 332.15 1352.73 L 332.24 1352.87 L 333.28 1354.48 L 333.37 1354.62 L 334.43 1356.23 L 334.53 1356.38 L 335.60 1357.98 L 335.70 1358.11 L 336.78 1359.70 L 336.89 1359.86 L 337.99 1361.43 L 338.09 1361.58 L 339.21 1363.15 L 339.29 1363.26 L 340.42 1364.82 L 340.55 1365.01 L 341.70 1366.56 L 341.80 1366.69 L 342.95 1368.23 L 343.06 1368.37 L 344.23 1369.90 L 344.35 1370.06 L 345.54 1371.58 L 345.66 1371.74 L 346.86 1373.25 L 346.97 1373.39 L 348.18 1374.89 L 348.34 1375.07 L 349.57 1376.56 L 349.68 1376.69 L 350.92 1378.17 L 351.02 1378.30 L 352.28 1379.77 L 352.44 1379.96 L 353.71 1381.42 L 353.84 1381.56 L 355.12 1383.01 L 355.27 1383.18 L 356.57 1384.62 L 356.72 1384.79 L 358.03 1386.22 L 358.22 1386.41 L 360.30 1388.63 L 360.54 1388.88 L 362.64 1391.05 L 362.84 1391.26 L 364.96 1393.40 L 365.18 1393.62 L 367.31 1395.73 L 367.55 1395.97 L 369.70 1398.03 L 369.96 1398.27 L 372.11 1400.30 L 372.37 1400.54 L 374.55 1402.53 L 374.83 1402.78 L 377.01 1404.73 L 377.30 1404.98 L 379.50 1406.89 L 379.80 1407.15 L 382.01 1409.02 L 382.34 1409.29 L 384.57 1411.13 L 384.89 1411.38 L 387.13 1413.18 L 387.48 1413.46 L 389.75 1415.23 L 390.10 1415.50 L 392.38 1417.23 L 392.75 1417.51 L 395.04 1419.20 L 395.44 1419.48 L 397.74 1421.13 L 398.15 1421.42 L 400.47 1423.03 L 400.88 1423.32 L 403.22 1424.90 L 403.68 1425.21 L 406.03 1426.75 L 406.51 1427.05 L 408.88 1428.56 L 409.34 1428.85 L 411.72 1430.32 L 412.24 1430.63 L 414.63 1432.07 L 415.17 1432.38 L 417.58 1433.78 L 418.11 1434.08 L 420.54 1435.44 L 421.12 1435.76 L 423.57 1437.09 L 424.15 1437.40 L 426.60 1438.69 L 427.26 1439.03 L 429.74 1440.28 L 430.34 1440.58 L 432.83 1441.80 L 433.51 1442.13 L 436.02 1443.31 L 436.72 1443.64 L 439.25 1444.78 L 439.93 1445.09 L 442.46 1446.20 L 443.23 1446.53 L 445.78 1447.60 L 446.54 1447.92 L 449.11 1448.96 L 449.92 1449.29 L 452.51 1450.29 L 453.30 1450.60 L 455.90 1451.57 L 456.77 1451.89 L 459.39 1452.82 L 460.25 1453.12 L 462.88 1454.03 L 463.78 1454.33 L 466.43 1455.20 L 467.36 1455.49 L 470.02 1456.33 L 470.93 1456.61 L 473.61 1457.41 L 474.62 1457.70 L 477.32 1458.46 L 478.30 1458.73 L 481.01 1459.47 L 482.02 1459.73 L 484.74 1460.43 L 485.74 1460.67 L 488.49 1461.34 L 489.60 1461.60 L 492.36 1462.23 L 493.39 1462.46 L 496.18 1463.05 L 497.22 1463.27 L 500.01 1463.83 L 501.17 1464.06 L 503.98 1464.59 L 505.09 1464.79 L 507.92 1465.28 L 508.97 1465.46 L 511.82 1465.93 L 513.02 1466.11 L 515.88 1466.54 L 516.97 1466.70 L 519.85 1467.10 L 520.98 1467.24 L 523.87 1467.61 L 525.05 1467.75 L 527.96 1468.08 L 529.06 1468.20 L 531.99 1468.50 L 533.15 1468.61 L 536.10 1468.87 L 537.26 1468.97 L 540.22 1469.20 L 541.33 1469.28 L 544.31 1469.49 L 545.47 1469.56 L 548.47 1469.73 L 549.56 1469.78 L 552.58 1469.92 L 559.49 1470.00 L 562.39 1469.94 L 563.66 1469.90 L 566.54 1469.80 L 567.81 1469.75 L 570.68 1469.62 L 571.94 1469.55 L 574.80 1469.38 L 576.08 1469.30 L 578.92 1469.10 L 580.20 1469.00 L 583.03 1468.76 L 584.29 1468.65 L 587.11 1468.37 L 588.37 1468.24 L 591.18 1467.93 L 592.36 1467.80 L 595.16 1467.46 L 596.46 1467.29 L 599.24 1466.91 L 600.42 1466.74 L 603.18 1466.33 L 604.38 1466.14 L 607.14 1465.69 L 608.28 1465.50 L 611.02 1465.02 L 612.24 1464.80 L 614.97 1464.28 L 616.08 1464.06 L 618.79 1463.51 L 619.88 1463.28 L 622.58 1462.70 L 623.76 1462.43 L 626.44 1461.81 L 627.46 1461.57 L 630.13 1460.92 L 631.16 1460.66 L 633.81 1459.97 L 634.84 1459.70 L 637.48 1458.98 L 638.48 1458.70 L 641.11 1457.94 L 642.08 1457.66 L 644.70 1456.86 L 645.66 1456.57 L 648.26 1455.74 L 649.13 1455.46 L 651.72 1454.60 L 652.59 1454.30 L 655.17 1453.41 L 656.04 1453.10 L 658.59 1452.18 L 659.42 1451.87 L 661.97 1450.91 L 662.73 1450.62 L 665.26 1449.62 L 666.09 1449.29 L 668.61 1448.26 L 669.34 1447.96 L 671.85 1446.89 L 672.53 1446.60 L 675.02 1445.50 L 675.71 1445.19 L 678.18 1444.07 L 678.85 1443.76 L 681.31 1442.60 L 681.94 1442.29 L 684.39 1441.09 L 685.03 1440.77 L 687.46 1439.54 L 688.03 1439.25 L 690.45 1437.99 L 691.04 1437.68 L 693.44 1436.38 L 693.99 1436.08 L 696.37 1434.75 L 696.85 1434.48 L 699.23 1433.12 L 699.78 1432.80 L 702.14 1431.40 L 702.60 1431.12 L 704.95 1429.69 L 705.43 1429.39 L 707.76 1427.93 L 708.16 1427.67 L 710.48 1426.18 L 710.94 1425.88 L 713.23 1424.35 L 713.65 1424.07 L 715.93 1422.51 L 716.31 1422.25 L 718.58 1420.66 L 718.97 1420.37 L 721.23 1418.75 L 721.56 1418.51 L 723.80 1416.85 L 724.19 1416.55 L 726.41 1414.86 L 726.72 1414.63 L 728.93 1412.90 L 729.26 1412.64 L 731.46 1410.88 L 731.76 1410.63 L 733.94 1408.84 L 734.22 1408.60 L 736.39 1406.78 L 736.68 1406.53 L 738.83 1404.67 L 739.09 1404.45 L 741.22 1402.56 L 741.49 1402.32 L 743.60 1400.40 L 743.85 1400.18 L 745.95 1398.23 L 746.21 1397.99 L 748.29 1396.00 L 748.50 1395.81 L 750.57 1393.79 L 750.81 1393.55 L 752.86 1391.51 L 754.52 1389.85 L 754.74 1389.63 L 756.35 1387.98 L 756.50 1387.82 L 758.10 1386.16 L 758.31 1385.93 L 759.88 1384.25 L 760.07 1384.04 L 761.62 1382.35 L 761.77 1382.19 L 763.30 1380.48 L 763.51 1380.25 L 765.02 1378.52 L 765.16 1378.36 L 766.65 1376.62 L 766.83 1376.40 L 768.30 1374.64 L 768.44 1374.48 L 769.89 1372.71 L 770.04 1372.52 L 771.47 1370.73 L 771.64 1370.53 L 773.05 1368.73 L 773.19 1368.54 L 774.58 1366.72 L 774.70 1366.55 L 776.07 1364.72 L 776.19 1364.56 L 777.54 1362.72 L 777.68 1362.53 L 779.01 1360.67 L 779.14 1360.48 L 780.44 1358.61 L 780.57 1358.44 L 781.85 1356.55 L 781.96 1356.39 L 783.22 1354.49 L 783.35 1354.29 L 784.59 1352.38 L 784.69 1352.22 L 785.91 1350.30 L 786.01 1350.14 L 787.21 1348.21 L 787.33 1348.01 L 788.50 1346.06 L 788.59 1345.92 L 789.75 1343.95 L 789.86 1343.76 L 790.99 1341.79 L 791.08 1341.64 L 792.19 1339.65 L 792.28 1339.49 L 793.37 1337.49 L 793.46 1337.33 L 794.53 1335.32 L 794.62 1335.13 L 795.66 1333.11 L 795.74 1332.97 L 796.76 1330.94 L 796.84 1330.78 L 797.84 1328.74 L 797.92 1328.57 L 798.90 1326.52 L 798.97 1326.36 L 799.93 1324.30 L 800.01 1324.12 L 800.94 1322.05 L 801.00 1321.92 L 801.91 1319.83 L 801.99 1319.66 L 802.88 1317.56 L 802.94 1317.40 L 803.81 1315.30 L 803.87 1315.15 L 804.71 1313.04 L 804.77 1312.87 L 805.59 1310.74 L 805.64 1310.61 L 806.44 1308.48 L 806.50 1308.31 L 807.27 1306.17 L 807.32 1306.02 L 808.07 1303.87 L 808.13 1303.71 L 808.85 1301.55 L 808.90 1301.40 L 809.60 1299.23 L 809.65 1299.09 L 810.33 1296.91 L 810.38 1296.75 L 811.03 1294.56 L 811.07 1294.42 L 811.71 1292.22 L 811.75 1292.06 L 812.36 1289.86 L 812.39 1289.72 L 812.98 1287.51 L 813.02 1287.36 L 813.58 1285.14 L 813.61 1285.00 L 814.15 1282.77 L 814.18 1282.64 L 814.69 1280.41 L 814.73 1280.23 L 815.22 1277.99 L 815.24 1277.86 L 815.71 1275.61 L 815.73 1275.48 L 816.17 1273.22 L 816.20 1273.07 L 816.62 1270.81 L 816.64 1270.66 L 817.03 1268.40 L 817.06 1268.24 L 817.42 1265.97 L 817.44 1265.84 L 817.78 1263.57 L 817.80 1263.41 L 818.11 1261.13 L 818.14 1260.93 L 818.23 1260.17 L 818.24 1260.10 L 818.33 1259.34 L 818.34 1259.28 L 818.42 1258.52 L 818.43 1258.46 L 818.59 1256.94 L 818.60 1256.88 L 818.68 1256.12 L 818.68 1256.06 L 818.75 1255.30 L 818.76 1255.24 L 818.83 1254.48 L 818.84 1254.41 L 818.97 1252.90 Z" fill="#FFFFFF"/></g>
    <g transform="translate(5015.12,0)"><path d="M630.665283203125 -30Q466.83221435546875 -30 342.99920654296875 41.083282470703125Q219.16619873046875 112.16656494140625 149.58309936523438 238.08328247070312Q80 364 80 528.3336181640625Q80 705.3336181640625 148.24978637695312 835.8335571289062Q216.49957275390625 966.33349609375 337.4159851074219 1038.166748046875Q458.3323974609375 1110 617.332275390625 1110Q784.8319702148438 1110 902.331787109375 1031.6668701171875Q1019.8316040039062 953.333740234375 1077.0816345214844 810.333984375Q1134.3316650390625 667.334228515625 1120.1653442382812 472.667724609375H881.0023193359375V560.666259765625Q880.002197265625 737.0009765625 819.0011596679688 818.168701171875Q758.0001220703125 899.33642578125 627.33203125 899.33642578125Q479.49761962890625 899.33642578125 407.2467956542969 807.6688842773438Q334.9959716796875 716.0013427734375 334.9959716796875 540Q334.9959716796875 375.6650390625 407.2467956542969 285.66412353515625Q479.49761962890625 195.6632080078125 617.332275390625 195.6632080078125Q706.3333740234375 195.6632080078125 770.6676025390625 235.3304443359375Q835.0018310546875 274.9976806640625 870.00244140625 349.6654052734375L1108.3316650390625 277.99951171875Q1046.4982299804688 131.6663818359375 916.7484436035156 50.83319091796875Q786.9986572265625 -30 630.665283203125 -30ZM258.9969482421875 472.667724609375V654.9986572265625H1002.3336181640625V472.667724609375Z" fill="#FFFFFF"/></g>
    <g transform="translate(6084.46,0)"><path d="M140 0V1080H352.9967041015625V817.0001220703125L326.9967041015625 851.0001220703125Q347.3299560546875 904.9998779296875 380.82977294921875 949.6663818359375Q414.32958984375 994.3328857421875 460.9957275390625 1023.332763671875Q500.82916259765625 1050.4998168945312 549.2461242675781 1065.5Q597.6630859375 1080.5001831054688 648.663330078125 1084.0001831054688Q699.66357421875 1087.5001831054688 748.3302001953125 1080V855.0035400390625Q699.6630859375 869.1702270507812 637.5794372558594 863.8367919921875Q575.4957885742188 858.5033569335938 524.662109375 829.3359375Q475.16192626953125 802.1686401367188 443.7454528808594 760.2513122558594Q412.3289794921875 718.333984375 397.3292236328125 664.83349609375Q382.3294677734375 611.3330078125 382.3294677734375 548.666259765625V0Z" fill="#FFFFFF"/></g>
    <g transform="translate(6789.45,0)"><path d="M887.0013427734375 0V520.3345947265625Q887.0013427734375 570.5028686523438 879.7509460449219 632.50341796875Q872.5005493164062 694.5039672851562 847.3333740234375 752.0872497558594Q822.1661987304688 809.6705322265625 771.6658325195312 846.6702880859375Q721.1654663085938 883.6700439453125 634.66552734375 883.6700439453125Q588.99755859375 883.6700439453125 544.0802917480469 868.7528991699219Q499.16302490234375 853.8357543945312 462.82952880859375 817.5851745605469Q426.49603271484375 781.3345947265625 404.4127502441406 717.5009155273438Q382.3294677734375 653.667236328125 382.3294677734375 555.0008544921875L239.3310546875 616.3326416015625Q239.3310546875 753.8338012695312 292.83123779296875 866.0838317871094Q346.3314208984375 978.3338623046875 450.1646728515625 1044.5001831054688Q553.9979248046875 1110.66650390625 706.3304443359375 1110.66650390625Q825.8295288085938 1110.66650390625 903.9126281738281 1071.000244140625Q981.9957275390625 1031.333984375 1027.9959106445312 969.0844421386719Q1073.99609375 906.8348999023438 1095.9964599609375 836.7517395019531Q1117.996826171875 766.6685791015625 1124.4971313476562 704.0848083496094Q1130.9974365234375 641.5010375976562 1130.9974365234375 602.9996337890625V0ZM138.3333740234375 0V1080H352.9967041015625V745.0028076171875H382.3294677734375V0Z" fill="#FFFFFF"/></g>
    <g transform="translate(7915.45,0)"><path d="M442.3336181640625 -30Q324.666748046875 -30 243.75003051757812 14.416656494140625Q162.83331298828125 58.83331298828125 121.41665649414062 132.91659545898438Q80 206.9998779296875 80 295.999755859375Q80 374.33349609375 106.08370971679688 436.4168395996094Q132.16741943359375 498.50018310546875 186.25106811523438 544.0832824707031Q240.334716796875 589.6663818359375 325.6678466796875 618.9993896484375Q391.335205078125 640.4993286132812 478.4190368652344 657.0826110839844Q565.5028686523438 673.6658935546875 668.1692504882812 688.2491149902344Q770.8356323242188 702.8323364257812 883.333984375 719.6654052734375L796.668701171875 671.332763671875Q797.5021362304688 783.1680297851562 746.7515563964844 836.2523498535156Q696.0009765625 889.336669921875 574.666015625 889.336669921875Q501.997802734375 889.336669921875 434.0807800292969 855.0860290527344Q366.16375732421875 820.8353881835938 338.9969482421875 738.3343505859375L118.666748046875 807.333251953125Q158.83331298828125 944.000244140625 271.5832824707031 1027.0001220703125Q384.333251953125 1110 575.332763671875 1110Q719.4995727539062 1110 828.666015625 1063.1663208007812Q937.8324584960938 1016.3326416015625 991.33203125 908.9993896484375Q1020.3316650390625 852.3331298828125 1026.3316650390625 792.8331909179688Q1032.3316650390625 733.333251953125 1032.3316650390625 662.6669921875V0H821.0015869140625V234.3348388671875L856.001708984375 195.6690673828125Q783.00244140625 79.16815185546875 685.4183654785156 24.584075927734375Q587.8342895507812 -30 442.3336181640625 -30ZM489.9990234375 162.3306884765625Q571.9998779296875 162.3306884765625 629.833984375 191.41433715820312Q687.6680908203125 220.49798583984375 722.3352661132812 262.0822448730469Q757.00244140625 303.66650390625 768.669189453125 341.3349609375Q787.5022583007812 387.335205078125 790.4188537597656 446.7519836425781Q793.33544921875 506.16876220703125 793.33544921875 543.335205078125L867.334716796875 521.0015869140625Q757.66943359375 503.50189208984375 679.5857238769531 490.8353271484375Q601.5020141601562 478.16876220703125 545.8341674804688 466.7520446777344Q490.16632080078125 455.3353271484375 446.9986572265625 441.0018310546875Q405.49847412109375 425.6685791015625 376.4145812988281 405.9184265136719Q347.3306884765625 386.16827392578125 331.8302001953125 360.0010986328125Q316.3297119140625 333.83392333984375 316.3297119140625 298.9996337890625Q316.3297119140625 259.49932861328125 336.0798645019531 228.58212280273438Q355.83001708984375 197.6649169921875 394.4139099121094 179.997802734375Q432.997802734375 162.3306884765625 489.9990234375 162.3306884765625Z" fill="#FFFFFF"/></g>
  </g>
</svg>